<svg width="24" height="22" viewBox="0 0 24 22" fill="none" xmlns="http://www.w3.org/2000/svg">
<path d="M13.3307 1.77045L22.2001 17.1322C22.3354 17.3665 22.4066 17.6322 22.4066 17.9027C22.4066 18.1732 22.3354 18.4389 22.2001 18.6731C22.0649 18.9074 21.8704 19.1019 21.6361 19.2371C21.4019 19.3724 21.1362 19.4436 20.8657 19.4436H3.1268C2.85632 19.4436 2.59061 19.3724 2.35636 19.2371C2.12212 19.1019 1.92761 18.9074 1.79237 18.6731C1.65713 18.4389 1.58594 18.1732 1.58594 17.9027C1.58594 17.6322 1.65714 17.3665 1.79238 17.1322L10.6618 1.77045C11.2546 0.743183 12.7369 0.743183 13.3307 1.77045ZM11.9962 13.9457C11.7238 13.9457 11.4625 14.0539 11.2699 14.2465C11.0772 14.4392 10.969 14.7005 10.969 14.9729C10.969 15.2454 11.0772 15.5067 11.2699 15.6993C11.4625 15.892 11.7238 16.0002 11.9962 16.0002C12.2687 16.0002 12.53 15.892 12.7226 15.6993C12.9153 15.5067 13.0235 15.2454 13.0235 14.9729C13.0235 14.7005 12.9153 14.4392 12.7226 14.2465C12.53 14.0539 12.2687 13.9457 11.9962 13.9457ZM11.9962 6.75476C11.7446 6.7548 11.5018 6.84717 11.3138 7.01437C11.1257 7.18157 11.0056 7.41196 10.9762 7.66184L10.969 7.78203V11.8911C10.9693 12.1529 11.0695 12.4048 11.2493 12.5952C11.429 12.7856 11.6747 12.9001 11.936 12.9155C12.1974 12.9308 12.4548 12.8458 12.6556 12.6777C12.8564 12.5097 12.9854 12.2713 13.0163 12.0113L13.0235 11.8911V7.78203C13.0235 7.50958 12.9153 7.24829 12.7226 7.05564C12.53 6.86299 12.2687 6.75476 11.9962 6.75476Z" fill="url(#paint0_linear_1380_38033)"/>
<path d="M13.3307 1.77045L22.2001 17.1322C22.3354 17.3665 22.4066 17.6322 22.4066 17.9027C22.4066 18.1732 22.3354 18.4389 22.2001 18.6731C22.0649 18.9074 21.8704 19.1019 21.6361 19.2371C21.4019 19.3724 21.1362 19.4436 20.8657 19.4436H3.1268C2.85632 19.4436 2.59061 19.3724 2.35636 19.2371C2.12212 19.1019 1.92761 18.9074 1.79237 18.6731C1.65713 18.4389 1.58594 18.1732 1.58594 17.9027C1.58594 17.6322 1.65714 17.3665 1.79238 17.1322L10.6618 1.77045C11.2546 0.743183 12.7369 0.743183 13.3307 1.77045ZM11.9962 13.9457C11.7238 13.9457 11.4625 14.0539 11.2699 14.2465C11.0772 14.4392 10.969 14.7005 10.969 14.9729C10.969 15.2454 11.0772 15.5067 11.2699 15.6993C11.4625 15.892 11.7238 16.0002 11.9962 16.0002C12.2687 16.0002 12.53 15.892 12.7226 15.6993C12.9153 15.5067 13.0235 15.2454 13.0235 14.9729C13.0235 14.7005 12.9153 14.4392 12.7226 14.2465C12.53 14.0539 12.2687 13.9457 11.9962 13.9457ZM11.9962 6.75476C11.7446 6.7548 11.5018 6.84717 11.3138 7.01437C11.1257 7.18157 11.0056 7.41196 10.9762 7.66184L10.969 7.78203V11.8911C10.9693 12.1529 11.0695 12.4048 11.2493 12.5952C11.429 12.7856 11.6747 12.9001 11.936 12.9155C12.1974 12.9308 12.4548 12.8458 12.6556 12.6777C12.8564 12.5097 12.9854 12.2713 13.0163 12.0113L13.0235 11.8911V7.78203C13.0235 7.50958 12.9153 7.24829 12.7226 7.05564C12.53 6.86299 12.2687 6.75476 11.9962 6.75476Z" fill="url(#paint1_linear_1380_38033)"/>
<defs>
<linearGradient id="paint0_linear_1380_38033" x1="11.9962" y1="1" x2="11.9962" y2="19.4436" gradientUnits="userSpaceOnUse">
<stop stop-color="#07080A"/>
<stop offset="1" stop-color="#1A1B1F"/>
</linearGradient>
<linearGradient id="paint1_linear_1380_38033" x1="59.4933" y1="60.0195" x2="16.7127" y2="63.1539" gradientUnits="userSpaceOnUse">
<stop stop-color="white"/>
<stop offset="0.246488" stop-color="white"/>
<stop offset="0.483729" stop-color="#D1C6FF"/>
<stop offset="0.764806" stop-color="#8375C2"/>
<stop offset="1" stop-color="#8375C2"/>
</linearGradient>
</defs>
</svg>
