<svg width="48" height="48" viewBox="0 0 48 48" fill="none" xmlns="http://www.w3.org/2000/svg">
<g clip-path="url(#clip0_1380_37728)">
<path fill-rule="evenodd" clip-rule="evenodd" d="M24 0C14.949 0 10.4236 0 7.61178 2.81177C5.06035 5.3632 4.82411 9.32567 4.80223 16.8H2.4C1.07452 16.8 0 17.8745 0 19.2V21.6C0 22.3554 0.355666 23.0667 0.96 23.52L4.8 26.4C4.82187 33.8743 5.06035 37.8368 7.61178 40.3882C8.19301 40.9695 8.84747 41.4305 9.6 41.7963V45.5998C9.6 46.9253 10.6745 47.9998 12 47.9998H15.6C16.9255 47.9998 18 46.9253 18 45.5998V43.1557C19.7449 43.2 21.7302 43.2 24 43.2C26.2698 43.2 28.2551 43.2 30 43.1557V45.5998C30 46.9253 31.0745 47.9998 32.4 47.9998H36C37.3255 47.9998 38.4 46.9253 38.4 45.5998V41.7963C39.1525 41.4305 39.807 40.9695 40.3882 40.3882C42.9397 37.8368 43.1781 33.8743 43.2 26.4L47.04 23.52C47.6443 23.0667 48 22.3554 48 21.6V19.2C48 17.8745 46.9255 16.8 45.6 16.8H43.1978C43.1759 9.32567 42.9397 5.3632 40.3882 2.81177C37.5765 0 33.051 0 24 0ZM8.4 18C8.4 21.3941 8.4 23.0912 9.45442 24.1456C10.5088 25.2 12.2059 25.2 15.6 25.2H24H32.4C35.7941 25.2 37.4912 25.2 38.5456 24.1456C39.6 23.0912 39.6 21.3941 39.6 18V12C39.6 8.60589 39.6 6.90883 38.5456 5.85442C37.4912 4.8 35.7941 4.8 32.4 4.8H24H15.6C12.2059 4.8 10.5088 4.8 9.45442 5.85442C8.4 6.90883 8.4 8.60589 8.4 12V18ZM10.2 33.6C10.2 32.6059 11.0059 31.8 12 31.8H15.6C16.5941 31.8 17.4 32.6059 17.4 33.6C17.4 34.5941 16.5941 35.4 15.6 35.4H12C11.0059 35.4 10.2 34.5941 10.2 33.6ZM37.8 33.6C37.8 32.6059 36.9941 31.8 36 31.8H32.4C31.4059 31.8 30.6 32.6059 30.6 33.6C30.6 34.5941 31.4059 35.4 32.4 35.4H36C36.9941 35.4 37.8 34.5941 37.8 33.6Z" fill="white"/>
<path fill-rule="evenodd" clip-rule="evenodd" d="M24 0C14.949 0 10.4236 0 7.61178 2.81177C5.06035 5.3632 4.82411 9.32567 4.80223 16.8H2.4C1.07452 16.8 0 17.8745 0 19.2V21.6C0 22.3554 0.355666 23.0667 0.96 23.52L4.8 26.4C4.82187 33.8743 5.06035 37.8368 7.61178 40.3882C8.19301 40.9695 8.84747 41.4305 9.6 41.7963V45.5998C9.6 46.9253 10.6745 47.9998 12 47.9998H15.6C16.9255 47.9998 18 46.9253 18 45.5998V43.1557C19.7449 43.2 21.7302 43.2 24 43.2C26.2698 43.2 28.2551 43.2 30 43.1557V45.5998C30 46.9253 31.0745 47.9998 32.4 47.9998H36C37.3255 47.9998 38.4 46.9253 38.4 45.5998V41.7963C39.1525 41.4305 39.807 40.9695 40.3882 40.3882C42.9397 37.8368 43.1781 33.8743 43.2 26.4L47.04 23.52C47.6443 23.0667 48 22.3554 48 21.6V19.2C48 17.8745 46.9255 16.8 45.6 16.8H43.1978C43.1759 9.32567 42.9397 5.3632 40.3882 2.81177C37.5765 0 33.051 0 24 0ZM8.4 18C8.4 21.3941 8.4 23.0912 9.45442 24.1456C10.5088 25.2 12.2059 25.2 15.6 25.2H24H32.4C35.7941 25.2 37.4912 25.2 38.5456 24.1456C39.6 23.0912 39.6 21.3941 39.6 18V12C39.6 8.60589 39.6 6.90883 38.5456 5.85442C37.4912 4.8 35.7941 4.8 32.4 4.8H24H15.6C12.2059 4.8 10.5088 4.8 9.45442 5.85442C8.4 6.90883 8.4 8.60589 8.4 12V18ZM10.2 33.6C10.2 32.6059 11.0059 31.8 12 31.8H15.6C16.5941 31.8 17.4 32.6059 17.4 33.6C17.4 34.5941 16.5941 35.4 15.6 35.4H12C11.0059 35.4 10.2 34.5941 10.2 33.6ZM37.8 33.6C37.8 32.6059 36.9941 31.8 36 31.8H32.4C31.4059 31.8 30.6 32.6059 30.6 33.6C30.6 34.5941 31.4059 35.4 32.4 35.4H36C36.9941 35.4 37.8 34.5941 37.8 33.6Z" fill="url(#paint0_linear_1380_37728)"/>
</g>
<defs>
<linearGradient id="paint0_linear_1380_37728" x1="24" y1="0" x2="24" y2="47.9998" gradientUnits="userSpaceOnUse">
<stop stop-color="#F6F4FE"/>
<stop offset="1" stop-color="#A19ABF"/>
</linearGradient>
<clipPath id="clip0_1380_37728">
<rect width="48" height="48" fill="white"/>
</clipPath>
</defs>
</svg>
