<svg width="15" height="16" viewBox="0 0 15 16" fill="none" xmlns="http://www.w3.org/2000/svg">
<path d="M10.3897 0.0820323C10.7255 0.0814188 10.9912 0.342597 10.9922 0.690431L10.9932 1.28418C13.1736 1.45525 14.6137 2.94121 14.6162 5.21973L14.625 11.8906C14.6281 14.375 13.0673 15.9041 10.5654 15.9082L4.45313 15.916C1.96711 15.919 0.387048 14.3537 0.383794 11.8623L0.375005 5.26953C0.372039 2.97587 1.76176 1.49413 3.94239 1.29395L3.94141 0.700196C3.9407 0.35211 4.1991 0.0898448 4.54297 0.0898448C4.88675 0.0892002 5.14473 0.351158 5.14551 0.69922L5.14649 1.25293L9.78907 1.24609L9.78809 0.692384C9.78733 0.344248 10.0457 0.0828236 10.3897 0.0820323ZM10.7012 11.3164C10.3418 11.3251 10.053 11.6264 10.0606 11.9902C10.0613 12.3542 10.3514 12.6542 10.7109 12.6621C11.0774 12.6612 11.3747 12.36 11.374 11.9883C11.3739 11.6167 11.0761 11.3167 10.709 11.3164H10.7012ZM4.26856 11.3184C3.90902 11.3342 3.62718 11.636 3.62793 12C3.64434 12.3638 3.94143 12.6482 4.30079 12.6318C4.65325 12.616 4.93429 12.3151 4.91797 11.9512C4.91016 11.5951 4.62023 11.3176 4.26856 11.3184ZM7.48731 11.3135C7.12811 11.3303 6.84794 11.6305 6.84766 11.9941C6.86408 12.3581 7.16096 12.6428 7.52051 12.627C7.87216 12.6102 8.15313 12.309 8.13672 11.9443C8.12865 11.5894 7.83881 11.3128 7.48731 11.3135ZM4.26172 8.46973C3.90225 8.48555 3.62142 8.78749 3.62208 9.15137C3.63792 9.5151 3.93558 9.79973 4.29493 9.7832C4.64658 9.76729 4.92755 9.46549 4.91114 9.10156C4.90304 8.7459 4.61386 8.46916 4.26172 8.46973ZM7.48438 8.44141C7.12501 8.45732 6.8441 8.75925 6.84473 9.12305C6.86036 9.48703 7.15803 9.77071 7.51758 9.75488C7.86909 9.73807 8.14933 9.438 8.13379 9.07422C8.12507 8.71832 7.83596 8.4407 7.48438 8.44141ZM10.7041 8.44531C10.3447 8.45322 10.0629 8.7456 10.0635 9.10938V9.11817C10.0713 9.48205 10.3683 9.75873 10.7285 9.75098C11.0802 9.74218 11.3613 9.4401 11.3535 9.07617C11.3369 8.72835 11.0547 8.44477 10.7041 8.44531ZM5.14649 2.4707L5.14747 3.11035C5.14747 3.45125 4.89059 3.72048 4.54688 3.7207C4.20301 3.7215 3.94441 3.45328 3.94434 3.11231L3.94336 2.50293C2.41925 2.65564 1.57587 3.55148 1.57813 5.26758L1.57911 5.51367L13.4131 5.49805V5.2207C13.3793 3.5198 12.525 2.62711 10.9932 2.49414L10.9941 3.10352C10.9941 3.44358 10.7294 3.71361 10.3936 3.71387C10.0498 3.71466 9.79124 3.44551 9.79102 3.10547L9.79004 2.46387L5.14649 2.4707Z" fill="#8D86AB"/>
</svg>
