<svg width="18" height="18" viewBox="0 0 18 18" fill="none" xmlns="http://www.w3.org/2000/svg">
<path fill-rule="evenodd" clip-rule="evenodd" d="M13.4444 1C12.5015 1 11.5971 1.3746 10.9303 2.0414C10.2635 2.70819 9.88889 3.61256 9.88889 4.55556C9.88889 5.49855 10.2635 6.40292 10.9303 7.06971C11.5971 7.73651 12.5015 8.11111 13.4444 8.11111C14.3874 8.11111 15.2918 7.73651 15.9586 7.06971C16.6254 6.40292 17 5.49855 17 4.55556C17 3.61256 16.6254 2.70819 15.9586 2.0414C15.2918 1.3746 14.3874 1 13.4444 1ZM1 13.4444C1 12.5015 1.3746 11.5971 2.0414 10.9303C2.70819 10.2635 3.61256 9.88889 4.55556 9.88889C5.49855 9.88889 6.40292 10.2635 7.06971 10.9303C7.73651 11.5971 8.11111 12.5015 8.11111 13.4444C8.11111 14.3874 7.73651 15.2918 7.06971 15.9586C6.40292 16.6254 5.49855 17 4.55556 17C3.61256 17 2.70819 16.6254 2.0414 15.9586C1.3746 15.2918 1 14.3874 1 13.4444ZM9.88889 10.7778C9.88889 10.542 9.98254 10.3159 10.1492 10.1492C10.3159 9.98254 10.542 9.88889 10.7778 9.88889H16.1111C16.3469 9.88889 16.573 9.98254 16.7397 10.1492C16.9064 10.3159 17 10.542 17 10.7778V15.2222C17 15.6937 16.8127 16.1459 16.4793 16.4793C16.1459 16.8127 15.6937 17 15.2222 17H11.6667C11.1952 17 10.743 16.8127 10.4096 16.4793C10.0762 16.1459 9.88889 15.6937 9.88889 15.2222V10.7778ZM1 1.88889C1 1.65314 1.09365 1.42705 1.26035 1.26035C1.42705 1.09365 1.65314 1 1.88889 1H7.22222C7.45797 1 7.68406 1.09365 7.85076 1.26035C8.01746 1.42705 8.11111 1.65314 8.11111 1.88889V6.33333C8.11111 6.80483 7.92381 7.25701 7.59041 7.59041C7.25701 7.92381 6.80483 8.11111 6.33333 8.11111H2.77778C2.30628 8.11111 1.8541 7.92381 1.5207 7.59041C1.1873 7.25701 1 6.80483 1 6.33333V1.88889Z" fill="#AFA8CC"/>
</svg>
