<svg width="17" height="12" viewBox="0 0 17 12" fill="none" xmlns="http://www.w3.org/2000/svg">
<rect y="8" width="5" height="4" rx="1" fill="#D9D9D9"/>
<rect y="8" width="5" height="4" rx="1" fill="#8375C2"/>
<path d="M6 5C6 4.44772 6.44772 4 7 4H10C10.5523 4 11 4.44772 11 5V11C11 11.5523 10.5523 12 10 12H7C6.44772 12 6 11.5523 6 11V5Z" fill="#D9D9D9"/>
<path d="M6 5C6 4.44772 6.44772 4 7 4H10C10.5523 4 11 4.44772 11 5V11C11 11.5523 10.5523 12 10 12H7C6.44772 12 6 11.5523 6 11V5Z" fill="#8375C2"/>
<path d="M12 1C12 0.447715 12.4477 0 13 0H16C16.5523 0 17 0.447715 17 1V11C17 11.5523 16.5523 12 16 12H13C12.4477 12 12 11.5523 12 11V1Z" fill="#D9D9D9"/>
<path d="M12 1C12 0.447715 12.4477 0 13 0H16C16.5523 0 17 0.447715 17 1V11C17 11.5523 16.5523 12 16 12H13C12.4477 12 12 11.5523 12 11V1Z" fill="#8375C2"/>
</svg>
