<svg width="49" height="48" viewBox="0 0 49 48" fill="none" xmlns="http://www.w3.org/2000/svg">
<path d="M15.9022 7.65871C18.6457 6.43006 20.0177 5.81532 21.8426 6.99757C23.6677 8.17999 23.6678 10.1203 23.6678 13.9995V16.9995C23.6678 20.7705 23.6682 22.6561 24.8397 23.8277C26.0113 24.999 27.8969 24.9995 31.6678 24.9995H34.6678C38.5467 24.9995 40.4864 24.9991 41.6688 26.8237C42.8512 28.6488 42.2374 30.0214 41.0087 32.7652C40.5755 33.7325 40.0598 34.6661 39.4657 35.5552C37.3779 38.6797 34.4101 41.1152 30.9383 42.5532C27.4667 43.9912 23.6463 44.3674 19.9608 43.6343C16.2752 42.9012 12.8895 41.0913 10.2323 38.4341C7.57521 35.7769 5.76617 32.3911 5.03307 28.7056C4.3 25.02 4.67608 21.1998 6.11412 17.728C7.55219 14.2563 9.98768 11.2894 13.1122 9.20168C14.0013 8.60758 14.9349 8.09191 15.9022 7.65871ZM28.6678 9.99855C28.6678 6.68484 31.447 3.89139 34.5301 5.10597C38.6514 6.72963 41.9359 10.015 43.5594 14.1362C44.774 17.2193 41.9815 19.9985 38.6678 19.9986H30.6678C29.5634 19.9986 28.668 19.1029 28.6678 17.9986V9.99855Z" fill="url(#paint0_linear_1380_41875)"/>
<defs>
<linearGradient id="paint0_linear_1380_41875" x1="24.2585" y1="4.81641" x2="24.2585" y2="43.9994" gradientUnits="userSpaceOnUse">
<stop stop-color="#F6F4FE"/>
<stop offset="1" stop-color="#A19ABF"/>
</linearGradient>
</defs>
</svg>
