<svg width="21" height="21" viewBox="0 0 21 21" fill="none" xmlns="http://www.w3.org/2000/svg">
<path d="M17.5 12.0312C17.5 11.8572 17.4309 11.6903 17.3078 11.5672C17.1847 11.4441 17.0178 11.375 16.8438 11.375H14.2188C14.0447 11.375 13.8778 11.4441 13.7547 11.5672C13.6316 11.6903 13.5625 11.8572 13.5625 12.0312V17.9375H12.25V3.71875C12.25 3.08175 12.2483 2.66875 12.208 2.366C12.1695 2.08163 12.1074 1.99238 12.0575 1.9425C12.0076 1.89263 11.9184 1.8305 11.634 1.792C11.3304 1.75175 10.9183 1.75 10.2812 1.75C9.64425 1.75 9.23125 1.75175 8.9285 1.792C8.64413 1.8305 8.55488 1.89263 8.505 1.9425C8.45513 1.99238 8.393 2.08163 8.3545 2.366C8.31425 2.66962 8.3125 3.08175 8.3125 3.71875V17.9375H7V7.65625C7 7.4822 6.93086 7.31528 6.80779 7.19221C6.68472 7.06914 6.5178 7 6.34375 7H3.71875C3.5447 7 3.37778 7.06914 3.25471 7.19221C3.13164 7.31528 3.0625 7.4822 3.0625 7.65625V17.9375H1.53125C1.3572 17.9375 1.19028 18.0066 1.06721 18.1297C0.94414 18.2528 0.875 18.4197 0.875 18.5938C0.875 18.7678 0.94414 18.9347 1.06721 19.0578C1.19028 19.1809 1.3572 19.25 1.53125 19.25H19.0312C19.2053 19.25 19.3722 19.1809 19.4953 19.0578C19.6184 18.9347 19.6875 18.7678 19.6875 18.5938C19.6875 18.4197 19.6184 18.2528 19.4953 18.1297C19.3722 18.0066 19.2053 17.9375 19.0312 17.9375H17.5V12.0312Z" fill="url(#paint0_linear_1380_33388)"/>
<path d="M17.5 12.0312C17.5 11.8572 17.4309 11.6903 17.3078 11.5672C17.1847 11.4441 17.0178 11.375 16.8438 11.375H14.2188C14.0447 11.375 13.8778 11.4441 13.7547 11.5672C13.6316 11.6903 13.5625 11.8572 13.5625 12.0312V17.9375H12.25V3.71875C12.25 3.08175 12.2483 2.66875 12.208 2.366C12.1695 2.08163 12.1074 1.99238 12.0575 1.9425C12.0076 1.89263 11.9184 1.8305 11.634 1.792C11.3304 1.75175 10.9183 1.75 10.2812 1.75C9.64425 1.75 9.23125 1.75175 8.9285 1.792C8.64413 1.8305 8.55488 1.89263 8.505 1.9425C8.45513 1.99238 8.393 2.08163 8.3545 2.366C8.31425 2.66962 8.3125 3.08175 8.3125 3.71875V17.9375H7V7.65625C7 7.4822 6.93086 7.31528 6.80779 7.19221C6.68472 7.06914 6.5178 7 6.34375 7H3.71875C3.5447 7 3.37778 7.06914 3.25471 7.19221C3.13164 7.31528 3.0625 7.4822 3.0625 7.65625V17.9375H1.53125C1.3572 17.9375 1.19028 18.0066 1.06721 18.1297C0.94414 18.2528 0.875 18.4197 0.875 18.5938C0.875 18.7678 0.94414 18.9347 1.06721 19.0578C1.19028 19.1809 1.3572 19.25 1.53125 19.25H19.0312C19.2053 19.25 19.3722 19.1809 19.4953 19.0578C19.6184 18.9347 19.6875 18.7678 19.6875 18.5938C19.6875 18.4197 19.6184 18.2528 19.4953 18.1297C19.3722 18.0066 19.2053 17.9375 19.0312 17.9375H17.5V12.0312Z" fill="url(#paint1_linear_1380_33388)"/>
<defs>
<linearGradient id="paint0_linear_1380_33388" x1="10.2812" y1="1.75" x2="10.2813" y2="19.25" gradientUnits="userSpaceOnUse">
<stop stop-color="#07080A"/>
<stop offset="1" stop-color="#1A1B1F"/>
</linearGradient>
<linearGradient id="paint1_linear_1380_33388" x1="21.1127" y1="46.9583" x2="-10.9912" y2="-5.83597" gradientUnits="userSpaceOnUse">
<stop stop-color="#8375C2"/>
<stop offset="0.246488" stop-color="#8375C2"/>
<stop offset="0.483729" stop-color="#7569AC"/>
<stop offset="0.764806" stop-color="#8375C2"/>
<stop offset="1" stop-color="#8375C2"/>
</linearGradient>
</defs>
</svg>
