<svg width="17" height="12" viewBox="0 0 17 12" fill="none" xmlns="http://www.w3.org/2000/svg">
<rect y="8" width="5" height="4" rx="1" fill="#D9D9D9"/>
<rect y="8" width="5" height="4" rx="1" fill="#8375C2"/>
<path d="M6 5C6 4.44772 6.44772 4 7 4H10C10.5523 4 11 4.44772 11 5V11C11 11.5523 10.5523 12 10 12H7C6.44772 12 6 11.5523 6 11V5Z" fill="#D9D9D9"/>
<path d="M6 5C6 4.44772 6.44772 4 7 4H10C10.5523 4 11 4.44772 11 5V11C11 11.5523 10.5523 12 10 12H7C6.44772 12 6 11.5523 6 11V5Z" fill="#8375C2"/>
<g opacity="0.2">
<rect x="12" width="5" height="12" rx="1" fill="#D9D9D9"/>
<rect x="12" width="5" height="12" rx="1" fill="#8375C2"/>
</g>
</svg>
