<svg width="21" height="20" viewBox="0 0 21 20" fill="none" xmlns="http://www.w3.org/2000/svg">
<path d="M14.2657 13.7517C14.4116 13.638 14.5438 13.5057 14.8084 13.2412L18.1062 9.94336C18.1859 9.86363 18.1495 9.7263 18.0429 9.68934C17.6537 9.55429 17.1473 9.30073 16.6736 8.82705C16.1999 8.35337 15.9464 7.84699 15.8113 7.45772C15.7744 7.3512 15.637 7.31471 15.5573 7.39444L12.2595 10.6923L12.2595 10.6923C11.9949 10.9568 11.8627 11.0891 11.7489 11.2349C11.6147 11.4069 11.4997 11.5931 11.4058 11.79C11.3263 11.957 11.2671 12.1345 11.1488 12.4894L10.9959 12.948L10.7529 13.6772L10.525 14.3609C10.4667 14.5355 10.5122 14.7281 10.6424 14.8583C10.7726 14.9885 10.9651 15.0339 11.1398 14.9757L11.8235 14.7478L12.5527 14.5047L13.0113 14.3519L13.0113 14.3518C13.3662 14.2335 13.5437 14.1744 13.7106 14.0948C13.9076 14.001 14.0937 13.8859 14.2657 13.7517Z" fill="#928F9F"/>
<path d="M19.1388 8.9108C19.8426 8.20694 19.8426 7.06575 19.1388 6.36188C18.4349 5.65802 17.2937 5.65802 16.5898 6.36188L16.4838 6.46791C16.3815 6.57021 16.3352 6.71312 16.3607 6.85553C16.3768 6.94512 16.4066 7.07609 16.4608 7.23238C16.5693 7.54493 16.774 7.95522 17.1597 8.34092C17.5454 8.72661 17.9557 8.93139 18.2683 9.03982C18.4246 9.09405 18.5555 9.12385 18.6451 9.13993C18.7875 9.16549 18.9304 9.11913 19.0327 9.01683L19.1388 8.9108Z" fill="#928F9F"/>
<path fill-rule="evenodd" clip-rule="evenodd" d="M3.97631 2.64233C3 3.61864 3 5.18999 3 8.33268V11.666C3 14.8087 3 16.3801 3.97631 17.3564C4.95262 18.3327 6.52397 18.3327 9.66667 18.3327H11.3333C14.476 18.3327 16.0474 18.3327 17.0237 17.3564C17.9843 16.3957 17.9997 14.859 18 11.8161L15.6514 14.1647C15.4266 14.3896 15.2425 14.5739 15.0346 14.7361C14.7909 14.9261 14.5273 15.089 14.2484 15.2219C14.0104 15.3354 13.7632 15.4177 13.4615 15.5181L11.5351 16.1602C10.9113 16.3682 10.2235 16.2058 9.75852 15.7409C9.29355 15.2759 9.1312 14.5881 9.33914 13.9643L9.56705 13.2806L9.96298 12.0928L9.98124 12.0379C10.0817 11.7362 10.164 11.489 10.2775 11.251C10.4104 10.9721 10.5733 10.7085 10.7633 10.4648C10.9255 10.2569 11.1098 10.0728 11.3347 9.84794L14.6734 6.50925L15.6 5.58272L15.706 5.4767C16.3022 4.88053 17.0836 4.58252 17.865 4.58268C17.7389 3.72389 17.4951 3.11374 17.0237 2.64233C16.0474 1.66602 14.476 1.66602 11.3333 1.66602H9.66667C6.52397 1.66602 4.95262 1.66602 3.97631 2.64233ZM6.54167 7.49935C6.54167 7.15417 6.82149 6.87435 7.16667 6.87435H12.5833C12.9285 6.87435 13.2083 7.15417 13.2083 7.49935C13.2083 7.84453 12.9285 8.12435 12.5833 8.12435H7.16667C6.82149 8.12435 6.54167 7.84453 6.54167 7.49935ZM6.54167 10.8327C6.54167 10.4875 6.82149 10.2077 7.16667 10.2077H9.25C9.59518 10.2077 9.875 10.4875 9.875 10.8327C9.875 11.1779 9.59518 11.4577 9.25 11.4577H7.16667C6.82149 11.4577 6.54167 11.1779 6.54167 10.8327ZM6.54167 14.166C6.54167 13.8208 6.82149 13.541 7.16667 13.541H8.41667C8.76184 13.541 9.04167 13.8208 9.04167 14.166C9.04167 14.5112 8.76184 14.791 8.41667 14.791H7.16667C6.82149 14.791 6.54167 14.5112 6.54167 14.166Z" fill="#928F9F"/>
</svg>
