<svg width="16" height="16" viewBox="0 0 16 16" fill="none" xmlns="http://www.w3.org/2000/svg">
<path d="M8.36902 11.0041C8.27429 11.1077 8.14038 11.1667 8 11.1667C7.85962 11.1667 7.72571 11.1077 7.63099 11.0041L4.96432 8.08738C4.77799 7.88358 4.79215 7.56732 4.99595 7.38099C5.19975 7.19465 5.51602 7.20881 5.70235 7.41262L7.5 9.3788V2C7.5 1.72386 7.72386 1.5 8 1.5C8.27614 1.5 8.5 1.72386 8.5 2V9.3788L10.2977 7.41262C10.484 7.20881 10.8003 7.19465 11.0041 7.38099C11.2079 7.56732 11.222 7.88358 11.0357 8.08738L8.36902 11.0041Z" fill="#8375C2"/>
<path d="M2.5 10C2.5 9.72386 2.27614 9.5 2 9.5C1.72386 9.5 1.5 9.72386 1.5 10V10.0366C1.49999 10.9483 1.49998 11.6832 1.57768 12.2612C1.65836 12.8612 1.83096 13.3665 2.23223 13.7678C2.63351 14.169 3.13876 14.3416 3.73883 14.4223C4.31681 14.5 5.05169 14.5 5.96342 14.5H10.0366C10.9483 14.5 11.6832 14.5 12.2612 14.4223C12.8612 14.3416 13.3665 14.169 13.7678 13.7678C14.169 13.3665 14.3416 12.8612 14.4223 12.2612C14.5 11.6832 14.5 10.9483 14.5 10.0366V10C14.5 9.72386 14.2761 9.5 14 9.5C13.7239 9.5 13.5 9.72386 13.5 10C13.5 10.9569 13.4989 11.6244 13.4312 12.1279C13.3655 12.6171 13.2452 12.8762 13.0607 13.0607C12.8762 13.2452 12.6171 13.3655 12.1279 13.4312C11.6244 13.4989 10.9569 13.5 10 13.5H6C5.04306 13.5 4.37565 13.4989 3.87208 13.4312C3.3829 13.3655 3.12385 13.2452 2.93934 13.0607C2.75483 12.8762 2.63453 12.6171 2.56877 12.1279C2.50106 11.6244 2.5 10.9569 2.5 10Z" fill="#8375C2"/>
<path d="M8.36902 11.0041C8.27429 11.1077 8.14038 11.1667 8 11.1667C7.85962 11.1667 7.72571 11.1077 7.63099 11.0041L4.96432 8.08738C4.77799 7.88358 4.79215 7.56732 4.99595 7.38099C5.19975 7.19465 5.51602 7.20881 5.70235 7.41262L7.5 9.3788V2C7.5 1.72386 7.72386 1.5 8 1.5C8.27614 1.5 8.5 1.72386 8.5 2V9.3788L10.2977 7.41262C10.484 7.20881 10.8003 7.19465 11.0041 7.38099C11.2079 7.56732 11.222 7.88358 11.0357 8.08738L8.36902 11.0041Z" stroke="#8375C2" stroke-width="0.5"/>
<path d="M2.5 10C2.5 9.72386 2.27614 9.5 2 9.5C1.72386 9.5 1.5 9.72386 1.5 10V10.0366C1.49999 10.9483 1.49998 11.6832 1.57768 12.2612C1.65836 12.8612 1.83096 13.3665 2.23223 13.7678C2.63351 14.169 3.13876 14.3416 3.73883 14.4223C4.31681 14.5 5.05169 14.5 5.96342 14.5H10.0366C10.9483 14.5 11.6832 14.5 12.2612 14.4223C12.8612 14.3416 13.3665 14.169 13.7678 13.7678C14.169 13.3665 14.3416 12.8612 14.4223 12.2612C14.5 11.6832 14.5 10.9483 14.5 10.0366V10C14.5 9.72386 14.2761 9.5 14 9.5C13.7239 9.5 13.5 9.72386 13.5 10C13.5 10.9569 13.4989 11.6244 13.4312 12.1279C13.3655 12.6171 13.2452 12.8762 13.0607 13.0607C12.8762 13.2452 12.6171 13.3655 12.1279 13.4312C11.6244 13.4989 10.9569 13.5 10 13.5H6C5.04306 13.5 4.37565 13.4989 3.87208 13.4312C3.3829 13.3655 3.12385 13.2452 2.93934 13.0607C2.75483 12.8762 2.63453 12.6171 2.56877 12.1279C2.50106 11.6244 2.5 10.9569 2.5 10Z" stroke="#8375C2" stroke-width="0.5"/>
</svg>
