<svg width="48" height="48" viewBox="0 0 48 48" fill="none" xmlns="http://www.w3.org/2000/svg">
<path d="M26.8729 36.5521C28.8491 32.828 35.4365 32.828 35.4365 32.828C42.3004 32.7564 43.2276 28.5889 43.8475 26.4824C42.7381 35.4451 35.6988 42.5698 26.777 43.8091C26.1318 42.4512 25.3675 39.3891 26.8729 36.5521Z" fill="url(#paint0_linear_1380_33543)"/>
<path d="M10.012 11.6678L9.18877 10.9637C9.12022 10.905 9.05467 10.8436 8.99222 10.7797C5.88504 14.3043 4 18.932 4 24C4 34.9215 12.7541 43.7984 23.6283 43.9966C22.9216 41.887 22.4605 38.468 24.2231 35.1463C25.8434 32.093 29.1033 30.8911 31.1799 30.3807C32.3134 30.102 33.3556 29.9662 34.1084 29.8986C34.4883 29.8645 34.8036 29.847 35.0312 29.838C35.1452 29.8335 35.2379 29.8311 35.3062 29.8299L35.3905 29.8287L35.4129 29.8285C38.1745 29.7983 39.2462 28.9832 39.7408 28.4264C40.3526 27.7377 40.5924 26.9209 40.9264 25.7834L40.9697 25.636C41.366 24.2894 42.6312 23.4185 43.9935 23.4861C43.8679 18.507 41.9227 13.9801 38.7979 10.5453C38.7346 10.9007 38.6593 11.2311 38.5843 11.5237C38.245 12.8468 37.6756 14.2743 36.9769 15.3348C36.2931 16.3726 35.0784 17.2999 34.2709 17.8801C33.6616 18.3179 33.0388 18.6816 32.5257 18.9773L32.3415 19.0834C31.878 19.3499 31.5096 19.5623 31.1589 19.794C30.4469 20.2644 30.0197 20.6822 29.7303 21.2482C29.9065 21.8928 30.0315 22.6335 30.0335 23.4082C30.0382 25.2512 29.0949 26.7074 27.9672 27.6162C26.8579 28.5102 25.4224 29.0157 23.968 28.9998C18.0683 28.9354 14.6079 24.1227 14.1624 19.1632C14.0328 17.7212 13.3841 16.1675 12.4776 14.7198C11.596 13.3118 10.5995 12.2095 10.012 11.6678Z" fill="url(#paint1_linear_1380_33543)"/>
<path d="M17.1503 18.8947C16.7758 14.7263 13.5612 10.8421 12.0007 9.42105L11.1387 8.68379C14.6158 5.76073 19.1026 4 24.0007 4C28.4275 4 32.5183 5.43821 35.8315 7.87285C36.2997 9.2939 35.408 12.2632 34.4717 13.6842C34.1326 14.1989 33.3635 14.838 32.5204 15.4437C30.6195 16.8095 28.2205 17.4851 27.0007 20C26.652 20.7189 26.6669 21.4217 26.8346 22.0325C26.9552 22.4717 27.0323 22.9491 27.0335 23.4159C27.0374 24.9258 25.5105 26.0165 24.0007 26C20.0721 25.9571 17.5004 22.7911 17.1503 18.8947Z" fill="url(#paint2_linear_1380_33543)"/>
<defs>
<linearGradient id="paint0_linear_1380_33543" x1="23.9968" y1="4" x2="23.9968" y2="43.9966" gradientUnits="userSpaceOnUse">
<stop stop-color="#F6F4FE"/>
<stop offset="1" stop-color="#A19ABF"/>
</linearGradient>
<linearGradient id="paint1_linear_1380_33543" x1="23.9968" y1="4" x2="23.9968" y2="43.9966" gradientUnits="userSpaceOnUse">
<stop stop-color="#F6F4FE"/>
<stop offset="1" stop-color="#A19ABF"/>
</linearGradient>
<linearGradient id="paint2_linear_1380_33543" x1="23.9968" y1="4" x2="23.9968" y2="43.9966" gradientUnits="userSpaceOnUse">
<stop stop-color="#F6F4FE"/>
<stop offset="1" stop-color="#A19ABF"/>
</linearGradient>
</defs>
</svg>
