<svg width="48" height="48" viewBox="0 0 48 48" fill="none" xmlns="http://www.w3.org/2000/svg">
<g clip-path="url(#clip0_1380_37918)">
<path d="M4.8 48C3.48 48 2.3504 47.5304 1.4112 46.5912C0.472 45.652 0.0016 44.5216 0 43.2V22.32C0 21.36 0.26 20.48 0.78 19.68C1.3 18.88 2.02 18.28 2.94 17.88L13.44 13.44C14.24 13.12 15 13.18 15.72 13.62C16.44 14.06 16.8 14.72 16.8 15.6V16.8L25.5 13.32C26.3 13 27.0496 13.08 27.7488 13.56C28.448 14.04 28.7984 14.7 28.8 15.54V19.2H48V43.2C48 44.52 47.5304 45.6504 46.5912 46.5912C45.652 47.532 44.5216 48.0016 43.2 48H4.8ZM21.6 38.4H26.4V28.8H21.6V38.4ZM12 38.4H16.8V28.8H12V38.4ZM31.2 38.4H36V28.8H31.2V38.4ZM47.52 15.6H36.42L38.16 2.1C38.24 1.5 38.5104 1 38.9712 0.6C39.432 0.2 39.9616 0 40.56 0H43.5C44.1 0 44.62 0.2 45.06 0.6C45.5 1 45.76 1.5 45.84 2.1L47.52 15.6Z" fill="white"/>
<path d="M4.8 48C3.48 48 2.3504 47.5304 1.4112 46.5912C0.472 45.652 0.0016 44.5216 0 43.2V22.32C0 21.36 0.26 20.48 0.78 19.68C1.3 18.88 2.02 18.28 2.94 17.88L13.44 13.44C14.24 13.12 15 13.18 15.72 13.62C16.44 14.06 16.8 14.72 16.8 15.6V16.8L25.5 13.32C26.3 13 27.0496 13.08 27.7488 13.56C28.448 14.04 28.7984 14.7 28.8 15.54V19.2H48V43.2C48 44.52 47.5304 45.6504 46.5912 46.5912C45.652 47.532 44.5216 48.0016 43.2 48H4.8ZM21.6 38.4H26.4V28.8H21.6V38.4ZM12 38.4H16.8V28.8H12V38.4ZM31.2 38.4H36V28.8H31.2V38.4ZM47.52 15.6H36.42L38.16 2.1C38.24 1.5 38.5104 1 38.9712 0.6C39.432 0.2 39.9616 0 40.56 0H43.5C44.1 0 44.62 0.2 45.06 0.6C45.5 1 45.76 1.5 45.84 2.1L47.52 15.6Z" fill="url(#paint0_linear_1380_37918)"/>
</g>
<defs>
<linearGradient id="paint0_linear_1380_37918" x1="24" y1="0" x2="24" y2="48" gradientUnits="userSpaceOnUse">
<stop stop-color="#F6F4FE"/>
<stop offset="1" stop-color="#A19ABF"/>
</linearGradient>
<clipPath id="clip0_1380_37918">
<rect width="48" height="48" fill="white"/>
</clipPath>
</defs>
</svg>
