<svg width="41" height="41" viewBox="0 0 41 41" fill="none" xmlns="http://www.w3.org/2000/svg">
<g filter="url(#filter0_i_1380_34129)">
<path d="M32.4689 13.6156L25.8651 7.67209C23.9836 5.97878 23.0429 5.13213 21.8886 4.6892L21.8732 9.25076C21.8732 13.1827 21.8732 15.1486 23.0947 16.3701C24.3162 17.5916 26.2822 17.5916 30.2141 17.5916H36.1862C35.5814 16.4168 34.4985 15.4422 32.4689 13.6156Z" fill="#7F71BD"/>
<path fill-rule="evenodd" clip-rule="evenodd" d="M23.5414 37.6094H16.8687C10.5777 37.6094 7.43219 37.6094 5.47781 35.655C3.52344 33.7006 3.52344 30.5551 3.52344 24.2641V17.5914C3.52344 11.3004 3.52344 8.15485 5.47781 6.20047C7.43219 4.24609 10.5943 4.24609 16.9184 4.24609C17.9294 4.24609 18.7394 4.24609 19.4211 4.27389C19.3986 4.40723 19.3869 4.54324 19.3864 4.68076L19.371 9.40901C19.3708 11.2392 19.3707 12.8566 19.546 14.1603C19.736 15.5734 20.1722 16.9863 21.3254 18.1395C22.4785 19.2926 23.8914 19.7288 25.3046 19.9188C26.6083 20.0941 28.2257 20.094 30.0558 20.0938L30.2141 20.0938H36.8157C36.8867 20.9851 36.8867 22.0789 36.8867 23.5349V24.2641C36.8867 30.5551 36.8867 33.7006 34.9323 35.655C32.978 37.6094 29.8324 37.6094 23.5414 37.6094ZM17.7 24.9971C18.2164 25.4562 18.2629 26.247 17.8039 26.7634L13.3554 31.7679C13.118 32.035 12.7777 32.1878 12.4203 32.1878C12.0629 32.1878 11.7226 32.035 11.4852 31.7679L9.26099 29.2657C8.80193 28.7492 8.84845 27.9584 9.36489 27.4994C9.88134 27.0403 10.6721 27.0868 11.1312 27.6033L12.4203 29.0535L15.9337 25.101C16.3927 24.5846 17.1835 24.5381 17.7 24.9971Z" fill="#7F71BD"/>
</g>
<defs>
<filter id="filter0_i_1380_34129" x="3.52344" y="4.24609" width="33.3633" height="34.0031" filterUnits="userSpaceOnUse" color-interpolation-filters="sRGB">
<feFlood flood-opacity="0" result="BackgroundImageFix"/>
<feBlend mode="normal" in="SourceGraphic" in2="BackgroundImageFix" result="shape"/>
<feColorMatrix in="SourceAlpha" type="matrix" values="0 0 0 0 0 0 0 0 0 0 0 0 0 0 0 0 0 0 127 0" result="hardAlpha"/>
<feOffset dy="0.639772"/>
<feGaussianBlur stdDeviation="0.319886"/>
<feComposite in2="hardAlpha" operator="arithmetic" k2="-1" k3="1"/>
<feColorMatrix type="matrix" values="0 0 0 0 1 0 0 0 0 1 0 0 0 0 1 0 0 0 0.23 0"/>
<feBlend mode="normal" in2="shape" result="effect1_innerShadow_1380_34129"/>
</filter>
</defs>
</svg>
