<svg width="33" height="33" viewBox="0 0 33 33" fill="none" xmlns="http://www.w3.org/2000/svg">
<g filter="url(#filter0_i_1380_34155)">
<path d="M16.7617 3.2832C18.6477 3.2832 20.2539 3.28338 21.6318 3.33496C20.6982 4.40209 20.1328 5.79981 20.1328 7.3291C20.1329 10.68 22.8493 13.3964 26.2002 13.3965C27.7295 13.3965 29.1272 12.8311 30.1943 11.8975C30.2459 13.2754 30.2451 14.8816 30.2451 16.7676C30.2451 23.1239 30.2452 26.3017 28.2705 28.2764C26.2958 30.251 23.1181 30.251 16.7617 30.251C10.4054 30.251 7.2276 30.251 5.25293 28.2764C3.27826 26.3017 3.27734 23.1239 3.27734 16.7676C3.27734 10.4112 3.27826 7.23346 5.25293 5.25879C7.2276 3.28412 10.4054 3.2832 16.7617 3.2832ZM24.1514 13.2939C23.7223 12.9364 23.0841 12.9948 22.7266 13.4238L20.3037 16.3311C19.8041 16.9306 19.497 17.295 19.2441 17.5234C19.1268 17.6294 19.0568 17.6723 19.0234 17.6885C19.0168 17.6917 19.0118 17.6932 19.0088 17.6943L18.9941 17.6885C18.9608 17.6723 18.8917 17.6293 18.7744 17.5234C18.5215 17.295 18.2138 16.931 17.7139 16.3311L17.3203 15.8574C16.8774 15.3258 16.4774 14.8465 16.1045 14.5098C15.6988 14.1435 15.1878 13.8175 14.5146 13.8174C13.8412 13.8174 13.3296 14.1434 12.9238 14.5098C12.5509 14.8465 12.1518 15.3259 11.709 15.8574L9.24316 18.8174C8.88578 19.2464 8.9432 19.8837 9.37207 20.2412C9.80114 20.5988 10.4393 20.5404 10.7969 20.1113L13.2197 17.2041C13.7194 16.6045 14.0265 16.2401 14.2793 16.0117C14.3966 15.9058 14.4666 15.8628 14.5 15.8467L14.5088 15.8428L14.5146 15.8408C14.5177 15.842 14.5227 15.8435 14.5293 15.8467C14.5627 15.8629 14.6318 15.9059 14.749 16.0117C15.0019 16.2401 15.3097 16.6042 15.8096 17.2041L16.2031 17.6777C16.646 18.2093 17.046 18.6886 17.4189 19.0254C17.8246 19.3916 18.3356 19.7177 19.0088 19.7178C19.6822 19.7178 20.1938 19.3918 20.5996 19.0254C20.9725 18.6887 21.3716 18.2092 21.8145 17.6777L24.2803 14.7178C24.6377 14.2888 24.5802 13.6515 24.1514 13.2939ZM26.2002 3.2832C28.4343 3.2832 30.2451 5.09502 30.2451 7.3291C30.245 9.56307 28.4342 11.374 26.2002 11.374C23.9663 11.3739 22.1554 9.563 22.1553 7.3291C22.1553 5.09509 23.9662 3.28332 26.2002 3.2832Z" fill="#7F71BD"/>
</g>
<defs>
<filter id="filter0_i_1380_34155" x="3.27734" y="3.2832" width="26.9688" height="27.4859" filterUnits="userSpaceOnUse" color-interpolation-filters="sRGB">
<feFlood flood-opacity="0" result="BackgroundImageFix"/>
<feBlend mode="normal" in="SourceGraphic" in2="BackgroundImageFix" result="shape"/>
<feColorMatrix in="SourceAlpha" type="matrix" values="0 0 0 0 0 0 0 0 0 0 0 0 0 0 0 0 0 0 127 0" result="hardAlpha"/>
<feOffset dy="0.517131"/>
<feGaussianBlur stdDeviation="0.258566"/>
<feComposite in2="hardAlpha" operator="arithmetic" k2="-1" k3="1"/>
<feColorMatrix type="matrix" values="0 0 0 0 1 0 0 0 0 1 0 0 0 0 1 0 0 0 0.23 0"/>
<feBlend mode="normal" in2="shape" result="effect1_innerShadow_1380_34155"/>
</filter>
</defs>
</svg>
