<svg width="21" height="20" viewBox="0 0 21 20" fill="none" xmlns="http://www.w3.org/2000/svg">
<path fill-rule="evenodd" clip-rule="evenodd" d="M5.72846 1.75894C5.05373 1.84782 4.69642 2.01038 4.44192 2.25972C4.18743 2.50905 4.0215 2.85912 3.93079 3.52018C3.8374 4.20067 3.83594 5.10258 3.83594 6.39575V13.5362C4.15983 13.3144 4.52488 13.1457 4.91843 13.0424C5.35857 12.9268 5.87181 12.927 6.62396 12.9273L17.1693 12.9273V6.39575C17.1693 5.10258 17.1678 4.20067 17.0744 3.52018C16.9837 2.85912 16.8178 2.50905 16.5633 2.25972C16.3088 2.01038 15.9515 1.84782 15.2767 1.75894C14.5822 1.66745 13.6616 1.66602 12.3417 1.66602H8.66352C7.3436 1.66602 6.42304 1.66745 5.72846 1.75894ZM6.13479 5.49484C6.13479 5.12168 6.44356 4.81917 6.82444 4.81917H14.1808C14.5617 4.81917 14.8704 5.12168 14.8704 5.49484C14.8704 5.86801 14.5617 6.17052 14.1808 6.17052H6.82444C6.44356 6.17052 6.13479 5.86801 6.13479 5.49484ZM6.82444 7.97232C6.44356 7.97232 6.13479 8.27483 6.13479 8.648C6.13479 9.02116 6.44356 9.32367 6.82444 9.32367H11.4221C11.803 9.32367 12.1118 9.02116 12.1118 8.648C12.1118 8.27483 11.803 7.97232 11.4221 7.97232H6.82444Z" fill="#928F9F"/>
<path d="M7.74398 14.2786H6.73045C5.8309 14.2786 5.51641 14.2844 5.27542 14.3477C4.61398 14.5213 4.08667 15.003 3.86054 15.6292C3.87452 15.9479 3.89643 16.2282 3.93079 16.4785C4.0215 17.1396 4.18743 17.4896 4.44192 17.739C4.69642 17.9883 5.05373 18.1509 5.72846 18.2398C6.42304 18.3312 7.3436 18.3327 8.66352 18.3327H12.3417C13.6616 18.3327 14.5822 18.3312 15.2767 18.2398C15.9515 18.1509 16.3088 17.9883 16.5633 17.739C16.8178 17.4896 16.9837 17.1396 17.0744 16.4785C17.1506 15.9233 17.1656 15.2208 17.1686 14.2786H11.4221V16.7841C11.4221 17.0324 11.4221 17.1565 11.3349 17.2067C11.2477 17.2569 11.1284 17.2014 10.8898 17.0903L9.74756 16.5587C9.66684 16.5212 9.62648 16.5024 9.58306 16.5024C9.53965 16.5024 9.49929 16.5212 9.41857 16.5587L8.27629 17.0903C8.03772 17.2014 7.91843 17.2569 7.83121 17.2067C7.74398 17.1565 7.74398 17.0324 7.74398 16.7841V14.2786Z" fill="#928F9F"/>
</svg>
