<svg width="72" height="72" viewBox="0 0 72 72" fill="none" xmlns="http://www.w3.org/2000/svg">
<path d="M14.6074 50.0557C22.5438 45.4398 33.8144 42.8414 41.3369 47.3281C41.8423 47.6296 42.2971 47.9933 42.6855 48.4297C44.3596 50.3102 44.2378 53.1478 42.3086 54.832C41.9012 55.1876 41.4666 55.458 41.0293 55.5518C41.3886 55.5101 41.7329 55.4626 42.0615 55.4102C44.7957 54.974 47.0912 53.5121 49.1924 51.9248L54.6143 47.8301C56.5255 46.3864 59.3618 46.3858 61.2734 47.8291C62.9944 49.1286 63.5206 51.2687 62.4326 53.0127C61.1639 55.0463 59.3764 57.6476 57.6602 59.2373C55.9412 60.8294 53.3812 62.2514 51.292 63.2598C48.9779 64.3766 46.4215 65.0205 43.8213 65.4414C38.547 66.2952 33.0498 66.1644 27.8291 65.0889C24.8779 64.4809 21.8127 64.1651 18.7803 64.165H18C15.1716 64.165 13.7576 64.1648 12.8789 63.2861C12.0003 62.4075 12 60.9934 12 58.165V54.8291C12 53.2739 12.0001 52.4962 12.3994 51.8018C12.7989 51.1072 13.402 50.7567 14.6074 50.0557ZM42.75 6C42.75 12.2132 47.7868 17.25 54 17.25V18.75C47.7868 18.75 42.75 23.7868 42.75 30H29.25C29.25 23.7868 24.2132 18.75 18 18.75V17.25C24.2132 17.25 29.25 12.2132 29.25 6H42.75ZM18.0918 23.251C21.7468 23.2997 24.7003 26.2532 24.749 29.9082C22.3778 29.7544 20.8581 29.3425 19.7578 28.2422C18.6575 27.1419 18.2456 25.6222 18.0918 23.251ZM53.9082 23.251C53.7544 25.6222 53.3425 27.1419 52.2422 28.2422C51.1419 29.3425 49.6222 29.7544 47.251 29.9082C47.2997 26.2532 50.2532 23.2997 53.9082 23.251ZM36 15C34.3431 15 33 16.3431 33 18C33 19.6569 34.3431 21 36 21C37.6569 21 39 19.6569 39 18C39 16.3431 37.6569 15 36 15ZM24.749 6.0918C24.7003 9.74682 21.7468 12.7003 18.0918 12.749C18.2456 10.3778 18.6575 8.85808 19.7578 7.75781C20.8581 6.65754 22.3778 6.24562 24.749 6.0918ZM47.251 6.0918C49.6222 6.24562 51.1419 6.65754 52.2422 7.75781C53.3425 8.85808 53.7544 10.3777 53.9082 12.749C50.2532 12.7003 47.2997 9.74683 47.251 6.0918Z" fill="url(#paint0_linear_1380_26672)"/>
<defs>
<linearGradient id="paint0_linear_1380_26672" x1="32.5" y1="5.5" x2="14" y2="64" gradientUnits="userSpaceOnUse">
<stop stop-color="#F6F4FE"/>
<stop offset="1" stop-color="#A19ABF"/>
</linearGradient>
</defs>
</svg>
