<svg width="48" height="48" viewBox="0 0 48 48" fill="none" xmlns="http://www.w3.org/2000/svg">
<path d="M9.0254 46.5313H8.40156C6.13882 46.5313 5.00745 46.5313 4.30451 45.8284C3.60156 45.1255 3.60156 43.9941 3.60156 41.7313V39.0627C3.60156 37.8183 3.60156 37.196 3.92119 36.6404C4.24082 36.0847 4.72302 35.8043 5.68741 35.2434C12.0365 31.5507 21.0533 29.472 27.0713 33.0614C27.4757 33.3025 27.8393 33.5936 28.1501 33.9427C29.4895 35.4472 29.3919 37.7179 27.8482 39.0652C27.5222 39.3497 27.1747 39.5655 26.8248 39.6405C27.1124 39.6072 27.388 39.569 27.6509 39.527C29.8383 39.1781 31.6744 38.0092 33.3554 36.7394L37.6926 33.463C39.2217 32.308 41.4911 32.3078 43.0204 33.4625C44.3972 34.5021 44.8182 36.2138 43.9478 37.609C42.9327 39.2361 41.5026 41.3176 40.1294 42.5894C38.7542 43.8631 36.7069 45.0002 35.0355 45.8069C33.1841 46.7005 31.1387 47.2155 29.0582 47.5522C24.8388 48.2352 20.4413 48.131 16.2647 47.2705C13.9036 46.7841 11.4515 46.5313 9.0254 46.5313Z" fill="white"/>
<path d="M9.0254 46.5313H8.40156C6.13882 46.5313 5.00745 46.5313 4.30451 45.8284C3.60156 45.1255 3.60156 43.9941 3.60156 41.7313V39.0627C3.60156 37.8183 3.60156 37.196 3.92119 36.6404C4.24082 36.0847 4.72302 35.8043 5.68741 35.2434C12.0365 31.5507 21.0533 29.472 27.0713 33.0614C27.4757 33.3025 27.8393 33.5936 28.1501 33.9427C29.4895 35.4472 29.3919 37.7179 27.8482 39.0652C27.5222 39.3497 27.1747 39.5655 26.8248 39.6405C27.1124 39.6072 27.388 39.569 27.6509 39.527C29.8383 39.1781 31.6744 38.0092 33.3554 36.7394L37.6926 33.463C39.2217 32.308 41.4911 32.3078 43.0204 33.4625C44.3972 34.5021 44.8182 36.2138 43.9478 37.609C42.9327 39.2361 41.5026 41.3176 40.1294 42.5894C38.7542 43.8631 36.7069 45.0002 35.0355 45.8069C33.1841 46.7005 31.1387 47.2155 29.0582 47.5522C24.8388 48.2352 20.4413 48.131 16.2647 47.2705C13.9036 46.7841 11.4515 46.5313 9.0254 46.5313Z" fill="url(#paint0_linear_1380_37982)"/>
<path d="M9.80432 1.40589C8.92406 2.28615 8.59495 3.50233 8.47191 5.39951C11.3959 5.36052 13.759 2.99749 13.7979 0.0734742C11.9008 0.196519 10.6846 0.525627 9.80432 1.40589Z" fill="white"/>
<path d="M9.80432 1.40589C8.92406 2.28615 8.59495 3.50233 8.47191 5.39951C11.3959 5.36052 13.759 2.99749 13.7979 0.0734742C11.9008 0.196519 10.6846 0.525627 9.80432 1.40589Z" fill="url(#paint1_linear_1380_37982)"/>
<path d="M35.7925 1.40589C34.9123 0.525626 33.6961 0.196506 31.7989 0.0734613C31.8379 2.99749 34.2009 5.36053 37.125 5.39951C37.0019 3.50233 36.6728 2.28615 35.7925 1.40589Z" fill="white"/>
<path d="M35.7925 1.40589C34.9123 0.525626 33.6961 0.196506 31.7989 0.0734613C31.8379 2.99749 34.2009 5.36053 37.125 5.39951C37.0019 3.50233 36.6728 2.28615 35.7925 1.40589Z" fill="url(#paint2_linear_1380_37982)"/>
<path d="M35.7925 17.7941C34.9123 18.6744 33.6961 19.0035 31.7989 19.1265C31.8379 16.2025 34.201 13.8395 37.125 13.8005C37.0019 15.6977 36.6728 16.9139 35.7925 17.7941Z" fill="white"/>
<path d="M35.7925 17.7941C34.9123 18.6744 33.6961 19.0035 31.7989 19.1265C31.8379 16.2025 34.201 13.8395 37.125 13.8005C37.0019 15.6977 36.6728 16.9139 35.7925 17.7941Z" fill="url(#paint3_linear_1380_37982)"/>
<path d="M9.80432 17.7941C10.6846 18.6744 11.9008 19.0035 13.7979 19.1265C13.759 16.2025 11.3959 13.8395 8.47191 13.8005C8.59496 15.6977 8.92406 16.9139 9.80432 17.7941Z" fill="white"/>
<path d="M9.80432 17.7941C10.6846 18.6744 11.9008 19.0035 13.7979 19.1265C13.759 16.2025 11.3959 13.8395 8.47191 13.8005C8.59496 15.6977 8.92406 16.9139 9.80432 17.7941Z" fill="url(#paint4_linear_1380_37982)"/>
<path fill-rule="evenodd" clip-rule="evenodd" d="M8.39844 9C13.369 9 17.3984 4.97056 17.3984 0H28.1984C28.1984 4.97056 32.2279 9 37.1984 9V10.2C32.2279 10.2 28.1984 14.2294 28.1984 19.2H17.3984C17.3984 14.2294 13.369 10.2 8.39844 10.2V9ZM22.7984 12C24.1239 12 25.1984 10.9255 25.1984 9.6C25.1984 8.27452 24.1239 7.2 22.7984 7.2C21.473 7.2 20.3984 8.27452 20.3984 9.6C20.3984 10.9255 21.473 12 22.7984 12Z" fill="white"/>
<path fill-rule="evenodd" clip-rule="evenodd" d="M8.39844 9C13.369 9 17.3984 4.97056 17.3984 0H28.1984C28.1984 4.97056 32.2279 9 37.1984 9V10.2C32.2279 10.2 28.1984 14.2294 28.1984 19.2H17.3984C17.3984 14.2294 13.369 10.2 8.39844 10.2V9ZM22.7984 12C24.1239 12 25.1984 10.9255 25.1984 9.6C25.1984 8.27452 24.1239 7.2 22.7984 7.2C21.473 7.2 20.3984 8.27452 20.3984 9.6C20.3984 10.9255 21.473 12 22.7984 12Z" fill="url(#paint5_linear_1380_37982)"/>
<defs>
<linearGradient id="paint0_linear_1380_37982" x1="24.0016" y1="31.1992" x2="24.0016" y2="47.9992" gradientUnits="userSpaceOnUse">
<stop stop-color="#F6F4FE"/>
<stop offset="1" stop-color="#A19ABF"/>
</linearGradient>
<linearGradient id="paint1_linear_1380_37982" x1="22.7984" y1="0" x2="22.7984" y2="19.2" gradientUnits="userSpaceOnUse">
<stop stop-color="#F6F4FE"/>
<stop offset="1" stop-color="#A19ABF"/>
</linearGradient>
<linearGradient id="paint2_linear_1380_37982" x1="22.7984" y1="0" x2="22.7984" y2="19.2" gradientUnits="userSpaceOnUse">
<stop stop-color="#F6F4FE"/>
<stop offset="1" stop-color="#A19ABF"/>
</linearGradient>
<linearGradient id="paint3_linear_1380_37982" x1="22.7984" y1="0" x2="22.7984" y2="19.2" gradientUnits="userSpaceOnUse">
<stop stop-color="#F6F4FE"/>
<stop offset="1" stop-color="#A19ABF"/>
</linearGradient>
<linearGradient id="paint4_linear_1380_37982" x1="22.7984" y1="0" x2="22.7984" y2="19.2" gradientUnits="userSpaceOnUse">
<stop stop-color="#F6F4FE"/>
<stop offset="1" stop-color="#A19ABF"/>
</linearGradient>
<linearGradient id="paint5_linear_1380_37982" x1="22.7984" y1="0" x2="22.7984" y2="19.2" gradientUnits="userSpaceOnUse">
<stop stop-color="#F6F4FE"/>
<stop offset="1" stop-color="#A19ABF"/>
</linearGradient>
</defs>
</svg>
