<svg width="48" height="48" viewBox="0 0 48 48" fill="none" xmlns="http://www.w3.org/2000/svg">
<g clip-path="url(#clip0_1380_37855)">
<path fill-rule="evenodd" clip-rule="evenodd" d="M1.24608 13.9746C0 16.2511 0 18.9972 0 24.4894V28.1399C0 37.502 0 42.1831 2.81178 45.0916C5.62355 48 10.149 48 19.2 48H28.8C37.851 48 42.3764 48 45.1882 45.0916C48 42.1831 48 37.502 48 28.1399V24.4894C48 18.9972 48 16.2511 46.7539 13.9746C45.5078 11.6981 43.2313 10.2852 38.6783 7.4595L33.8783 4.48049C29.0655 1.4935 26.659 0 24 0C21.341 0 18.9345 1.4935 14.1217 4.48049L9.32168 7.4595C4.76867 10.2852 2.49216 11.6981 1.24608 13.9746ZM16.8 36.6C15.8059 36.6 15 37.4059 15 38.4C15 39.3941 15.8059 40.2 16.8 40.2H31.2C32.1941 40.2 33 39.3941 33 38.4C33 37.4059 32.1941 36.6 31.2 36.6H16.8Z" fill="white"/>
<path fill-rule="evenodd" clip-rule="evenodd" d="M1.24608 13.9746C0 16.2511 0 18.9972 0 24.4894V28.1399C0 37.502 0 42.1831 2.81178 45.0916C5.62355 48 10.149 48 19.2 48H28.8C37.851 48 42.3764 48 45.1882 45.0916C48 42.1831 48 37.502 48 28.1399V24.4894C48 18.9972 48 16.2511 46.7539 13.9746C45.5078 11.6981 43.2313 10.2852 38.6783 7.4595L33.8783 4.48049C29.0655 1.4935 26.659 0 24 0C21.341 0 18.9345 1.4935 14.1217 4.48049L9.32168 7.4595C4.76867 10.2852 2.49216 11.6981 1.24608 13.9746ZM16.8 36.6C15.8059 36.6 15 37.4059 15 38.4C15 39.3941 15.8059 40.2 16.8 40.2H31.2C32.1941 40.2 33 39.3941 33 38.4C33 37.4059 32.1941 36.6 31.2 36.6H16.8Z" fill="url(#paint0_linear_1380_37855)"/>
</g>
<defs>
<linearGradient id="paint0_linear_1380_37855" x1="24" y1="0" x2="24" y2="48" gradientUnits="userSpaceOnUse">
<stop stop-color="#F6F4FE"/>
<stop offset="1" stop-color="#A19ABF"/>
</linearGradient>
<clipPath id="clip0_1380_37855">
<rect width="48" height="48" fill="white"/>
</clipPath>
</defs>
</svg>
