<svg width="39" height="38" viewBox="0 0 39 38" fill="none" xmlns="http://www.w3.org/2000/svg">
<g clip-path="url(#clip0_1380_25918)">
<path fill-rule="evenodd" clip-rule="evenodd" d="M19.6641 0C12.4987 0 8.91604 0 6.69005 2.22599C4.67017 4.24587 4.48315 7.38282 4.46583 13.3H2.56406C1.51472 13.3 0.664062 14.1507 0.664062 15.2V17.1C0.664062 17.698 0.945631 18.2612 1.42406 18.62L4.46406 20.9C4.48138 26.8172 4.67017 29.9541 6.69005 31.974C7.1502 32.4342 7.66831 32.7992 8.26406 33.0887V36.0998C8.26406 37.1492 9.11472 37.9998 10.1641 37.9998H13.0141C14.0634 37.9998 14.9141 37.1492 14.9141 36.0998V34.1649C16.2955 34.2 17.8671 34.2 19.6641 34.2C21.461 34.2 23.0326 34.2 24.4141 34.1649V36.0998C24.4141 37.1492 25.2647 37.9998 26.3141 37.9998H29.1641C30.2134 37.9998 31.0641 37.1492 31.0641 36.0998V33.0887C31.6598 32.7992 32.1779 32.4342 32.6381 31.974C34.658 29.9541 34.8467 26.8172 34.8641 20.9L37.9041 18.62C38.3825 18.2612 38.6641 17.698 38.6641 17.1V15.2C38.6641 14.1507 37.8134 13.3 36.7641 13.3H34.8623C34.845 7.38282 34.658 4.24587 32.6381 2.22599C30.4121 0 26.8294 0 19.6641 0ZM7.31406 14.25C7.31406 16.937 7.31406 18.2805 8.14881 19.1153C8.98355 19.95 10.3271 19.95 13.0141 19.95H19.6641H26.3141C29.0011 19.95 30.3446 19.95 31.1793 19.1153C32.0141 18.2805 32.0141 16.937 32.0141 14.25V9.5C32.0141 6.81299 32.0141 5.46949 31.1793 4.63475C30.3446 3.8 29.0011 3.8 26.3141 3.8H19.6641H13.0141C10.3271 3.8 8.98355 3.8 8.14881 4.63475C7.31406 5.46949 7.31406 6.81299 7.31406 9.5V14.25ZM8.73906 26.6C8.73906 25.813 9.37706 25.175 10.1641 25.175H13.0141C13.8011 25.175 14.4391 25.813 14.4391 26.6C14.4391 27.387 13.8011 28.025 13.0141 28.025H10.1641C9.37706 28.025 8.73906 27.387 8.73906 26.6ZM30.5891 26.6C30.5891 25.813 29.9511 25.175 29.1641 25.175H26.3141C25.5271 25.175 24.8891 25.813 24.8891 26.6C24.8891 27.387 25.5271 28.025 26.3141 28.025H29.1641C29.9511 28.025 30.5891 27.387 30.5891 26.6Z" fill="white"/>
<path fill-rule="evenodd" clip-rule="evenodd" d="M19.6641 0C12.4987 0 8.91604 0 6.69005 2.22599C4.67017 4.24587 4.48315 7.38282 4.46583 13.3H2.56406C1.51472 13.3 0.664062 14.1507 0.664062 15.2V17.1C0.664062 17.698 0.945631 18.2612 1.42406 18.62L4.46406 20.9C4.48138 26.8172 4.67017 29.9541 6.69005 31.974C7.1502 32.4342 7.66831 32.7992 8.26406 33.0887V36.0998C8.26406 37.1492 9.11472 37.9998 10.1641 37.9998H13.0141C14.0634 37.9998 14.9141 37.1492 14.9141 36.0998V34.1649C16.2955 34.2 17.8671 34.2 19.6641 34.2C21.461 34.2 23.0326 34.2 24.4141 34.1649V36.0998C24.4141 37.1492 25.2647 37.9998 26.3141 37.9998H29.1641C30.2134 37.9998 31.0641 37.1492 31.0641 36.0998V33.0887C31.6598 32.7992 32.1779 32.4342 32.6381 31.974C34.658 29.9541 34.8467 26.8172 34.8641 20.9L37.9041 18.62C38.3825 18.2612 38.6641 17.698 38.6641 17.1V15.2C38.6641 14.1507 37.8134 13.3 36.7641 13.3H34.8623C34.845 7.38282 34.658 4.24587 32.6381 2.22599C30.4121 0 26.8294 0 19.6641 0ZM7.31406 14.25C7.31406 16.937 7.31406 18.2805 8.14881 19.1153C8.98355 19.95 10.3271 19.95 13.0141 19.95H19.6641H26.3141C29.0011 19.95 30.3446 19.95 31.1793 19.1153C32.0141 18.2805 32.0141 16.937 32.0141 14.25V9.5C32.0141 6.81299 32.0141 5.46949 31.1793 4.63475C30.3446 3.8 29.0011 3.8 26.3141 3.8H19.6641H13.0141C10.3271 3.8 8.98355 3.8 8.14881 4.63475C7.31406 5.46949 7.31406 6.81299 7.31406 9.5V14.25ZM8.73906 26.6C8.73906 25.813 9.37706 25.175 10.1641 25.175H13.0141C13.8011 25.175 14.4391 25.813 14.4391 26.6C14.4391 27.387 13.8011 28.025 13.0141 28.025H10.1641C9.37706 28.025 8.73906 27.387 8.73906 26.6ZM30.5891 26.6C30.5891 25.813 29.9511 25.175 29.1641 25.175H26.3141C25.5271 25.175 24.8891 25.813 24.8891 26.6C24.8891 27.387 25.5271 28.025 26.3141 28.025H29.1641C29.9511 28.025 30.5891 27.387 30.5891 26.6Z" fill="url(#paint0_linear_1380_25918)"/>
</g>
<defs>
<linearGradient id="paint0_linear_1380_25918" x1="19.6641" y1="0" x2="19.6641" y2="37.9998" gradientUnits="userSpaceOnUse">
<stop stop-color="#B7ADE7"/>
<stop offset="1" stop-color="#8375C2"/>
</linearGradient>
<clipPath id="clip0_1380_25918">
<rect width="38" height="38" fill="white" transform="translate(0.664062)"/>
</clipPath>
</defs>
</svg>
