<svg width="21" height="21" viewBox="0 0 21 21" fill="none" xmlns="http://www.w3.org/2000/svg">
<path d="M3.67656 4.19922C3.25885 4.19922 2.85824 4.36516 2.56287 4.66053C2.2675 4.9559 2.10156 5.3565 2.10156 5.77422V13.1242C2.10156 13.5419 2.2675 13.9425 2.56287 14.2379C2.85824 14.5333 3.25885 14.6992 3.67656 14.6992H15.2266C15.6443 14.6992 16.0449 14.5333 16.3403 14.2379C16.6356 13.9425 16.8016 13.5419 16.8016 13.1242V5.77422C16.8016 5.3565 16.6356 4.9559 16.3403 4.66053C16.0449 4.36516 15.6443 4.19922 15.2266 4.19922H3.67656ZM6.30156 5.24922V6.29922C6.30156 6.85617 6.08031 7.39032 5.68649 7.78414C5.29266 8.17797 4.75852 8.39922 4.20156 8.39922H3.15156V7.34922H4.20156C4.48004 7.34922 4.74711 7.23859 4.94402 7.04168C5.14094 6.84477 5.25156 6.5777 5.25156 6.29922V5.24922H6.30156ZM9.45156 11.2867C8.96423 11.2867 8.49685 11.0931 8.15225 10.7485C7.80766 10.4039 7.61406 9.93655 7.61406 9.44922C7.61406 8.96188 7.80766 8.49451 8.15225 8.14991C8.49685 7.80531 8.96423 7.61172 9.45156 7.61172C9.9389 7.61172 10.4063 7.80531 10.7509 8.14991C11.0955 8.49451 11.2891 8.96188 11.2891 9.44922C11.2891 9.93655 11.0955 10.4039 10.7509 10.7485C10.4063 11.0931 9.9389 11.2867 9.45156 11.2867ZM3.15156 11.5492V10.4992H4.20156C4.75852 10.4992 5.29266 10.7205 5.68649 11.1143C6.08031 11.5081 6.30156 12.0423 6.30156 12.5992V13.6492H5.25156V12.5992C5.25156 12.3207 5.14094 12.0537 4.94402 11.8568C4.74711 11.6598 4.48004 11.5492 4.20156 11.5492H3.15156ZM14.7016 11.5492C14.4231 11.5492 14.156 11.6598 13.9591 11.8568C13.7622 12.0537 13.6516 12.3207 13.6516 12.5992V13.6492H12.6016V12.5992C12.6016 12.0423 12.8228 11.5081 13.2166 11.1143C13.6105 10.7205 14.1446 10.4992 14.7016 10.4992H15.7516V11.5492H14.7016ZM14.7016 7.34922H15.7516V8.39922H14.7016C14.1446 8.39922 13.6105 8.17797 13.2166 7.78414C12.8228 7.39032 12.6016 6.85617 12.6016 6.29922V5.24922H13.6516V6.29922C13.6516 6.5777 13.7622 6.84477 13.9591 7.04168C14.156 7.23859 14.4231 7.34922 14.7016 7.34922ZM17.8516 13.1242C17.8516 13.8204 17.575 14.4881 17.0827 14.9804C16.5904 15.4727 15.9228 15.7492 15.2266 15.7492H4.29081C4.39943 16.0564 4.60065 16.3224 4.86675 16.5104C5.13285 16.6985 5.45072 16.7994 5.77656 16.7992H15.2266C16.2012 16.7992 17.136 16.412 17.8252 15.7228C18.5144 15.0336 18.9016 14.0989 18.9016 13.1242V7.87422C18.9017 7.54838 18.8008 7.2305 18.6128 6.9644C18.4247 6.6983 18.1588 6.49708 17.8516 6.38847V13.1242Z" fill="url(#paint0_linear_1380_26485)"/>
<path d="M3.67656 4.19922C3.25885 4.19922 2.85824 4.36516 2.56287 4.66053C2.2675 4.9559 2.10156 5.3565 2.10156 5.77422V13.1242C2.10156 13.5419 2.2675 13.9425 2.56287 14.2379C2.85824 14.5333 3.25885 14.6992 3.67656 14.6992H15.2266C15.6443 14.6992 16.0449 14.5333 16.3403 14.2379C16.6356 13.9425 16.8016 13.5419 16.8016 13.1242V5.77422C16.8016 5.3565 16.6356 4.9559 16.3403 4.66053C16.0449 4.36516 15.6443 4.19922 15.2266 4.19922H3.67656ZM6.30156 5.24922V6.29922C6.30156 6.85617 6.08031 7.39032 5.68649 7.78414C5.29266 8.17797 4.75852 8.39922 4.20156 8.39922H3.15156V7.34922H4.20156C4.48004 7.34922 4.74711 7.23859 4.94402 7.04168C5.14094 6.84477 5.25156 6.5777 5.25156 6.29922V5.24922H6.30156ZM9.45156 11.2867C8.96423 11.2867 8.49685 11.0931 8.15225 10.7485C7.80766 10.4039 7.61406 9.93655 7.61406 9.44922C7.61406 8.96188 7.80766 8.49451 8.15225 8.14991C8.49685 7.80531 8.96423 7.61172 9.45156 7.61172C9.9389 7.61172 10.4063 7.80531 10.7509 8.14991C11.0955 8.49451 11.2891 8.96188 11.2891 9.44922C11.2891 9.93655 11.0955 10.4039 10.7509 10.7485C10.4063 11.0931 9.9389 11.2867 9.45156 11.2867ZM3.15156 11.5492V10.4992H4.20156C4.75852 10.4992 5.29266 10.7205 5.68649 11.1143C6.08031 11.5081 6.30156 12.0423 6.30156 12.5992V13.6492H5.25156V12.5992C5.25156 12.3207 5.14094 12.0537 4.94402 11.8568C4.74711 11.6598 4.48004 11.5492 4.20156 11.5492H3.15156ZM14.7016 11.5492C14.4231 11.5492 14.156 11.6598 13.9591 11.8568C13.7622 12.0537 13.6516 12.3207 13.6516 12.5992V13.6492H12.6016V12.5992C12.6016 12.0423 12.8228 11.5081 13.2166 11.1143C13.6105 10.7205 14.1446 10.4992 14.7016 10.4992H15.7516V11.5492H14.7016ZM14.7016 7.34922H15.7516V8.39922H14.7016C14.1446 8.39922 13.6105 8.17797 13.2166 7.78414C12.8228 7.39032 12.6016 6.85617 12.6016 6.29922V5.24922H13.6516V6.29922C13.6516 6.5777 13.7622 6.84477 13.9591 7.04168C14.156 7.23859 14.4231 7.34922 14.7016 7.34922ZM17.8516 13.1242C17.8516 13.8204 17.575 14.4881 17.0827 14.9804C16.5904 15.4727 15.9228 15.7492 15.2266 15.7492H4.29081C4.39943 16.0564 4.60065 16.3224 4.86675 16.5104C5.13285 16.6985 5.45072 16.7994 5.77656 16.7992H15.2266C16.2012 16.7992 17.136 16.412 17.8252 15.7228C18.5144 15.0336 18.9016 14.0989 18.9016 13.1242V7.87422C18.9017 7.54838 18.8008 7.2305 18.6128 6.9644C18.4247 6.6983 18.1588 6.49708 17.8516 6.38847V13.1242Z" fill="url(#paint1_linear_1380_26485)"/>
<defs>
<linearGradient id="paint0_linear_1380_26485" x1="10.5016" y1="4.19922" x2="10.5016" y2="16.7992" gradientUnits="userSpaceOnUse">
<stop stop-color="#07080A"/>
<stop offset="1" stop-color="#1A1B1F"/>
</linearGradient>
<linearGradient id="paint1_linear_1380_26485" x1="20.1743" y1="36.7492" x2="-0.406335" y2="-5.22846" gradientUnits="userSpaceOnUse">
<stop stop-color="#8375C2"/>
<stop offset="0.246488" stop-color="#8375C2"/>
<stop offset="0.483729" stop-color="#7569AC"/>
<stop offset="0.764806" stop-color="#8375C2"/>
<stop offset="1" stop-color="#8375C2"/>
</linearGradient>
</defs>
</svg>
