<svg width="39" height="38" viewBox="0 0 39 38" fill="none" xmlns="http://www.w3.org/2000/svg">
<path d="M7.48137 36.8371H6.9875C5.19616 36.8371 4.30049 36.8371 3.744 36.2807C3.1875 35.7242 3.1875 34.8285 3.1875 33.0371V30.9245C3.1875 29.9393 3.1875 29.4467 3.44054 29.0068C3.69358 28.5669 4.07532 28.3449 4.83879 27.9008C9.86519 24.9775 17.0034 23.3318 21.7677 26.1734C22.0878 26.3644 22.3757 26.5948 22.6217 26.8712C23.6821 28.0622 23.6048 29.8598 22.3827 30.9265C22.1247 31.1517 21.8496 31.3225 21.5726 31.3819C21.8002 31.3555 22.0184 31.3253 22.2266 31.2921C23.9582 31.0158 25.4119 30.0905 26.7426 29.0852L30.1763 26.4914C31.3868 25.577 33.1834 25.5768 34.3941 26.491C35.4841 27.314 35.8173 28.6691 35.1283 29.7736C34.3247 31.0617 33.1925 32.7096 32.1054 33.7165C31.0167 34.7248 29.3959 35.625 28.0727 36.2636C26.607 36.9711 24.9877 37.3787 23.3407 37.6453C20.0003 38.1861 16.519 38.1035 13.2125 37.4223C11.3433 37.0372 9.40201 36.8371 7.48137 36.8371Z" fill="white"/>
<path d="M7.48137 36.8371H6.9875C5.19616 36.8371 4.30049 36.8371 3.744 36.2807C3.1875 35.7242 3.1875 34.8285 3.1875 33.0371V30.9245C3.1875 29.9393 3.1875 29.4467 3.44054 29.0068C3.69358 28.5669 4.07532 28.3449 4.83879 27.9008C9.86519 24.9775 17.0034 23.3318 21.7677 26.1734C22.0878 26.3644 22.3757 26.5948 22.6217 26.8712C23.6821 28.0622 23.6048 29.8598 22.3827 30.9265C22.1247 31.1517 21.8496 31.3225 21.5726 31.3819C21.8002 31.3555 22.0184 31.3253 22.2266 31.2921C23.9582 31.0158 25.4119 30.0905 26.7426 29.0852L30.1763 26.4914C31.3868 25.577 33.1834 25.5768 34.3941 26.491C35.4841 27.314 35.8173 28.6691 35.1283 29.7736C34.3247 31.0617 33.1925 32.7096 32.1054 33.7165C31.0167 34.7248 29.3959 35.625 28.0727 36.2636C26.607 36.9711 24.9877 37.3787 23.3407 37.6453C20.0003 38.1861 16.519 38.1035 13.2125 37.4223C11.3433 37.0372 9.40201 36.8371 7.48137 36.8371Z" fill="url(#paint0_linear_1380_25934)"/>
<path d="M8.09737 1.113C7.40049 1.80987 7.13995 2.77268 7.04254 4.27461C9.35739 4.24374 11.2281 2.37302 11.259 0.0581671C9.75705 0.155578 8.79424 0.416121 8.09737 1.113Z" fill="white"/>
<path d="M8.09737 1.113C7.40049 1.80987 7.13995 2.77268 7.04254 4.27461C9.35739 4.24374 11.2281 2.37302 11.259 0.0581671C9.75705 0.155578 8.79424 0.416121 8.09737 1.113Z" fill="url(#paint1_linear_1380_25934)"/>
<path d="M28.6714 1.11299C27.9745 0.41612 27.0117 0.155567 25.5098 0.0581569C25.5406 2.37301 27.4114 4.24375 29.7262 4.27461C29.6288 2.77267 29.3683 1.80987 28.6714 1.11299Z" fill="white"/>
<path d="M28.6714 1.11299C27.9745 0.41612 27.0117 0.155567 25.5098 0.0581569C25.5406 2.37301 27.4114 4.24375 29.7262 4.27461C29.6288 2.77267 29.3683 1.80987 28.6714 1.11299Z" fill="url(#paint2_linear_1380_25934)"/>
<path d="M28.6714 14.087C27.9745 14.7839 27.0117 15.0444 25.5098 15.1418C25.5406 12.827 27.4114 10.9562 29.7262 10.9254C29.6288 12.4273 29.3683 13.3901 28.6714 14.087Z" fill="white"/>
<path d="M28.6714 14.087C27.9745 14.7839 27.0117 15.0444 25.5098 15.1418C25.5406 12.827 27.4114 10.9562 29.7262 10.9254C29.6288 12.4273 29.3683 13.3901 28.6714 14.087Z" fill="url(#paint3_linear_1380_25934)"/>
<path d="M8.09737 14.087C8.79424 14.7839 9.75705 15.0444 11.259 15.1418C11.2281 12.827 9.35739 10.9563 7.04254 10.9254C7.13995 12.4273 7.40049 13.3901 8.09737 14.087Z" fill="white"/>
<path d="M8.09737 14.087C8.79424 14.7839 9.75705 15.0444 11.259 15.1418C11.2281 12.827 9.35739 10.9563 7.04254 10.9254C7.13995 12.4273 7.40049 13.3901 8.09737 14.087Z" fill="url(#paint4_linear_1380_25934)"/>
<path fill-rule="evenodd" clip-rule="evenodd" d="M6.98438 7.125C10.9194 7.125 14.1094 3.93503 14.1094 0H22.6594C22.6594 3.93503 25.8493 7.125 29.7844 7.125V8.075C25.8493 8.075 22.6594 11.265 22.6594 15.2H14.1094C14.1094 11.265 10.9194 8.075 6.98438 8.075V7.125ZM18.3844 9.5C19.4337 9.5 20.2844 8.64934 20.2844 7.6C20.2844 6.55066 19.4337 5.7 18.3844 5.7C17.335 5.7 16.4844 6.55066 16.4844 7.6C16.4844 8.64934 17.335 9.5 18.3844 9.5Z" fill="white"/>
<path fill-rule="evenodd" clip-rule="evenodd" d="M6.98438 7.125C10.9194 7.125 14.1094 3.93503 14.1094 0H22.6594C22.6594 3.93503 25.8493 7.125 29.7844 7.125V8.075C25.8493 8.075 22.6594 11.265 22.6594 15.2H14.1094C14.1094 11.265 10.9194 8.075 6.98438 8.075V7.125ZM18.3844 9.5C19.4337 9.5 20.2844 8.64934 20.2844 7.6C20.2844 6.55066 19.4337 5.7 18.3844 5.7C17.335 5.7 16.4844 6.55066 16.4844 7.6C16.4844 8.64934 17.335 9.5 18.3844 9.5Z" fill="url(#paint5_linear_1380_25934)"/>
<defs>
<linearGradient id="paint0_linear_1380_25934" x1="19.3375" y1="24.6992" x2="19.3375" y2="37.9992" gradientUnits="userSpaceOnUse">
<stop stop-color="#B7ADE7"/>
<stop offset="1" stop-color="#8375C2"/>
</linearGradient>
<linearGradient id="paint1_linear_1380_25934" x1="18.3844" y1="0" x2="18.3844" y2="15.2" gradientUnits="userSpaceOnUse">
<stop stop-color="#B7ADE7"/>
<stop offset="1" stop-color="#8375C2"/>
</linearGradient>
<linearGradient id="paint2_linear_1380_25934" x1="18.3844" y1="0" x2="18.3844" y2="15.2" gradientUnits="userSpaceOnUse">
<stop stop-color="#B7ADE7"/>
<stop offset="1" stop-color="#8375C2"/>
</linearGradient>
<linearGradient id="paint3_linear_1380_25934" x1="18.3844" y1="0" x2="18.3844" y2="15.2" gradientUnits="userSpaceOnUse">
<stop stop-color="#B7ADE7"/>
<stop offset="1" stop-color="#8375C2"/>
</linearGradient>
<linearGradient id="paint4_linear_1380_25934" x1="18.3844" y1="0" x2="18.3844" y2="15.2" gradientUnits="userSpaceOnUse">
<stop stop-color="#B7ADE7"/>
<stop offset="1" stop-color="#8375C2"/>
</linearGradient>
<linearGradient id="paint5_linear_1380_25934" x1="18.3844" y1="0" x2="18.3844" y2="15.2" gradientUnits="userSpaceOnUse">
<stop stop-color="#B7ADE7"/>
<stop offset="1" stop-color="#8375C2"/>
</linearGradient>
</defs>
</svg>
