<svg width="39" height="38" viewBox="0 0 39 38" fill="none" xmlns="http://www.w3.org/2000/svg">
<g clip-path="url(#clip0_1380_25971)">
<path d="M4.12812 38C3.08312 38 2.18886 37.6282 1.44532 36.8847C0.701792 36.1412 0.329392 35.2463 0.328125 34.2V17.67C0.328125 16.91 0.533958 16.2133 0.945625 15.58C1.35729 14.9467 1.92729 14.4717 2.65562 14.155L10.9681 10.64C11.6015 10.3867 12.2031 10.4342 12.7731 10.7825C13.3431 11.1308 13.6281 11.6533 13.6281 12.35V13.3L20.5156 10.545C21.149 10.2917 21.7424 10.355 22.2959 10.735C22.8495 11.115 23.1269 11.6375 23.1281 12.3025V15.2H38.3281V34.2C38.3281 35.245 37.9563 36.1399 37.2128 36.8847C36.4693 37.6295 35.5744 38.0013 34.5281 38H4.12812ZM17.4281 30.4H21.2281V22.8H17.4281V30.4ZM9.82812 30.4H13.6281V22.8H9.82812V30.4ZM25.0281 30.4H28.8281V22.8H25.0281V30.4ZM37.9481 12.35H29.1606L30.5381 1.6625C30.6014 1.1875 30.8155 0.791667 31.1803 0.475C31.5451 0.158333 31.9644 0 32.4381 0H34.7656C35.2406 0 35.6523 0.158333 36.0006 0.475C36.3489 0.791667 36.5548 1.1875 36.6181 1.6625L37.9481 12.35Z" fill="white"/>
<path d="M4.12812 38C3.08312 38 2.18886 37.6282 1.44532 36.8847C0.701792 36.1412 0.329392 35.2463 0.328125 34.2V17.67C0.328125 16.91 0.533958 16.2133 0.945625 15.58C1.35729 14.9467 1.92729 14.4717 2.65562 14.155L10.9681 10.64C11.6015 10.3867 12.2031 10.4342 12.7731 10.7825C13.3431 11.1308 13.6281 11.6533 13.6281 12.35V13.3L20.5156 10.545C21.149 10.2917 21.7424 10.355 22.2959 10.735C22.8495 11.115 23.1269 11.6375 23.1281 12.3025V15.2H38.3281V34.2C38.3281 35.245 37.9563 36.1399 37.2128 36.8847C36.4693 37.6295 35.5744 38.0013 34.5281 38H4.12812ZM17.4281 30.4H21.2281V22.8H17.4281V30.4ZM9.82812 30.4H13.6281V22.8H9.82812V30.4ZM25.0281 30.4H28.8281V22.8H25.0281V30.4ZM37.9481 12.35H29.1606L30.5381 1.6625C30.6014 1.1875 30.8155 0.791667 31.1803 0.475C31.5451 0.158333 31.9644 0 32.4381 0H34.7656C35.2406 0 35.6523 0.158333 36.0006 0.475C36.3489 0.791667 36.5548 1.1875 36.6181 1.6625L37.9481 12.35Z" fill="url(#paint0_linear_1380_25971)"/>
</g>
<defs>
<linearGradient id="paint0_linear_1380_25971" x1="19.3281" y1="0" x2="19.3281" y2="38" gradientUnits="userSpaceOnUse">
<stop stop-color="#B7ADE7"/>
<stop offset="1" stop-color="#8375C2"/>
</linearGradient>
<clipPath id="clip0_1380_25971">
<rect width="38" height="38" fill="white" transform="translate(0.328125)"/>
</clipPath>
</defs>
</svg>
