<svg width="21" height="21" viewBox="0 0 21 21" fill="none" xmlns="http://www.w3.org/2000/svg">
<path d="M10.5 1.75C12.5886 1.75 14.5916 2.57968 16.0685 4.05653C17.5453 5.53338 18.375 7.53642 18.375 9.625C18.375 12.3147 16.9085 14.5162 15.3633 16.0956C14.5912 16.8762 13.7488 17.5838 12.8468 18.2096L12.474 18.4634L12.299 18.5797L11.9691 18.7897L11.6751 18.9691L11.3111 19.1809C11.0641 19.3219 10.7845 19.3961 10.5 19.3961C10.2155 19.3961 9.93595 19.3219 9.68888 19.1809L9.32487 18.9691L8.86987 18.6891L8.70187 18.5797L8.34312 18.3409C7.36998 17.6825 6.46354 16.9305 5.63675 16.0956C4.0915 14.5154 2.625 12.3147 2.625 9.625C2.625 7.53642 3.45468 5.53338 4.93153 4.05653C6.40838 2.57968 8.41142 1.75 10.5 1.75ZM10.5 7C10.1553 7 9.81394 7.0679 9.49546 7.19982C9.17698 7.33173 8.8876 7.52509 8.64384 7.76884C8.40009 8.0126 8.20673 8.30198 8.07482 8.62046C7.9429 8.93894 7.875 9.28028 7.875 9.625C7.875 9.96972 7.9429 10.3111 8.07482 10.6295C8.20673 10.948 8.40009 11.2374 8.64384 11.4812C8.8876 11.7249 9.17698 11.9183 9.49546 12.0502C9.81394 12.1821 10.1553 12.25 10.5 12.25C11.1962 12.25 11.8639 11.9734 12.3562 11.4812C12.8484 10.9889 13.125 10.3212 13.125 9.625C13.125 8.92881 12.8484 8.26113 12.3562 7.76884C11.8639 7.27656 11.1962 7 10.5 7Z" fill="#9F98BC"/>
</svg>
