<svg width="38" height="38" viewBox="0 0 38 38" fill="none" xmlns="http://www.w3.org/2000/svg">
<g clip-path="url(#clip0_1380_25902)">
<path fill-rule="evenodd" clip-rule="evenodd" d="M3.21025 18.9663C3.74631 19.503 3.74578 20.3727 3.20907 20.9087L2.92742 21.19C2.68684 21.4303 2.68684 21.8192 2.92742 22.0595C3.16892 22.3007 3.56117 22.3007 3.80267 22.0595L6.90079 18.9651C7.4375 18.4291 8.30715 18.4296 8.84321 18.9663C9.37926 19.503 9.37873 20.3727 8.84202 20.9087L5.7439 24.003C4.4299 25.3154 2.30019 25.3154 0.98619 24.003C-0.32873 22.6897 -0.32873 20.5597 0.98619 19.2464L1.26784 18.9651C1.80455 18.4291 2.6742 18.4296 3.21025 18.9663ZM12.0997 20.7908C12.636 21.3272 12.636 22.1968 12.0997 22.7332L8.22292 26.6099C7.68653 27.1463 6.81688 27.1463 6.2805 26.6099C5.74412 26.0735 5.74412 25.2039 6.2805 24.6675L10.1572 20.7908C10.6936 20.2544 11.5633 20.2544 12.0997 20.7908ZM17.1829 25.8678C17.7193 26.4042 17.7193 27.2738 17.1829 27.8102L13.3327 31.6604C12.7963 32.1967 11.9266 32.1967 11.3902 31.6604C10.8539 31.124 10.8539 30.2543 11.3902 29.718L15.2405 25.8678C15.7769 25.3314 16.6465 25.3314 17.1829 25.8678ZM11.3949 26.5927C11.9253 27.135 11.9156 28.0046 11.3733 28.535L8.24252 31.5968C7.7002 32.1272 6.83061 32.1175 6.30023 31.5752C5.76985 31.0329 5.77952 30.1633 6.32184 29.6329L9.45263 26.5711C9.99494 26.0407 10.8645 26.0504 11.3949 26.5927ZM18.9658 29.166C19.5019 29.7027 19.5014 30.5723 18.9646 31.1084L15.8665 34.2027C15.6259 34.443 15.6259 34.8319 15.8665 35.0721C16.108 35.3133 16.5003 35.3133 16.7418 35.0721L17.0234 34.7908C17.5601 34.2548 18.4298 34.2553 18.9658 34.792C19.5019 35.3287 19.5014 36.1984 18.9646 36.7344L18.683 37.0157C17.369 38.3281 15.2393 38.3281 13.9253 37.0157C12.6104 35.7024 12.6104 33.5724 13.9253 32.2591L17.0234 29.1648C17.5601 28.6287 18.4298 28.6293 18.9658 29.166Z" fill="white"/>
<path fill-rule="evenodd" clip-rule="evenodd" d="M3.21025 18.9663C3.74631 19.503 3.74578 20.3727 3.20907 20.9087L2.92742 21.19C2.68684 21.4303 2.68684 21.8192 2.92742 22.0595C3.16892 22.3007 3.56117 22.3007 3.80267 22.0595L6.90079 18.9651C7.4375 18.4291 8.30715 18.4296 8.84321 18.9663C9.37926 19.503 9.37873 20.3727 8.84202 20.9087L5.7439 24.003C4.4299 25.3154 2.30019 25.3154 0.98619 24.003C-0.32873 22.6897 -0.32873 20.5597 0.98619 19.2464L1.26784 18.9651C1.80455 18.4291 2.6742 18.4296 3.21025 18.9663ZM12.0997 20.7908C12.636 21.3272 12.636 22.1968 12.0997 22.7332L8.22292 26.6099C7.68653 27.1463 6.81688 27.1463 6.2805 26.6099C5.74412 26.0735 5.74412 25.2039 6.2805 24.6675L10.1572 20.7908C10.6936 20.2544 11.5633 20.2544 12.0997 20.7908ZM17.1829 25.8678C17.7193 26.4042 17.7193 27.2738 17.1829 27.8102L13.3327 31.6604C12.7963 32.1967 11.9266 32.1967 11.3902 31.6604C10.8539 31.124 10.8539 30.2543 11.3902 29.718L15.2405 25.8678C15.7769 25.3314 16.6465 25.3314 17.1829 25.8678ZM11.3949 26.5927C11.9253 27.135 11.9156 28.0046 11.3733 28.535L8.24252 31.5968C7.7002 32.1272 6.83061 32.1175 6.30023 31.5752C5.76985 31.0329 5.77952 30.1633 6.32184 29.6329L9.45263 26.5711C9.99494 26.0407 10.8645 26.0504 11.3949 26.5927ZM18.9658 29.166C19.5019 29.7027 19.5014 30.5723 18.9646 31.1084L15.8665 34.2027C15.6259 34.443 15.6259 34.8319 15.8665 35.0721C16.108 35.3133 16.5003 35.3133 16.7418 35.0721L17.0234 34.7908C17.5601 34.2548 18.4298 34.2553 18.9658 34.792C19.5019 35.3287 19.5014 36.1984 18.9646 36.7344L18.683 37.0157C17.369 38.3281 15.2393 38.3281 13.9253 37.0157C12.6104 35.7024 12.6104 33.5724 13.9253 32.2591L17.0234 29.1648C17.5601 28.6287 18.4298 28.6293 18.9658 29.166Z" fill="url(#paint0_linear_1380_25902)"/>
<path d="M17.8172 6.16888L13.8585 10.1157C13.1308 10.8411 12.4633 11.5065 11.9362 12.1081C11.5977 12.4944 11.2594 12.9172 10.9728 13.3844L10.9343 13.346C10.8611 13.273 10.8244 13.2364 10.7876 13.2008C10.0996 12.5331 9.29021 12.0023 8.40285 11.6368C8.35543 11.6172 8.30731 11.5981 8.21106 11.56L7.62164 11.3265C6.82316 11.0101 6.61035 9.98215 7.21793 9.37641C8.96166 7.63798 11.0553 5.55074 12.0657 5.13152C12.9567 4.7618 13.9193 4.63879 14.8477 4.77598C15.6983 4.90169 16.503 5.33863 17.8172 6.16888Z" fill="white"/>
<path d="M17.8172 6.16888L13.8585 10.1157C13.1308 10.8411 12.4633 11.5065 11.9362 12.1081C11.5977 12.4944 11.2594 12.9172 10.9728 13.3844L10.9343 13.346C10.8611 13.273 10.8244 13.2364 10.7876 13.2008C10.0996 12.5331 9.29021 12.0023 8.40285 11.6368C8.35543 11.6172 8.30731 11.5981 8.21106 11.56L7.62164 11.3265C6.82316 11.0101 6.61035 9.98215 7.21793 9.37641C8.96166 7.63798 11.0553 5.55074 12.0657 5.13152C12.9567 4.7618 13.9193 4.63879 14.8477 4.77598C15.6983 4.90169 16.503 5.33863 17.8172 6.16888Z" fill="url(#paint1_linear_1380_25902)"/>
<path d="M24.5766 26.9497C24.8956 27.2734 25.1075 27.5021 25.299 27.7465C25.5517 28.0689 25.7777 28.4114 25.9747 28.7705C26.1964 29.1747 26.3685 29.6065 26.7128 30.4701C26.993 31.1732 27.9241 31.359 28.4649 30.8198L28.5957 30.6894C30.3394 28.9509 32.4329 26.8636 32.8534 25.8563C33.2242 24.9679 33.3476 24.0082 33.21 23.0826C33.0839 22.2347 32.6458 21.4325 31.8132 20.1226L27.8413 24.0826C27.0972 24.8245 26.4149 25.5048 25.7978 26.0378C25.428 26.3571 25.0234 26.6763 24.5766 26.9497Z" fill="white"/>
<path d="M24.5766 26.9497C24.8956 27.2734 25.1075 27.5021 25.299 27.7465C25.5517 28.0689 25.7777 28.4114 25.9747 28.7705C26.1964 29.1747 26.3685 29.6065 26.7128 30.4701C26.993 31.1732 27.9241 31.359 28.4649 30.8198L28.5957 30.6894C30.3394 28.9509 32.4329 26.8636 32.8534 25.8563C33.2242 24.9679 33.3476 24.0082 33.21 23.0826C33.0839 22.2347 32.6458 21.4325 31.8132 20.1226L27.8413 24.0826C27.0972 24.8245 26.4149 25.5048 25.7978 26.0378C25.428 26.3571 25.0234 26.6763 24.5766 26.9497Z" fill="url(#paint2_linear_1380_25902)"/>
<path fill-rule="evenodd" clip-rule="evenodd" d="M26.2422 22.3791L35.3435 13.3052C36.6542 11.9984 37.3096 11.345 37.6548 10.5142C38 9.6833 38 8.75928 38 6.91124V6.02836C38 3.18656 38 1.76566 37.1145 0.882832C36.229 0 34.8038 0 31.9534 0H31.0679C29.2143 0 28.2875 0 27.4541 0.344161C26.6207 0.688321 25.9653 1.34171 24.6546 2.64848L15.5533 11.7224C14.0217 13.2494 13.072 14.1962 12.7043 15.1106C12.5881 15.3996 12.53 15.6853 12.53 15.9851C12.53 17.2336 13.5377 18.2383 15.5533 20.2478L15.8241 20.5178L18.9973 17.2974C19.4499 16.8381 20.1891 16.8326 20.6483 17.2851C21.1076 17.7377 21.1131 18.4768 20.6606 18.9361L17.4777 22.1664L17.691 22.3791C19.7066 24.3886 20.7143 25.3933 21.9666 25.3933C22.2433 25.3933 22.5081 25.3443 22.7744 25.2462C23.7134 24.9003 24.672 23.9446 26.2422 22.3791ZM30.5179 11.7231C29.3373 12.9002 27.423 12.9002 26.2424 11.7231C25.0617 10.546 25.0617 8.63748 26.2424 7.46038C27.423 6.28327 29.3373 6.28327 30.5179 7.46038C31.6986 8.63748 31.6986 10.546 30.5179 11.7231Z" fill="white"/>
<path fill-rule="evenodd" clip-rule="evenodd" d="M26.2422 22.3791L35.3435 13.3052C36.6542 11.9984 37.3096 11.345 37.6548 10.5142C38 9.6833 38 8.75928 38 6.91124V6.02836C38 3.18656 38 1.76566 37.1145 0.882832C36.229 0 34.8038 0 31.9534 0H31.0679C29.2143 0 28.2875 0 27.4541 0.344161C26.6207 0.688321 25.9653 1.34171 24.6546 2.64848L15.5533 11.7224C14.0217 13.2494 13.072 14.1962 12.7043 15.1106C12.5881 15.3996 12.53 15.6853 12.53 15.9851C12.53 17.2336 13.5377 18.2383 15.5533 20.2478L15.8241 20.5178L18.9973 17.2974C19.4499 16.8381 20.1891 16.8326 20.6483 17.2851C21.1076 17.7377 21.1131 18.4768 20.6606 18.9361L17.4777 22.1664L17.691 22.3791C19.7066 24.3886 20.7143 25.3933 21.9666 25.3933C22.2433 25.3933 22.5081 25.3443 22.7744 25.2462C23.7134 24.9003 24.672 23.9446 26.2422 22.3791ZM30.5179 11.7231C29.3373 12.9002 27.423 12.9002 26.2424 11.7231C25.0617 10.546 25.0617 8.63748 26.2424 7.46038C27.423 6.28327 29.3373 6.28327 30.5179 7.46038C31.6986 8.63748 31.6986 10.546 30.5179 11.7231Z" fill="url(#paint3_linear_1380_25902)"/>
</g>
<defs>
<linearGradient id="paint0_linear_1380_25902" x1="19" y1="0" x2="19" y2="38" gradientUnits="userSpaceOnUse">
<stop stop-color="#B7ADE7"/>
<stop offset="1" stop-color="#8375C2"/>
</linearGradient>
<linearGradient id="paint1_linear_1380_25902" x1="19" y1="0" x2="19" y2="38" gradientUnits="userSpaceOnUse">
<stop stop-color="#B7ADE7"/>
<stop offset="1" stop-color="#8375C2"/>
</linearGradient>
<linearGradient id="paint2_linear_1380_25902" x1="19" y1="0" x2="19" y2="38" gradientUnits="userSpaceOnUse">
<stop stop-color="#B7ADE7"/>
<stop offset="1" stop-color="#8375C2"/>
</linearGradient>
<linearGradient id="paint3_linear_1380_25902" x1="19" y1="0" x2="19" y2="38" gradientUnits="userSpaceOnUse">
<stop stop-color="#B7ADE7"/>
<stop offset="1" stop-color="#8375C2"/>
</linearGradient>
<clipPath id="clip0_1380_25902">
<rect width="38" height="38" fill="white"/>
</clipPath>
</defs>
</svg>
