<svg width="39" height="38" viewBox="0 0 39 38" fill="none" xmlns="http://www.w3.org/2000/svg">
<g clip-path="url(#clip0_1380_25988)">
<path fill-rule="evenodd" clip-rule="evenodd" d="M1.31461 11.0632C0.328125 12.8654 0.328125 15.0394 0.328125 19.3874V22.2774C0.328125 29.6891 0.328125 33.395 2.55411 35.6975C4.7801 38 8.36278 38 15.5281 38H23.1281C30.2935 38 33.8761 38 36.1021 35.6975C38.3281 33.395 38.3281 29.6891 38.3281 22.2774V19.3874C38.3281 15.0394 38.3281 12.8654 37.3416 11.0632C36.3552 9.26099 34.5529 8.14247 30.9485 5.90544L27.1485 3.54705C23.3383 1.18235 21.4332 0 19.3281 0C17.223 0 15.318 1.18235 11.5078 3.54705L7.70779 5.90544C4.10332 8.14248 2.30109 9.26099 1.31461 11.0632ZM13.6281 28.975C12.8411 28.975 12.2031 29.613 12.2031 30.4C12.2031 31.187 12.8411 31.825 13.6281 31.825H25.0281C25.8151 31.825 26.4531 31.187 26.4531 30.4C26.4531 29.613 25.8151 28.975 25.0281 28.975H13.6281Z" fill="white"/>
<path fill-rule="evenodd" clip-rule="evenodd" d="M1.31461 11.0632C0.328125 12.8654 0.328125 15.0394 0.328125 19.3874V22.2774C0.328125 29.6891 0.328125 33.395 2.55411 35.6975C4.7801 38 8.36278 38 15.5281 38H23.1281C30.2935 38 33.8761 38 36.1021 35.6975C38.3281 33.395 38.3281 29.6891 38.3281 22.2774V19.3874C38.3281 15.0394 38.3281 12.8654 37.3416 11.0632C36.3552 9.26099 34.5529 8.14247 30.9485 5.90544L27.1485 3.54705C23.3383 1.18235 21.4332 0 19.3281 0C17.223 0 15.318 1.18235 11.5078 3.54705L7.70779 5.90544C4.10332 8.14248 2.30109 9.26099 1.31461 11.0632ZM13.6281 28.975C12.8411 28.975 12.2031 29.613 12.2031 30.4C12.2031 31.187 12.8411 31.825 13.6281 31.825H25.0281C25.8151 31.825 26.4531 31.187 26.4531 30.4C26.4531 29.613 25.8151 28.975 25.0281 28.975H13.6281Z" fill="url(#paint0_linear_1380_25988)"/>
</g>
<defs>
<linearGradient id="paint0_linear_1380_25988" x1="19.3281" y1="0" x2="19.3281" y2="38" gradientUnits="userSpaceOnUse">
<stop stop-color="#B7ADE7"/>
<stop offset="1" stop-color="#8375C2"/>
</linearGradient>
<clipPath id="clip0_1380_25988">
<rect width="38" height="38" fill="white" transform="translate(0.328125)"/>
</clipPath>
</defs>
</svg>
