<svg width="21" height="21" viewBox="0 0 21 21" fill="none" xmlns="http://www.w3.org/2000/svg">
<path d="M7.09062 9.45C7.99568 9.45 8.86366 9.09047 9.50363 8.4505C10.1436 7.81053 10.5031 6.94255 10.5031 6.0375C10.5031 5.13245 10.1436 4.26447 9.50363 3.6245C8.86366 2.98453 7.99568 2.625 7.09062 2.625C6.18557 2.625 5.31759 2.98453 4.67762 3.6245C4.03765 4.26447 3.67812 5.13245 3.67812 6.0375C3.67812 6.94255 4.03765 7.81053 4.67762 8.4505C5.31759 9.09047 6.18557 9.45 7.09062 9.45ZM9.45312 13.125C9.4531 12.5745 9.62615 12.0379 9.9478 11.5912C10.2694 11.1444 10.7234 10.8101 11.2455 10.6354C11.0082 10.5458 10.7567 10.5 10.5031 10.5H3.67812C3.12117 10.5 2.58703 10.7212 2.1932 11.1151C1.79937 11.5089 1.57813 12.043 1.57812 12.6C1.57813 12.6 1.57812 16.8 7.09062 16.8C8.03247 16.8 8.81262 16.6771 9.46047 16.4745C9.45592 16.4081 9.45347 16.3416 9.45312 16.275V13.125ZM17.8531 6.825C17.8531 7.52119 17.5766 8.18887 17.0843 8.68116C16.592 9.17344 15.9243 9.45 15.2281 9.45C14.5319 9.45 13.8643 9.17344 13.372 8.68116C12.8797 8.18887 12.6031 7.52119 12.6031 6.825C12.6031 6.12881 12.8797 5.46113 13.372 4.96884C13.8643 4.47656 14.5319 4.2 15.2281 4.2C15.9243 4.2 16.592 4.47656 17.0843 4.96884C17.5766 5.46113 17.8531 6.12881 17.8531 6.825ZM10.5031 13.125C10.5031 12.7073 10.6691 12.3067 10.9644 12.0113C11.2598 11.7159 11.6604 11.55 12.0781 11.55H18.3781C18.7958 11.55 19.1964 11.7159 19.4918 12.0113C19.7872 12.3067 19.9531 12.7073 19.9531 13.125V16.275C19.9531 16.6927 19.7872 17.0933 19.4918 17.3887C19.1964 17.6841 18.7958 17.85 18.3781 17.85H12.0781C11.6604 17.85 11.2598 17.6841 10.9644 17.3887C10.6691 17.0933 10.5031 16.6927 10.5031 16.275V13.125ZM11.5531 13.125V14.175C11.9708 14.175 12.3714 14.0091 12.6668 13.7137C12.9622 13.4183 13.1281 13.0177 13.1281 12.6H12.0781C12.0781 12.7392 12.0228 12.8728 11.9244 12.9712C11.8259 13.0697 11.6924 13.125 11.5531 13.125ZM18.9031 14.175V13.125C18.7639 13.125 18.6304 13.0697 18.5319 12.9712C18.4334 12.8728 18.3781 12.7392 18.3781 12.6H17.3281C17.3281 13.0177 17.4941 13.4183 17.7894 13.7137C18.0848 14.0091 18.4854 14.175 18.9031 14.175ZM17.3281 16.8H18.3781C18.3781 16.6608 18.4334 16.5272 18.5319 16.4288C18.6304 16.3303 18.7639 16.275 18.9031 16.275V15.225C18.4854 15.225 18.0848 15.3909 17.7894 15.6863C17.4941 15.9817 17.3281 16.3823 17.3281 16.8ZM11.5531 15.225V16.275C11.6924 16.275 11.8259 16.3303 11.9244 16.4288C12.0228 16.5272 12.0781 16.6608 12.0781 16.8H13.1281C13.1281 16.3823 12.9622 15.9817 12.6668 15.6863C12.3714 15.3909 11.9708 15.225 11.5531 15.225ZM15.2281 16.275C15.6458 16.275 16.0464 16.1091 16.3418 15.8137C16.6372 15.5183 16.8031 15.1177 16.8031 14.7C16.8031 14.2823 16.6372 13.8817 16.3418 13.5863C16.0464 13.2909 15.6458 13.125 15.2281 13.125C14.8104 13.125 14.4098 13.2909 14.1144 13.5863C13.8191 13.8817 13.6531 14.2823 13.6531 14.7C13.6531 15.1177 13.8191 15.5183 14.1144 15.8137C14.4098 16.1091 14.8104 16.275 15.2281 16.275Z" fill="url(#paint0_linear_1380_25957)"/>
<path d="M7.09062 9.45C7.99568 9.45 8.86366 9.09047 9.50363 8.4505C10.1436 7.81053 10.5031 6.94255 10.5031 6.0375C10.5031 5.13245 10.1436 4.26447 9.50363 3.6245C8.86366 2.98453 7.99568 2.625 7.09062 2.625C6.18557 2.625 5.31759 2.98453 4.67762 3.6245C4.03765 4.26447 3.67812 5.13245 3.67812 6.0375C3.67812 6.94255 4.03765 7.81053 4.67762 8.4505C5.31759 9.09047 6.18557 9.45 7.09062 9.45ZM9.45312 13.125C9.4531 12.5745 9.62615 12.0379 9.9478 11.5912C10.2694 11.1444 10.7234 10.8101 11.2455 10.6354C11.0082 10.5458 10.7567 10.5 10.5031 10.5H3.67812C3.12117 10.5 2.58703 10.7212 2.1932 11.1151C1.79937 11.5089 1.57813 12.043 1.57812 12.6C1.57813 12.6 1.57812 16.8 7.09062 16.8C8.03247 16.8 8.81262 16.6771 9.46047 16.4745C9.45592 16.4081 9.45347 16.3416 9.45312 16.275V13.125ZM17.8531 6.825C17.8531 7.52119 17.5766 8.18887 17.0843 8.68116C16.592 9.17344 15.9243 9.45 15.2281 9.45C14.5319 9.45 13.8643 9.17344 13.372 8.68116C12.8797 8.18887 12.6031 7.52119 12.6031 6.825C12.6031 6.12881 12.8797 5.46113 13.372 4.96884C13.8643 4.47656 14.5319 4.2 15.2281 4.2C15.9243 4.2 16.592 4.47656 17.0843 4.96884C17.5766 5.46113 17.8531 6.12881 17.8531 6.825ZM10.5031 13.125C10.5031 12.7073 10.6691 12.3067 10.9644 12.0113C11.2598 11.7159 11.6604 11.55 12.0781 11.55H18.3781C18.7958 11.55 19.1964 11.7159 19.4918 12.0113C19.7872 12.3067 19.9531 12.7073 19.9531 13.125V16.275C19.9531 16.6927 19.7872 17.0933 19.4918 17.3887C19.1964 17.6841 18.7958 17.85 18.3781 17.85H12.0781C11.6604 17.85 11.2598 17.6841 10.9644 17.3887C10.6691 17.0933 10.5031 16.6927 10.5031 16.275V13.125ZM11.5531 13.125V14.175C11.9708 14.175 12.3714 14.0091 12.6668 13.7137C12.9622 13.4183 13.1281 13.0177 13.1281 12.6H12.0781C12.0781 12.7392 12.0228 12.8728 11.9244 12.9712C11.8259 13.0697 11.6924 13.125 11.5531 13.125ZM18.9031 14.175V13.125C18.7639 13.125 18.6304 13.0697 18.5319 12.9712C18.4334 12.8728 18.3781 12.7392 18.3781 12.6H17.3281C17.3281 13.0177 17.4941 13.4183 17.7894 13.7137C18.0848 14.0091 18.4854 14.175 18.9031 14.175ZM17.3281 16.8H18.3781C18.3781 16.6608 18.4334 16.5272 18.5319 16.4288C18.6304 16.3303 18.7639 16.275 18.9031 16.275V15.225C18.4854 15.225 18.0848 15.3909 17.7894 15.6863C17.4941 15.9817 17.3281 16.3823 17.3281 16.8ZM11.5531 15.225V16.275C11.6924 16.275 11.8259 16.3303 11.9244 16.4288C12.0228 16.5272 12.0781 16.6608 12.0781 16.8H13.1281C13.1281 16.3823 12.9622 15.9817 12.6668 15.6863C12.3714 15.3909 11.9708 15.225 11.5531 15.225ZM15.2281 16.275C15.6458 16.275 16.0464 16.1091 16.3418 15.8137C16.6372 15.5183 16.8031 15.1177 16.8031 14.7C16.8031 14.2823 16.6372 13.8817 16.3418 13.5863C16.0464 13.2909 15.6458 13.125 15.2281 13.125C14.8104 13.125 14.4098 13.2909 14.1144 13.5863C13.8191 13.8817 13.6531 14.2823 13.6531 14.7C13.6531 15.1177 13.8191 15.5183 14.1144 15.8137C14.4098 16.1091 14.8104 16.275 15.2281 16.275Z" fill="url(#paint1_linear_1380_25957)"/>
<defs>
<linearGradient id="paint0_linear_1380_25957" x1="10.7656" y1="2.625" x2="10.7656" y2="17.85" gradientUnits="userSpaceOnUse">
<stop stop-color="#07080A"/>
<stop offset="1" stop-color="#1A1B1F"/>
</linearGradient>
<linearGradient id="paint1_linear_1380_25957" x1="52.6836" y1="51.345" x2="14.9569" y2="54.3002" gradientUnits="userSpaceOnUse">
<stop stop-color="white"/>
<stop offset="0.246488" stop-color="white"/>
<stop offset="0.483729" stop-color="#D1C6FF"/>
<stop offset="0.764806" stop-color="#8375C2"/>
<stop offset="1" stop-color="#8375C2"/>
</linearGradient>
</defs>
</svg>
