<svg width="24" height="25" viewBox="0 0 24 25" fill="none" xmlns="http://www.w3.org/2000/svg">
<path d="M12.8324 22.3023C15.9583 21.6757 20 19.427 20 13.6122C20 8.32057 16.1267 4.7969 13.3415 3.17782C12.7235 2.81855 12 3.29104 12 4.00589V5.83437C12 7.27623 11.3938 9.90809 9.70932 11.0028C8.84932 11.5617 7.92052 10.7252 7.816 9.70485L7.73017 8.86702C7.6304 7.89301 6.63841 7.30173 5.85996 7.89558C4.46147 8.96241 3 10.8306 3 13.6122C3 20.7233 8.28889 22.501 10.9333 22.501C11.0871 22.501 11.2488 22.4964 11.4171 22.4868C10.1113 22.3751 8 21.565 8 18.9452C8 16.8959 9.49507 15.5095 10.631 14.8356C10.9365 14.6543 11.2941 14.8897 11.2941 15.2449V15.8341C11.2941 16.285 11.4685 16.9899 11.8836 17.4724C12.3534 18.0184 13.0429 17.4464 13.0985 16.7283C13.1161 16.5017 13.3439 16.3574 13.5401 16.472C14.1814 16.8468 15 17.6475 15 18.9452C15 20.9932 13.871 21.9353 12.8324 22.3023Z" fill="#8375C2"/>
</svg>
