<svg width="72" height="72" viewBox="0 0 72 72" fill="none" xmlns="http://www.w3.org/2000/svg">
<path d="M16.5882 16.5881C16.5882 14.716 17.3319 12.9206 18.6557 11.5968C19.9795 10.273 21.7749 9.5293 23.6471 9.5293H48.3529C50.2251 9.5293 52.0205 10.273 53.3443 11.5968C54.6681 12.9206 55.4118 14.716 55.4118 16.5881V41.294H66V48.3528C66 51.161 64.8845 53.8542 62.8988 55.8398C60.9131 57.8255 58.2199 58.9411 55.4118 58.9411H41.1176C41.2353 58.3693 41.2941 57.7811 41.2941 57.1764V46.5881C41.2941 44.248 40.3645 42.0037 38.7098 40.3489C37.055 38.6942 34.8107 37.7646 32.4706 37.7646H16.5882V16.5881ZM55.4118 55.4117C57.2839 55.4117 59.0793 54.668 60.4031 53.3442C61.7269 52.0204 62.4706 50.2249 62.4706 48.3528V44.8234H55.4118V55.4117ZM28.9412 20.1175C28.4731 20.1175 28.0243 20.3035 27.6933 20.6344C27.3624 20.9653 27.1765 21.4142 27.1765 21.8822C27.1765 22.3503 27.3624 22.7991 27.6933 23.1301C28.0243 23.461 28.4731 23.6469 28.9412 23.6469H43.0588C43.5269 23.6469 43.9757 23.461 44.3067 23.1301C44.6376 22.7991 44.8235 22.3503 44.8235 21.8822C44.8235 21.4142 44.6376 20.9653 44.3067 20.6344C43.9757 20.3035 43.5269 20.1175 43.0588 20.1175H28.9412ZM28.9412 30.7058C28.4731 30.7058 28.0243 30.8917 27.6933 31.2226C27.3624 31.5536 27.1765 32.0024 27.1765 32.4705C27.1765 32.9385 27.3624 33.3874 27.6933 33.7183C28.0243 34.0493 28.4731 34.2352 28.9412 34.2352H43.0588C43.5269 34.2352 43.9757 34.0493 44.3067 33.7183C44.6376 33.3874 44.8235 32.9385 44.8235 32.4705C44.8235 32.0024 44.6376 31.5536 44.3067 31.2226C43.9757 30.8917 43.5269 30.7058 43.0588 30.7058L28.9412 30.7058ZM37.7647 46.5881C37.7647 45.184 37.2069 43.8375 36.2141 42.8446C35.2213 41.8518 33.8747 41.294 32.4706 41.294H11.2941C9.89003 41.294 8.54345 41.8518 7.55061 42.8446C6.55777 43.8375 6 45.184 6 46.5881L6 57.1764C6 58.5804 6.55777 59.927 7.55061 60.9199C8.54345 61.9127 9.89003 62.4705 11.2941 62.4705H32.4706C33.8747 62.4705 35.2213 61.9127 36.2141 60.9199C37.2069 59.927 37.7647 58.5804 37.7647 57.1764V46.5881ZM34.2353 53.6469V57.1764C33.7673 57.1764 33.3184 57.3623 32.9875 57.6932C32.6565 58.0242 32.4706 58.473 32.4706 58.9411H28.9412C28.9412 57.537 29.4989 56.1904 30.4918 55.1976C31.4846 54.2047 32.8312 53.6469 34.2353 53.6469ZM32.4706 44.8234C32.4706 45.2914 32.6565 45.7403 32.9875 46.0713C33.3184 46.4022 33.7673 46.5881 34.2353 46.5881V50.1175C32.8312 50.1175 31.4846 49.5598 30.4918 48.5669C29.4989 47.5741 28.9412 46.2275 28.9412 44.8234H32.4706ZM9.52941 46.5881C9.99744 46.5881 10.4463 46.4022 10.7772 46.0713C11.1082 45.7403 11.2941 45.2914 11.2941 44.8234H14.8235C14.8235 46.2275 14.2658 47.5741 13.2729 48.5669C12.2801 49.5598 10.9335 50.1175 9.52941 50.1175V46.5881ZM11.2941 58.9411C11.2941 58.473 11.1082 58.0242 10.7772 57.6932C10.4463 57.3623 9.99744 57.1764 9.52941 57.1764V53.6469C10.9335 53.6469 12.2801 54.2047 13.2729 55.1976C14.2658 56.1904 14.8235 57.537 14.8235 58.9411H11.2941ZM16.5882 51.8822C16.5882 51.187 16.7252 50.4986 16.9912 49.8563C17.2573 49.214 17.6472 48.6303 18.1388 48.1387C18.6305 47.6471 19.2141 47.2572 19.8564 46.9911C20.4987 46.7251 21.1871 46.5881 21.8824 46.5881C22.5776 46.5881 23.266 46.7251 23.9083 46.9911C24.5506 47.2572 25.1343 47.6471 25.6259 48.1387C26.1175 48.6303 26.5074 49.214 26.7735 49.8563C27.0395 50.4986 27.1765 51.187 27.1765 51.8822C27.1765 53.2863 26.6187 54.6329 25.6259 55.6257C24.633 56.6186 23.2864 57.1764 21.8824 57.1764C20.4783 57.1764 19.1317 56.6186 18.1388 55.6257C17.146 54.6329 16.5882 53.2863 16.5882 51.8822Z" fill="url(#paint0_linear_1380_26637)"/>
<defs>
<linearGradient id="paint0_linear_1380_26637" x1="36" y1="9.5293" x2="36" y2="62.4705" gradientUnits="userSpaceOnUse">
<stop stop-color="#F6F4FE"/>
<stop offset="1" stop-color="#A19ABF"/>
</linearGradient>
</defs>
</svg>
