<svg width="24" height="24" viewBox="0 0 24 24" fill="none" xmlns="http://www.w3.org/2000/svg">
<path d="M12 22C9.68333 21.4167 7.77067 20.0873 6.262 18.012C4.75333 15.9367 3.99933 13.6327 4 11.1V5L12 2L20 5V11.1C20 13.6333 19.246 15.9377 17.738 18.013C16.23 20.0883 14.3173 21.4173 12 22ZM12 19.9C13.6167 19.4 14.9667 18.4123 16.05 16.937C17.1333 15.4617 17.7667 13.816 17.95 12H12V4.125L6 6.375V11.55C6 11.6667 6.01667 11.8167 6.05 12H12V19.9Z" fill="url(#paint0_linear_1380_26600)"/>
<path d="M12 22C9.68333 21.4167 7.77067 20.0873 6.262 18.012C4.75333 15.9367 3.99933 13.6327 4 11.1V5L12 2L20 5V11.1C20 13.6333 19.246 15.9377 17.738 18.013C16.23 20.0883 14.3173 21.4173 12 22ZM12 19.9C13.6167 19.4 14.9667 18.4123 16.05 16.937C17.1333 15.4617 17.7667 13.816 17.95 12H12V4.125L6 6.375V11.55C6 11.6667 6.01667 11.8167 6.05 12H12V19.9Z" fill="url(#paint1_linear_1380_26600)"/>
<defs>
<linearGradient id="paint0_linear_1380_26600" x1="12" y1="2" x2="12" y2="22" gradientUnits="userSpaceOnUse">
<stop stop-color="#07080A"/>
<stop offset="1" stop-color="#1A1B1F"/>
</linearGradient>
<linearGradient id="paint1_linear_1380_26600" x1="48.5" y1="66" x2="15.5368" y2="67.7115" gradientUnits="userSpaceOnUse">
<stop stop-color="white"/>
<stop offset="0.246488" stop-color="white"/>
<stop offset="0.483729" stop-color="#D1C6FF"/>
<stop offset="0.764806" stop-color="#8375C2"/>
<stop offset="1" stop-color="#8375C2"/>
</linearGradient>
</defs>
</svg>
