<svg width="24" height="24" viewBox="0 0 24 24" fill="none" xmlns="http://www.w3.org/2000/svg">
<path fill-rule="evenodd" clip-rule="evenodd" d="M7 7.828V9H6C5.20435 9 4.44129 9.31607 3.87868 9.87868C3.31607 10.4413 3 11.2044 3 12V19C3 19.7957 3.31607 20.5587 3.87868 21.1213C4.44129 21.6839 5.20435 22 6 22H18C18.872 22 19.657 21.628 20.205 21.034L12.982 13.811C12.994 13.8733 13 13.9366 13 14V17C13 17.2652 12.8946 17.5196 12.7071 17.7071C12.5196 17.8946 12.2652 18 12 18C11.7348 18 11.4804 17.8946 11.2929 17.7071C11.1054 17.5196 11 17.2652 11 17V14C11 13.8526 11.0325 13.7069 11.0954 13.5736C11.1582 13.4402 11.2498 13.3223 11.3635 13.2285C11.4772 13.1346 11.6103 13.0671 11.7532 13.0307C11.8961 12.9943 12.0452 12.99 12.19 13.018L7 7.828ZM21 16.172V12C21 11.2044 20.6839 10.4413 20.1213 9.87868C19.5587 9.31607 18.7956 9 18 9H17V7C17 6.00079 16.7006 5.0245 16.1405 4.19706C15.5803 3.36963 14.7851 2.72899 13.8574 2.3578C12.9297 1.98661 11.9121 1.9019 10.9358 2.11457C9.95945 2.32725 9.06925 2.82758 8.38 3.551L9.795 4.966C10.2043 4.52234 10.7379 4.21247 11.3261 4.07687C11.9143 3.94128 12.5297 3.98627 13.0919 4.20598C13.6541 4.42568 14.137 4.80987 14.4774 5.30834C14.8178 5.80681 15 6.39638 15 7V9H13.828L21 16.172Z" fill="url(#paint0_linear_1380_26474)"/>
<path fill-rule="evenodd" clip-rule="evenodd" d="M7 7.828V9H6C5.20435 9 4.44129 9.31607 3.87868 9.87868C3.31607 10.4413 3 11.2044 3 12V19C3 19.7957 3.31607 20.5587 3.87868 21.1213C4.44129 21.6839 5.20435 22 6 22H18C18.872 22 19.657 21.628 20.205 21.034L12.982 13.811C12.994 13.8733 13 13.9366 13 14V17C13 17.2652 12.8946 17.5196 12.7071 17.7071C12.5196 17.8946 12.2652 18 12 18C11.7348 18 11.4804 17.8946 11.2929 17.7071C11.1054 17.5196 11 17.2652 11 17V14C11 13.8526 11.0325 13.7069 11.0954 13.5736C11.1582 13.4402 11.2498 13.3223 11.3635 13.2285C11.4772 13.1346 11.6103 13.0671 11.7532 13.0307C11.8961 12.9943 12.0452 12.99 12.19 13.018L7 7.828ZM21 16.172V12C21 11.2044 20.6839 10.4413 20.1213 9.87868C19.5587 9.31607 18.7956 9 18 9H17V7C17 6.00079 16.7006 5.0245 16.1405 4.19706C15.5803 3.36963 14.7851 2.72899 13.8574 2.3578C12.9297 1.98661 11.9121 1.9019 10.9358 2.11457C9.95945 2.32725 9.06925 2.82758 8.38 3.551L9.795 4.966C10.2043 4.52234 10.7379 4.21247 11.3261 4.07687C11.9143 3.94128 12.5297 3.98627 13.0919 4.20598C13.6541 4.42568 14.137 4.80987 14.4774 5.30834C14.8178 5.80681 15 6.39638 15 7V9H13.828L21 16.172Z" fill="url(#paint1_linear_1380_26474)"/>
<path fill-rule="evenodd" clip-rule="evenodd" d="M2.29289 2.29289C2.68342 1.90237 3.31658 1.90237 3.70711 2.29289L21.7071 20.2929C22.0976 20.6834 22.0976 21.3166 21.7071 21.7071C21.3166 22.0976 20.6834 22.0976 20.2929 21.7071L2.29289 3.70711C1.90237 3.31658 1.90237 2.68342 2.29289 2.29289Z" fill="url(#paint2_linear_1380_26474)"/>
<defs>
<linearGradient id="paint0_linear_1380_26474" x1="12" y1="2" x2="12" y2="22" gradientUnits="userSpaceOnUse">
<stop stop-color="#07080A"/>
<stop offset="1" stop-color="#1A1B1F"/>
</linearGradient>
<linearGradient id="paint1_linear_1380_26474" x1="22.3636" y1="53.6667" x2="-16.934" y2="-0.437477" gradientUnits="userSpaceOnUse">
<stop stop-color="#8375C2"/>
<stop offset="0.246488" stop-color="#8375C2"/>
<stop offset="0.483729" stop-color="#7569AC"/>
<stop offset="0.764806" stop-color="#8375C2"/>
<stop offset="1" stop-color="#8375C2"/>
</linearGradient>
<linearGradient id="paint2_linear_1380_26474" x1="23.5152" y1="53.6667" x2="-14.3365" y2="-4.23705" gradientUnits="userSpaceOnUse">
<stop stop-color="#8375C2"/>
<stop offset="0.246488" stop-color="#8375C2"/>
<stop offset="0.483729" stop-color="#7569AC"/>
<stop offset="0.764806" stop-color="#8375C2"/>
<stop offset="1" stop-color="#8375C2"/>
</linearGradient>
</defs>
</svg>
