<svg width="20" height="20" viewBox="0 0 20 20" fill="none" xmlns="http://www.w3.org/2000/svg"><path d="M10.073 8.2c.238 0 .387.037.517.107s.233.172.303.302c.07.13.107.28.107.517v6.148c0 .237-.037.386-.107.517a.727.727 0 0 1-.303.302c-.13.07-.28.107-.517.107h-.147c-.238 0-.387-.037-.517-.107a.727.727 0 0 1-.303-.302c-.07-.13-.106-.28-.106-.517V9.126c0-.237.037-.386.106-.517a.727.727 0 0 1 .303-.302c.13-.07.28-.107.517-.107h.147zM10 3.8a1.4 1.4 0 1 1 0 2.8 1.4 1.4 0 0 1 0-2.8z" fill="currentColor"></path></svg>