<svg width="10" height="10" viewBox="0 0 10 10" fill="none" xmlns="http://www.w3.org/2000/svg">
<path d="M8.36907 0.224375C8.76184 -0.095975 9.34084 -0.0733812 9.70696 0.292735C10.0731 0.658851 10.0957 1.23785 9.77532 1.63063L9.70696 1.7068L1.70696 9.7068C1.31643 10.0973 0.683418 10.0973 0.292893 9.7068C-0.0976311 9.31627 -0.0976311 8.68326 0.292893 8.29273L8.29289 0.292735L8.36907 0.224375Z" fill="white"/>
<path d="M9.77562 8.36907C10.096 8.76184 10.0734 9.34084 9.70726 9.70696C9.34115 10.0731 8.76215 10.0957 8.36937 9.77532L8.2932 9.70696L0.293203 1.70696C-0.097321 1.31643 -0.097321 0.683417 0.293203 0.292893C0.683728 -0.0976311 1.31674 -0.0976311 1.70727 0.292893L9.70726 8.29289L9.77562 8.36907Z" fill="white"/>
</svg>
