<svg width="18" height="18" viewBox="0 0 18 18" fill="none" xmlns="http://www.w3.org/2000/svg">
<path fill-rule="evenodd" clip-rule="evenodd" d="M9.04 1H8.95981C8.2666 1 7.68906 1 7.23104 1.06169C6.7468 1.12646 6.30959 1.26988 5.95875 1.62072C5.60713 1.97234 5.46371 2.40954 5.39894 2.89301C5.35499 3.22227 5.34188 4.008 5.3388 4.68193C3.77966 4.73359 2.8428 4.91557 2.19277 5.56636C1.28906 6.4693 1.28906 7.92357 1.28906 10.8313C1.28906 13.7391 1.28906 15.1933 2.19277 16.0963C3.09648 16.9992 4.54998 17 7.45774 17H10.5421C13.4498 17 14.9041 17 15.807 16.0963C16.71 15.1926 16.7107 13.7391 16.7107 10.8313C16.7107 7.92357 16.7107 6.4693 15.807 5.56636C15.157 4.91557 14.2201 4.73359 12.661 4.6827C12.6579 4.008 12.6456 3.22227 12.6009 2.89378C12.5361 2.40954 12.3927 1.97234 12.0411 1.62149C11.6902 1.26988 11.253 1.12646 10.7688 1.06169C10.3107 1 9.73244 1 9.04 1ZM11.5044 4.66419C11.5005 4.01108 11.4897 3.30863 11.455 3.04723C11.4065 2.69176 11.324 2.53908 11.2237 2.43884C11.1235 2.3386 10.9708 2.2561 10.6146 2.20752C10.2429 2.15817 9.74323 2.15663 8.99991 2.15663C8.25658 2.15663 7.75692 2.15817 7.38448 2.20829C7.02901 2.2561 6.87634 2.3386 6.7761 2.43961C6.67586 2.54063 6.59335 2.69176 6.54477 3.04723C6.51007 3.3094 6.49851 4.01108 6.49542 4.66419C6.79769 4.66265 7.11846 4.66214 7.45774 4.66265H10.5421C10.8824 4.66265 11.2032 4.66316 11.5044 4.66419ZM8.99991 7.16867C9.15328 7.16867 9.30038 7.2296 9.40884 7.33806C9.51729 7.44651 9.57822 7.59361 9.57822 7.74699V7.7547C10.4179 7.96598 11.1204 8.62834 11.1204 9.54593C11.1204 9.69931 11.0595 9.8464 10.951 9.95486C10.8425 10.0633 10.6955 10.1242 10.5421 10.1242C10.3887 10.1242 10.2416 10.0633 10.1331 9.95486C10.0247 9.8464 9.96376 9.69931 9.96376 9.54593C9.96376 9.24983 9.63528 8.83961 8.99991 8.83961C8.36453 8.83961 8.03605 9.24983 8.03605 9.54593C8.03605 9.84202 8.36453 10.253 8.99991 10.253C10.0679 10.253 11.1204 10.9933 11.1204 12.1167C11.1204 13.0343 10.4179 13.6959 9.57822 13.908V13.9157C9.57822 14.069 9.51729 14.2161 9.40884 14.3246C9.30038 14.433 9.15328 14.494 8.99991 14.494C8.84653 14.494 8.69943 14.433 8.59098 14.3246C8.48252 14.2161 8.42159 14.069 8.42159 13.9157V13.908C7.58188 13.6967 6.87942 13.0343 6.87942 12.1167C6.87942 11.9633 6.94035 11.8162 7.04881 11.7078C7.15726 11.5993 7.30436 11.5384 7.45774 11.5384C7.61112 11.5384 7.75821 11.5993 7.86667 11.7078C7.97512 11.8162 8.03605 11.9633 8.03605 12.1167C8.03605 12.4128 8.36453 12.823 8.99991 12.823C9.63528 12.823 9.96376 12.4128 9.96376 12.1167C9.96376 11.8206 9.63528 11.4096 8.99991 11.4096C7.93195 11.4096 6.87942 10.6694 6.87942 9.54593C6.87942 8.62834 7.58188 7.96598 8.42159 7.7547V7.74699C8.42159 7.59361 8.48252 7.44651 8.59098 7.33806C8.69943 7.2296 8.84653 7.16867 8.99991 7.16867Z" fill="#AFA8CC"/>
</svg>
