<svg width="48" height="48" viewBox="0 0 48 48" fill="none" xmlns="http://www.w3.org/2000/svg">
<path fill-rule="evenodd" clip-rule="evenodd" d="M18.5 8C18.5 4.96243 20.9624 2.5 24 2.5C27.0376 2.5 29.5 4.96243 29.5 8C29.5 11.0376 27.0376 13.5 24 13.5C20.9624 13.5 18.5 11.0376 18.5 8Z" fill="url(#paint0_linear_1380_33593)"/>
<path d="M16.4462 23.1482L12.0956 21.698C10.8441 21.2808 10 20.1097 10 18.7905C10 16.8394 11.7991 15.385 13.7069 15.7938L17.502 16.6071C17.7131 16.6523 17.8186 16.6749 17.9232 16.6965C21.932 17.5257 26.068 17.5257 30.0768 16.6965C30.1814 16.6749 30.2869 16.6523 30.498 16.6071L34.2931 15.7938C36.2009 15.385 38 16.8394 38 18.7905C38 20.1097 37.1559 21.2808 35.9044 21.698L31.5538 23.1482C31.0281 23.3235 30.7652 23.4111 30.5675 23.5331C29.8943 23.9487 29.5293 24.7221 29.6365 25.5059C29.6679 25.7361 29.7674 25.9947 29.9664 26.512L32.4599 32.9953C33.2022 34.9252 31.7776 36.9995 29.7099 36.9995C28.6525 36.9995 27.6763 36.4329 27.1517 35.5149L24 29.9995L20.8483 35.5149C20.3237 36.4329 19.3475 36.9995 18.2901 36.9995C16.2224 36.9995 14.7978 34.9252 15.5401 32.9953L18.0336 26.512C18.2326 25.9947 18.3321 25.7361 18.3635 25.5059C18.4707 24.7221 18.1057 23.9487 17.4325 23.5331C17.2348 23.4111 16.9719 23.3235 16.4462 23.1482Z" fill="url(#paint1_linear_1380_33593)"/>
<path d="M24 43.9997C35.0457 43.9997 44 39.9702 44 34.9997C44 31.556 39.7019 28.564 33.3879 27.0508L35.26 31.9181C36.758 35.813 33.883 39.9992 29.7099 39.9992C27.576 39.9992 25.6057 38.8557 24.5469 37.003L24 36.0459L23.4531 37.003C22.3944 38.8557 20.424 39.9992 18.2901 39.9992C14.117 39.9992 11.242 35.813 12.74 31.9181L14.6121 27.0508C8.29813 28.564 4 31.556 4 34.9997C4 39.9702 12.9543 43.9997 24 43.9997Z" fill="url(#paint2_linear_1380_33593)"/>
<defs>
<linearGradient id="paint0_linear_1380_33593" x1="24" y1="2.5" x2="24" y2="43.9997" gradientUnits="userSpaceOnUse">
<stop stop-color="#F6F4FE"/>
<stop offset="1" stop-color="#A19ABF"/>
</linearGradient>
<linearGradient id="paint1_linear_1380_33593" x1="24" y1="2.5" x2="24" y2="43.9997" gradientUnits="userSpaceOnUse">
<stop stop-color="#F6F4FE"/>
<stop offset="1" stop-color="#A19ABF"/>
</linearGradient>
<linearGradient id="paint2_linear_1380_33593" x1="24" y1="2.5" x2="24" y2="43.9997" gradientUnits="userSpaceOnUse">
<stop stop-color="#F6F4FE"/>
<stop offset="1" stop-color="#A19ABF"/>
</linearGradient>
</defs>
</svg>
