<svg width="21" height="20" viewBox="0 0 21 20" fill="none" xmlns="http://www.w3.org/2000/svg">
<path fill-rule="evenodd" clip-rule="evenodd" d="M2.16406 1.04102C1.81888 1.04102 1.53906 1.32084 1.53906 1.66602C1.53906 2.01119 1.81888 2.29102 2.16406 2.29102H3.83073V8.74935C3.83073 11.3028 3.83073 12.5795 4.66757 13.3728C5.5044 14.166 6.85127 14.166 9.54501 14.166H9.8724V17.1131L8.55122 17.7737C8.24248 17.928 8.11734 18.3035 8.27171 18.6122C8.42608 18.9209 8.8015 19.0461 9.11024 18.8917L10.4974 18.1981L11.8846 18.8917C12.1933 19.0461 12.5687 18.9209 12.7231 18.6122C12.8774 18.3035 12.7523 17.928 12.4436 17.7737L11.1224 17.1131V14.166H11.4498C14.1435 14.166 15.4904 14.166 16.3272 13.3728C17.1641 12.5795 17.1641 11.3028 17.1641 8.74936V2.29102H18.8307C19.1759 2.29102 19.4557 2.01119 19.4557 1.66602C19.4557 1.32084 19.1759 1.04102 18.8307 1.04102H2.16406ZM13.4393 6.64074C13.6834 6.88482 13.6834 7.28055 13.4393 7.52462L12.3416 8.62234C12.2208 8.74325 12.0902 8.874 11.965 8.96948C11.8184 9.08134 11.6086 9.20176 11.3307 9.20176C11.0528 9.20176 10.843 9.08134 10.6964 8.96948C10.5713 8.874 10.4406 8.74325 10.3198 8.62234L9.81138 8.11388C9.75299 8.0555 9.70565 8.00819 9.66406 7.96793C9.62248 8.00819 9.57513 8.0555 9.51675 8.11388L8.43934 9.19129C8.19526 9.43537 7.79953 9.43537 7.55545 9.19129C7.31138 8.94721 7.31138 8.55148 7.55545 8.30741L8.65316 7.20969C8.77398 7.08878 8.90462 6.95804 9.02977 6.86255C9.17638 6.75069 9.38617 6.63027 9.66406 6.63027C9.94195 6.63027 10.1517 6.75069 10.2984 6.86255C10.4235 6.95802 10.5541 7.08875 10.6749 7.20964L11.1834 7.71815C11.2418 7.77653 11.2891 7.82384 11.3307 7.86411C11.3723 7.82384 11.4197 7.77653 11.478 7.71815L12.5555 6.64074C12.7995 6.39666 13.1953 6.39666 13.4393 6.64074Z" fill="#928F9F"/>
</svg>
