<svg width="18" height="18" viewBox="0 0 18 18" fill="none" xmlns="http://www.w3.org/2000/svg">
<g clip-path="url(#clip0_1380_37885)">
<path fill-rule="evenodd" clip-rule="evenodd" d="M8.50145 2.03662C8.46222 1.9674 8.40533 1.90982 8.33658 1.86976C8.26783 1.8297 8.18969 1.80859 8.11012 1.80859C8.03056 1.80859 7.95241 1.8297 7.88367 1.86976C7.81492 1.90982 7.75803 1.9674 7.7188 2.03662L0.0587162 15.5198C0.0198695 15.5882 -0.000373771 15.6655 5.2255e-06 15.7442C0.000384222 15.8228 0.0213723 15.9 0.0608762 15.968C0.10038 16.036 0.157019 16.0924 0.225146 16.1317C0.293272 16.171 0.370505 16.1917 0.449142 16.1918H15.7711C15.8498 16.1918 15.9272 16.1712 15.9954 16.132C16.0637 16.0928 16.1204 16.0364 16.16 15.9684C16.1997 15.9003 16.2207 15.8231 16.2211 15.7444C16.2216 15.6657 16.2013 15.5882 16.1624 15.5198L14.1203 11.9259C13.3821 12.0096 12.6355 11.8746 11.9733 11.5376C11.3112 11.2007 10.7625 10.6767 10.3955 10.0307C10.0285 9.38469 9.85938 8.64512 9.90904 7.90381C9.9587 7.1625 10.225 6.4521 10.6749 5.86081L8.50145 2.03662ZM7.42643 8.32031C7.42643 8.14137 7.49751 7.96976 7.62404 7.84323C7.75057 7.7167 7.92219 7.64562 8.10113 7.64562C8.28007 7.64562 8.45168 7.7167 8.57821 7.84323C8.70474 7.96976 8.77583 8.14137 8.77583 8.32031V10.5693C8.77583 10.7483 8.70474 10.9199 8.57821 11.0464C8.45168 11.1729 8.28007 11.244 8.10113 11.244C7.92219 11.244 7.75057 11.1729 7.62404 11.0464C7.49751 10.9199 7.42643 10.7483 7.42643 10.5693V8.32031ZM8.77583 12.1436V13.493H7.42643V12.1436H8.77583Z" fill="#AFA8CC"/>
<path fill-rule="evenodd" clip-rule="evenodd" d="M11.1771 6.737C10.9321 7.17059 10.8038 7.66033 10.8047 8.15836C10.8034 8.65989 10.9328 9.15311 11.1799 9.58951C11.4271 10.0259 11.7836 10.3905 12.2143 10.6473C12.6451 10.9042 13.1353 11.0445 13.6367 11.0545C14.1382 11.0645 14.6336 10.9437 15.0742 10.7042L16.2482 11.8776C16.5711 12.2004 17.0946 12.2003 17.4175 11.8775C17.7405 11.5544 17.7404 11.0307 17.4173 10.7078L16.2428 9.53385C16.6137 8.8621 16.7025 8.07054 16.4898 7.33328C16.277 6.59603 15.7801 5.97349 15.1084 5.6026C14.4366 5.23172 13.6451 5.14287 12.9078 5.35561C12.1706 5.56835 11.548 6.06525 11.1771 6.737ZM14.9375 8.15836C14.9375 8.48714 14.8068 8.80245 14.5744 9.03492C14.3419 9.2674 14.0266 9.39801 13.6978 9.39801C13.369 9.39801 13.0537 9.2674 12.8212 9.03492C12.5888 8.80245 12.4582 8.48714 12.4582 8.15836C12.4582 7.82959 12.5888 7.51428 12.8212 7.2818C13.0537 7.04932 13.369 6.91871 13.6978 6.91871C14.0266 6.91871 14.3419 7.04932 14.5744 7.2818C14.8068 7.51428 14.9375 7.82959 14.9375 8.15836Z" fill="#AFA8CC"/>
</g>
<defs>
<clipPath id="clip0_1380_37885">
<rect width="18" height="18" fill="white"/>
</clipPath>
</defs>
</svg>
