<svg width="48" height="48" viewBox="0 0 48 48" fill="none" xmlns="http://www.w3.org/2000/svg">
<path fill-rule="evenodd" clip-rule="evenodd" d="M5.54817 24.9628C6.14066 25.556 6.14007 26.5171 5.54687 27.1096L5.23557 27.4205C4.96967 27.6861 4.96967 28.1159 5.23557 28.3815C5.50249 28.6481 5.93603 28.6481 6.20295 28.3815L9.62719 24.9615C10.2204 24.369 11.1816 24.3696 11.7741 24.9628C12.3666 25.556 12.366 26.5171 11.7728 27.1096L8.34852 30.5297C6.89621 31.9802 4.54231 31.9802 3.09 30.5297C1.63667 29.0781 1.63667 26.7239 3.09 25.2724L3.40129 24.9615C3.9945 24.369 4.95569 24.3696 5.54817 24.9628ZM15.3733 26.9793C15.9661 27.5721 15.9661 28.5333 15.3733 29.1261L11.0885 33.4109C10.4956 34.0038 9.53445 34.0038 8.94161 33.4109C8.34876 32.8181 8.34876 31.8569 8.94161 31.2641L13.2264 26.9793C13.8193 26.3865 14.7805 26.3865 15.3733 26.9793ZM20.9916 32.5907C21.5845 33.1835 21.5845 34.1447 20.9916 34.7376L16.7361 38.993C16.1432 39.5859 15.1821 39.5859 14.5892 38.993C13.9964 38.4002 13.9964 37.439 14.5892 36.8462L18.8447 32.5907C19.4376 31.9979 20.3988 31.9979 20.9916 32.5907ZM14.5944 33.3919C15.1806 33.9913 15.1699 34.9524 14.5705 35.5386L11.1102 38.9228C10.5108 39.509 9.54962 39.4983 8.96341 38.8989C8.3772 38.2995 8.3879 37.3384 8.9873 36.7522L12.4476 33.368C13.047 32.7818 14.0082 32.7925 14.5944 33.3919ZM22.9622 36.2361C23.5547 36.8293 23.5541 37.7904 22.9609 38.3829L19.5367 41.803C19.2708 42.0685 19.2708 42.4984 19.5367 42.7639C19.8036 43.0305 20.2371 43.0305 20.5041 42.7639L20.8154 42.453C21.4086 41.8605 22.3697 41.8611 22.9622 42.4543C23.5547 43.0475 23.5541 44.0087 22.9609 44.6012L22.6496 44.9121C21.1973 46.3626 18.8434 46.3626 17.3911 44.9121C15.9378 43.4606 15.9378 41.1064 17.3911 39.6548L20.8154 36.2348C21.4086 35.6423 22.3697 35.6429 22.9622 36.2361Z" fill="url(#paint0_linear_1380_33493)"/>
<path d="M21.6927 10.8182L17.3173 15.1805C16.513 15.9823 15.7753 16.7178 15.1926 17.3826C14.8185 17.8096 14.4446 18.2769 14.1279 18.7933L14.0852 18.7508C14.0043 18.6701 13.9638 18.6297 13.9232 18.5903C13.1627 17.8524 12.2681 17.2657 11.2874 16.8617C11.235 16.8401 11.1818 16.819 11.0754 16.7768L10.4239 16.5187C9.54138 16.169 9.30618 15.0329 9.97771 14.3634C11.905 12.442 14.219 10.135 15.3357 9.67168C16.3206 9.26304 17.3845 9.12708 18.4106 9.27872C19.3508 9.41766 20.2402 9.90059 21.6927 10.8182Z" fill="url(#paint1_linear_1380_33493)"/>
<path d="M29.1636 33.7865C29.5162 34.1443 29.7504 34.3971 29.9621 34.6671C30.2414 35.0236 30.4911 35.4021 30.7088 35.799C30.9539 36.2458 31.1441 36.723 31.5247 37.6775C31.8344 38.4546 32.8635 38.66 33.4612 38.064L33.6058 37.9199C35.533 35.9984 37.8469 33.6914 38.3117 32.578C38.7215 31.5961 38.8579 30.5354 38.7058 29.5124C38.5665 28.5752 38.0822 27.6886 37.162 26.2408L32.772 30.6176C31.9495 31.4376 31.1954 32.1895 30.5133 32.7786C30.1046 33.1315 29.6574 33.4844 29.1636 33.7865Z" fill="url(#paint2_linear_1380_33493)"/>
<path fill-rule="evenodd" clip-rule="evenodd" d="M31.0045 28.7348L41.0639 18.7058C42.5126 17.2614 43.2369 16.5393 43.6185 15.6209C44 14.7026 44 13.6813 44 11.6387V10.6629C44 7.52199 44 5.95152 43.0213 4.97576C42.0426 4 40.4674 4 37.317 4H36.3382C34.2895 4 33.2651 4 32.344 4.38039C31.4229 4.76078 30.6985 5.48294 29.2498 6.92727L19.1904 16.9563C17.4976 18.644 16.448 19.6905 16.0416 20.7012C15.9131 21.0206 15.8489 21.3364 15.8489 21.6677C15.8489 23.0477 16.9628 24.1582 19.1904 26.3791L19.4898 26.6776L22.9971 23.1181C23.4972 22.6105 24.3142 22.6045 24.8218 23.1046C25.3295 23.6048 25.3355 24.4218 24.8354 24.9294L21.3174 28.4997L21.5533 28.7348C23.7809 30.9558 24.8948 32.0663 26.2789 32.0663C26.5847 32.0663 26.8773 32.0121 27.1717 31.9036C28.2096 31.5213 29.269 30.4651 31.0045 28.7348ZM35.7304 16.9571C34.4254 18.2581 32.3097 18.2581 31.0047 16.9571C29.6998 15.6561 29.6998 13.5467 31.0047 12.2457C32.3097 10.9447 34.4254 10.9447 35.7304 12.2457C37.0353 13.5467 37.0353 15.6561 35.7304 16.9571Z" fill="url(#paint3_linear_1380_33493)"/>
<defs>
<linearGradient id="paint0_linear_1380_33493" x1="23" y1="4" x2="23" y2="46" gradientUnits="userSpaceOnUse">
<stop stop-color="#F6F4FE"/>
<stop offset="1" stop-color="#A19ABF"/>
</linearGradient>
<linearGradient id="paint1_linear_1380_33493" x1="23" y1="4" x2="23" y2="46" gradientUnits="userSpaceOnUse">
<stop stop-color="#F6F4FE"/>
<stop offset="1" stop-color="#A19ABF"/>
</linearGradient>
<linearGradient id="paint2_linear_1380_33493" x1="23" y1="4" x2="23" y2="46" gradientUnits="userSpaceOnUse">
<stop stop-color="#F6F4FE"/>
<stop offset="1" stop-color="#A19ABF"/>
</linearGradient>
<linearGradient id="paint3_linear_1380_33493" x1="23" y1="4" x2="23" y2="46" gradientUnits="userSpaceOnUse">
<stop stop-color="#F6F4FE"/>
<stop offset="1" stop-color="#A19ABF"/>
</linearGradient>
</defs>
</svg>
