<svg width="49" height="49" viewBox="0 0 49 49" fill="none" xmlns="http://www.w3.org/2000/svg">
<g filter="url(#filter0_i_1380_34142)">
<path fill-rule="evenodd" clip-rule="evenodd" d="M6.36165 24.9763C6.95429 25.5697 6.95371 26.5312 6.36034 27.1238L6.04896 27.4348C5.78299 27.7004 5.78299 28.1304 6.04896 28.396C6.31596 28.6627 6.74961 28.6627 7.0166 28.396L10.4418 24.975C11.0352 24.3824 11.9966 24.383 12.5893 24.9763C13.1819 25.5697 13.1813 26.5312 12.588 27.1238L9.16277 30.5448C7.71006 31.9957 5.35551 31.9957 3.9028 30.5448C2.44907 29.0928 2.44907 26.738 3.9028 25.286L4.21418 24.975C4.80755 24.3824 5.769 24.383 6.36165 24.9763ZM16.1895 26.9934C16.7825 27.5864 16.7825 28.5479 16.1895 29.1409L11.9035 33.4268C11.3105 34.0198 10.349 34.0198 9.75602 33.4268C9.16301 32.8338 9.16301 31.8724 9.75602 31.2794L14.042 26.9934C14.635 26.4004 15.5965 26.4004 16.1895 26.9934ZM21.8093 32.6064C22.4023 33.1994 22.4023 34.1608 21.8093 34.7538L17.5526 39.0105C16.9596 39.6035 15.9982 39.6035 15.4052 39.0105C14.8122 38.4175 14.8122 37.456 15.4052 36.863L19.6619 32.6064C20.2549 32.0134 21.2163 32.0134 21.8093 32.6064ZM15.4103 33.4078C15.9967 34.0074 15.986 34.9688 15.3865 35.5551L11.9252 38.9402C11.3256 39.5266 10.3642 39.5159 9.77783 38.9163C9.19145 38.3167 9.20215 37.3554 9.80172 36.769L13.263 33.3839C13.8626 32.7976 14.824 32.8083 15.4103 33.4078ZM23.7805 36.2528C24.3731 36.8461 24.3726 37.8076 23.7792 38.4002L20.354 41.8212C20.088 42.0868 20.088 42.5168 20.354 42.7824C20.621 43.0491 21.0547 43.0491 21.3216 42.7824L21.633 42.4714C22.2264 41.8788 23.1879 41.8794 23.7805 42.4727C24.3731 43.0661 24.3726 44.0275 23.7792 44.6202L23.4678 44.9312C22.0151 46.3821 19.6606 46.3821 18.2078 44.9312C16.7541 43.4792 16.7541 41.1244 18.2078 39.6724L21.633 36.2514C22.2264 35.6588 23.1879 35.6594 23.7805 36.2528Z" fill="#7F71BD"/>
<path d="M22.5106 10.8279L18.134 15.1914C17.3295 15.9934 16.5915 16.7291 16.0088 17.3941C15.6345 17.8212 15.2605 18.2887 14.9437 18.8052L14.9011 18.7627C14.8201 18.682 14.7796 18.6416 14.739 18.6021C13.9782 17.864 13.0834 17.2772 12.1024 16.873C12.05 16.8514 11.9968 16.8303 11.8904 16.7882L11.2387 16.53C10.356 16.1802 10.1207 15.0437 10.7924 14.3741C12.7202 12.4521 15.0348 10.1445 16.1519 9.68105C17.137 9.2723 18.2012 9.1363 19.2276 9.28798C20.1681 9.42696 21.0577 9.91003 22.5106 10.8279Z" fill="#7F71BD"/>
<path d="M29.9836 33.8025C30.3363 34.1604 30.5705 34.4133 30.7822 34.6834C31.0617 35.0399 31.3115 35.4186 31.5292 35.8155C31.7744 36.2624 31.9647 36.7398 32.3453 37.6946C32.6551 38.4719 33.6845 38.6773 34.2823 38.0812L34.4269 37.937C36.3547 36.015 38.6693 33.7074 39.1341 32.5937C39.5441 31.6115 39.6805 30.5505 39.5284 29.5272C39.389 28.5897 38.9046 27.7029 37.9842 26.2547L33.5929 30.6327C32.7702 31.453 32.0159 32.2051 31.3337 32.7943C30.9248 33.1474 30.4775 33.5003 29.9836 33.8025Z" fill="#7F71BD"/>
<path fill-rule="evenodd" clip-rule="evenodd" d="M31.825 28.7494L41.8871 18.7176C43.3362 17.2729 44.0608 16.5505 44.4424 15.6319C44.8241 14.7134 44.8241 13.6918 44.8241 11.6487V10.6726C44.8241 7.53077 44.8241 5.95987 43.8451 4.98384C42.8661 4.00781 41.2905 4.00781 38.1392 4.00781H37.1602C35.1108 4.00781 34.0862 4.00781 33.1648 4.38831C32.2434 4.7688 31.5189 5.49116 30.0698 6.93589L20.0077 16.9677C18.3144 18.6559 17.2645 19.7026 16.8579 20.7137C16.7295 21.0331 16.6652 21.349 16.6652 21.6804C16.6652 23.0607 17.7794 24.1715 20.0077 26.3931L20.3072 26.6917L23.8153 23.1312C24.3156 22.6234 25.1329 22.6174 25.6406 23.1177C26.1484 23.618 26.1544 24.4352 25.6541 24.943L22.1353 28.5143L22.3711 28.7494C24.5994 30.971 25.7136 32.0818 27.0981 32.0818C27.404 32.0818 27.6967 32.0276 27.9911 31.9191C29.0293 31.5367 30.089 30.4802 31.825 28.7494ZM36.5521 16.9684C35.2468 18.2698 33.1305 18.2698 31.8252 16.9684C30.5199 15.6671 30.5199 13.5571 31.8252 12.2558C33.1305 10.9544 35.2468 10.9544 36.5521 12.2558C37.8574 13.5571 37.8574 15.6671 36.5521 16.9684Z" fill="#7F71BD"/>
</g>
<defs>
<filter id="filter0_i_1380_34142" x="2.8125" y="4.00781" width="42.0117" height="42.779" filterUnits="userSpaceOnUse" color-interpolation-filters="sRGB">
<feFlood flood-opacity="0" result="BackgroundImageFix"/>
<feBlend mode="normal" in="SourceGraphic" in2="BackgroundImageFix" result="shape"/>
<feColorMatrix in="SourceAlpha" type="matrix" values="0 0 0 0 0 0 0 0 0 0 0 0 0 0 0 0 0 0 127 0" result="hardAlpha"/>
<feOffset dy="0.767248"/>
<feGaussianBlur stdDeviation="0.383624"/>
<feComposite in2="hardAlpha" operator="arithmetic" k2="-1" k3="1"/>
<feColorMatrix type="matrix" values="0 0 0 0 1 0 0 0 0 1 0 0 0 0 1 0 0 0 0.23 0"/>
<feBlend mode="normal" in2="shape" result="effect1_innerShadow_1380_34142"/>
</filter>
</defs>
</svg>
