<svg width="48" height="48" viewBox="0 0 48 48" fill="none" xmlns="http://www.w3.org/2000/svg">
<path d="M23.5 24C23.5 21.5147 25.5147 19.5 28 19.5C30.4853 19.5 32.5 21.5147 32.5 24C32.5 26.4853 30.4853 28.5 28 28.5C25.5147 28.5 23.5 26.4853 23.5 24Z" fill="url(#paint0_linear_1380_33568)"/>
<path fill-rule="evenodd" clip-rule="evenodd" d="M6.92893 6.92893C4 9.85786 4 14.5719 4 24C4 33.4281 4 38.1421 6.92893 41.0711C9.85786 44 14.5719 44 24 44C33.4281 44 38.1421 44 41.0711 41.0711C44 38.1421 44 33.4281 44 24C44 14.5719 44 9.85786 41.0711 6.92893C38.1421 4 33.4281 4 24 4C14.5719 4 9.85786 4 6.92893 6.92893ZM13.5 14C13.5 13.1716 12.8284 12.5 12 12.5C11.1716 12.5 10.5 13.1716 10.5 14L10.5 34C10.5 34.8284 11.1716 35.5 12 35.5C12.8284 35.5 13.5 34.8284 13.5 34L13.5 14ZM21.0607 14.9393C20.4749 14.3536 19.5251 14.3536 18.9393 14.9393C18.3536 15.5251 18.3536 16.4749 18.9393 17.0607L21.7426 19.8639C20.9573 21.0496 20.5 22.4714 20.5 24C20.5 25.5286 20.9573 26.9504 21.7426 28.1361L18.9393 30.9393C18.3536 31.5251 18.3536 32.4749 18.9393 33.0607C19.5251 33.6464 20.4749 33.6464 21.0607 33.0607L23.8639 30.2574C25.0496 31.0427 26.4714 31.5 28 31.5C29.5286 31.5 30.9504 31.0427 32.1361 30.2574L34.9393 33.0607C35.5251 33.6464 36.4749 33.6464 37.0607 33.0607C37.6464 32.4749 37.6464 31.5251 37.0607 30.9393L34.2574 28.1361C35.0427 26.9504 35.5 25.5286 35.5 24C35.5 22.4714 35.0427 21.0496 34.2574 19.8639L37.0607 17.0607C37.6464 16.4749 37.6464 15.5251 37.0607 14.9393C36.4749 14.3536 35.5251 14.3536 34.9393 14.9393L32.1361 17.7426C30.9504 16.9573 29.5286 16.5 28 16.5C26.4714 16.5 25.0496 16.9573 23.8639 17.7426L21.0607 14.9393Z" fill="url(#paint1_linear_1380_33568)"/>
<defs>
<linearGradient id="paint0_linear_1380_33568" x1="24" y1="4" x2="24" y2="44" gradientUnits="userSpaceOnUse">
<stop stop-color="#F6F4FE"/>
<stop offset="1" stop-color="#A19ABF"/>
</linearGradient>
<linearGradient id="paint1_linear_1380_33568" x1="24" y1="4" x2="24" y2="44" gradientUnits="userSpaceOnUse">
<stop stop-color="#F6F4FE"/>
<stop offset="1" stop-color="#A19ABF"/>
</linearGradient>
</defs>
</svg>
