<svg width="24" height="25" viewBox="0 0 24 25" fill="none" xmlns="http://www.w3.org/2000/svg">
<path fill-rule="evenodd" clip-rule="evenodd" d="M3.37752 5.58241C3 6.12028 3 7.71907 3 10.9167V12.4914C3 18.1294 7.23896 20.8655 9.89856 22.0273C10.62 22.3424 10.9807 22.5 12 22.5C13.0193 22.5 13.38 22.3424 14.1014 22.0273C16.761 20.8655 21 18.1294 21 12.4914V10.9167C21 7.71907 21 6.12028 20.6225 5.58241C20.245 5.04454 18.7417 4.52996 15.7351 3.50079L15.1623 3.30472C13.595 2.76824 12.8114 2.5 12 2.5C11.1886 2.5 10.405 2.76824 8.83772 3.30472L8.26491 3.50079C5.25832 4.52996 3.75503 5.04454 3.37752 5.58241ZM15.0595 10.9995C15.3353 10.6905 15.3085 10.2164 14.9995 9.94055C14.6905 9.66467 14.2164 9.69151 13.9405 10.0005L10.9286 13.3739L10.0595 12.4005C9.78358 12.0915 9.30947 12.0647 9.00049 12.3405C8.69151 12.6164 8.66467 13.0905 8.94055 13.3995L10.3691 14.9995C10.5114 15.1589 10.7149 15.25 10.9286 15.25C11.1422 15.25 11.3457 15.1589 11.488 14.9995L15.0595 10.9995Z" fill="#8375C2"/>
</svg>
