<svg width="49" height="48" viewBox="0 0 49 48" fill="none" xmlns="http://www.w3.org/2000/svg">
<path fill-rule="evenodd" clip-rule="evenodd" d="M7.08706 10.1648C6.33203 11.2406 6.33203 14.4381 6.33203 20.8333V23.9827C6.33203 35.2589 14.81 40.731 20.1292 43.0545C21.5721 43.6848 22.2935 44 24.332 44C26.3706 44 27.092 43.6849 28.5349 43.0546C33.8541 40.731 42.332 35.2589 42.332 23.9827V20.8333C42.332 14.4381 42.332 11.2406 41.577 10.1648C40.822 9.08908 37.8154 8.05991 31.8022 6.00159L30.6566 5.60943C27.5221 4.53648 25.9548 4 24.332 4C22.7093 4 21.142 4.53648 18.0075 5.60943L16.8619 6.00158C10.8487 8.05991 7.84209 9.08908 7.08706 10.1648ZM30.4509 20.999C31.0027 20.3811 30.949 19.4328 30.3311 18.8811C29.7131 18.3293 28.7649 18.383 28.2131 19.001L22.1892 25.7478L20.4509 23.801C19.8992 23.183 18.951 23.1293 18.333 23.6811C17.7151 24.2328 17.6614 25.1811 18.2131 25.799L21.0703 28.999C21.3549 29.3178 21.7619 29.5 22.1892 29.5C22.6165 29.5 23.0235 29.3178 23.3081 28.999L30.4509 20.999Z" fill="url(#paint0_linear_1380_41850)"/>
<defs>
<linearGradient id="paint0_linear_1380_41850" x1="24.332" y1="4" x2="24.332" y2="44" gradientUnits="userSpaceOnUse">
<stop stop-color="#F6F4FE"/>
<stop offset="1" stop-color="#A19ABF"/>
</linearGradient>
</defs>
</svg>
