<svg width="28" height="28" viewBox="0 0 28 28" fill="none" xmlns="http://www.w3.org/2000/svg">
<path d="M5.9727 12.9698C5.69998 13.2437 5.54687 13.6146 5.54687 14.0011C5.54687 14.3877 5.69998 14.7585 5.9727 15.0324L11.806 20.8658C11.9415 21.0012 12.1023 21.1086 12.2792 21.1819C12.4562 21.2552 12.6458 21.293 12.8374 21.293C13.2242 21.293 13.5952 21.1393 13.8687 20.8658C14.1422 20.5922 14.2959 20.2213 14.2959 19.8344C14.2959 19.4476 14.1422 19.0766 13.8687 18.8031L10.525 15.4594L21.004 15.4594C21.3908 15.4594 21.7617 15.3058 22.0352 15.0323C22.3087 14.7588 22.4624 14.3879 22.4624 14.0011C22.4624 13.6143 22.3087 13.2434 22.0352 12.9699C21.7617 12.6964 21.3908 12.5428 21.004 12.5428L10.525 12.5428L13.8687 9.19911C14.0041 9.06367 14.1116 8.90289 14.1849 8.72593C14.2582 8.54897 14.2959 8.35931 14.2959 8.16778C14.2959 7.97624 14.2582 7.78658 14.1849 7.60962C14.1116 7.43267 14.0041 7.27188 13.8687 7.13644C13.7333 7.00101 13.5725 6.89357 13.3955 6.82027C13.2186 6.74698 13.0289 6.70925 12.8374 6.70925C12.6458 6.70925 12.4562 6.74698 12.2792 6.82027C12.1023 6.89357 11.9415 7.00101 11.806 7.13644L5.9727 12.9698Z" fill="black"/>
</svg>
