<svg width="28" height="28" viewBox="0 0 28 28" fill="none" xmlns="http://www.w3.org/2000/svg">
<path d="M22.0351 15.0322C22.3078 14.7582 22.4609 14.3874 22.4609 14.0008C22.4609 13.6143 22.3078 13.2435 22.0351 12.9695L16.2018 7.13618C16.0663 7.00074 15.9056 6.89331 15.7286 6.82001C15.5516 6.74671 15.362 6.70898 15.1704 6.70898C14.7836 6.70898 14.4126 6.86265 14.1391 7.13618C13.8656 7.4097 13.7119 7.78068 13.7119 8.16751C13.7119 8.55433 13.8656 8.92532 14.1391 9.19884L17.4828 12.5425L7.00378 12.5425C6.617 12.5425 6.24607 12.6962 5.97258 12.9696C5.69909 13.2431 5.54544 13.6141 5.54544 14.0008C5.54544 14.3876 5.69909 14.7585 5.97258 15.032C6.24607 15.3055 6.617 15.4592 7.00378 15.4592L17.4828 15.4592L14.1391 18.8028C14.0037 18.9383 13.8962 19.0991 13.8229 19.276C13.7496 19.453 13.7119 19.6426 13.7119 19.8342C13.7119 20.0257 13.7496 20.2154 13.8229 20.3923C13.8962 20.5693 14.0037 20.7301 14.1391 20.8655C14.2745 21.0009 14.4353 21.1084 14.6123 21.1817C14.7892 21.255 14.9789 21.2927 15.1704 21.2927C15.362 21.2927 15.5516 21.255 15.7286 21.1817C15.9056 21.1084 16.0663 21.0009 16.2018 20.8655L22.0351 15.0322Z" fill="black"/>
</svg>
