<svg width="18" height="18" viewBox="0 0 18 18" fill="none" xmlns="http://www.w3.org/2000/svg">
<path d="M9.00103 0.5C13.3057 0.5 16.795 3.98937 16.795 8.294C16.795 12.5986 13.3057 16.088 9.00103 16.088C4.69641 16.088 1.20703 12.5986 1.20703 8.294C1.20703 3.98937 4.69641 0.5 9.00103 0.5ZM9.00103 3.6176C8.79432 3.6176 8.59608 3.69972 8.44991 3.84588C8.30375 3.99205 8.22163 4.19029 8.22163 4.397V8.294C8.22168 8.50069 8.30382 8.6989 8.45 8.84504L10.7882 11.1832C10.9352 11.3252 11.1321 11.4038 11.3364 11.402C11.5408 11.4002 11.7363 11.3182 11.8808 11.1737C12.0253 11.0292 12.1072 10.8338 12.109 10.6294C12.1108 10.425 12.0322 10.2282 11.8903 10.0812L9.78043 7.97133V4.397C9.78043 4.19029 9.69832 3.99205 9.55215 3.84588C9.40598 3.69972 9.20774 3.6176 9.00103 3.6176Z" fill="#AFA8CC"/>
</svg>
