<svg width="48" height="48" viewBox="0 0 48 48" fill="none" xmlns="http://www.w3.org/2000/svg">
<path d="M10.9338 8.78415C11.519 9.37052 11.518 10.3203 10.9317 10.9055C7.57445 14.256 5.5 18.8844 5.5 24.0001C5.5 29.1756 7.62327 33.8524 11.0501 37.2118C11.6416 37.7917 11.6511 38.7414 11.0711 39.333C10.4912 39.9246 9.54151 39.934 8.94993 39.3541C4.97128 35.4537 2.5 30.0141 2.5 24.0001C2.5 18.0557 4.91441 12.6723 8.81246 8.78203C9.39883 8.19683 10.3486 8.19778 10.9338 8.78415Z" fill="url(#paint0_linear_1380_41825)"/>
<path d="M37.2328 8.92892C37.8244 8.34898 38.7741 8.35842 39.354 8.95C43.1542 12.8265 45.5 18.1409 45.5 24.0001C45.5 29.9289 43.0982 35.2997 39.218 39.1876C38.6328 39.774 37.6831 39.7749 37.0967 39.1897C36.5103 38.6045 36.5094 37.6548 37.0946 37.0684C40.4364 33.72 42.5 29.1024 42.5 24.0001C42.5 18.9575 40.4845 14.3886 37.2117 11.0501C36.6318 10.4586 36.6412 9.50885 37.2328 8.92892Z" fill="url(#paint1_linear_1380_41825)"/>
<path d="M16.6185 14.9752C17.1845 15.5801 17.153 16.5293 16.5482 17.0954C14.6503 18.8713 13.5 21.3005 13.5 23.9645C13.5 26.6595 14.6774 29.1146 16.6151 30.8958C17.225 31.4564 17.265 32.4053 16.7043 33.0152C16.1437 33.6251 15.1948 33.6651 14.5849 33.1044C12.0793 30.8013 10.5 27.5649 10.5 23.9645C10.5 20.406 12.043 17.2026 14.4983 14.9049C15.1032 14.3388 16.0524 14.3703 16.6185 14.9752Z" fill="url(#paint2_linear_1380_41825)"/>
<path d="M31.4857 15.0512C32.0584 14.4526 33.0079 14.4315 33.6065 15.0041C36.001 17.2943 37.5 20.4572 37.5 23.9645C37.5 27.5137 35.9651 30.7097 33.5209 33.0061C32.9171 33.5734 31.9679 33.5438 31.4006 32.9401C30.8333 32.3363 30.8629 31.387 31.4667 30.8198C33.3556 29.045 34.5 26.6216 34.5 23.9645C34.5 21.3384 33.3823 18.941 31.5329 17.172C30.9342 16.5994 30.9131 15.6499 31.4857 15.0512Z" fill="url(#paint3_linear_1380_41825)"/>
<path d="M24 28.0001C26.2091 28.0001 28 26.2093 28 24.0001C28 21.791 26.2091 20.0001 24 20.0001C21.7909 20.0001 20 21.791 20 24.0001C20 26.2093 21.7909 28.0001 24 28.0001Z" fill="url(#paint4_linear_1380_41825)"/>
<defs>
<linearGradient id="paint0_linear_1380_41825" x1="24" y1="8.34375" x2="24" y2="39.7829" gradientUnits="userSpaceOnUse">
<stop stop-color="#F6F4FE"/>
<stop offset="1" stop-color="#A19ABF"/>
</linearGradient>
<linearGradient id="paint1_linear_1380_41825" x1="24" y1="8.34375" x2="24" y2="39.7829" gradientUnits="userSpaceOnUse">
<stop stop-color="#F6F4FE"/>
<stop offset="1" stop-color="#A19ABF"/>
</linearGradient>
<linearGradient id="paint2_linear_1380_41825" x1="24" y1="8.34375" x2="24" y2="39.7829" gradientUnits="userSpaceOnUse">
<stop stop-color="#F6F4FE"/>
<stop offset="1" stop-color="#A19ABF"/>
</linearGradient>
<linearGradient id="paint3_linear_1380_41825" x1="24" y1="8.34375" x2="24" y2="39.7829" gradientUnits="userSpaceOnUse">
<stop stop-color="#F6F4FE"/>
<stop offset="1" stop-color="#A19ABF"/>
</linearGradient>
<linearGradient id="paint4_linear_1380_41825" x1="24" y1="8.34375" x2="24" y2="39.7829" gradientUnits="userSpaceOnUse">
<stop stop-color="#F6F4FE"/>
<stop offset="1" stop-color="#A19ABF"/>
</linearGradient>
</defs>
</svg>
