<svg width="48" height="48" viewBox="0 0 48 48" fill="none" xmlns="http://www.w3.org/2000/svg">
<path fill-rule="evenodd" clip-rule="evenodd" d="M6.34315 6.34315C4 8.68629 4 12.4575 4 20V28C4 35.5425 4 39.3137 6.34315 41.6569C8.68629 44 12.4575 44 20 44H28C35.5425 44 39.3137 44 41.6569 41.6569C44 39.3137 44 35.5425 44 28V20C44 12.4575 44 8.68629 41.6569 6.34315C39.3137 4 35.5425 4 28 4H20C12.4575 4 8.68629 4 6.34315 6.34315ZM15.8259 17.434C16.1898 16.2301 16.8155 15.1864 17.4935 14.4671C18.2143 13.7024 18.7956 13.5 19.0453 13.5C19.6567 13.5 20.4774 13.8553 21.2261 15.5325C21.9834 17.2291 22.5002 19.9871 22.5002 24.0001C22.5002 28.1976 23.0299 31.4395 24.0345 33.6903C25.0478 35.9605 26.7044 37.5 28.9547 37.5C30.4028 37.5 31.7212 36.618 32.6896 35.5906C33.7008 34.5178 34.5539 33.0614 35.0458 31.434C35.2855 30.641 34.837 29.8039 34.044 29.5642C33.251 29.3245 32.4138 29.773 32.1741 30.566C31.8102 31.7699 31.1845 32.8136 30.5065 33.5329C29.7857 34.2976 29.2044 34.5 28.9547 34.5C28.3433 34.5 27.5226 34.1448 26.774 32.4676C26.0168 30.7711 25.5002 28.0131 25.5002 24.0001C25.5002 19.8026 24.9703 16.5606 23.9656 14.3097C22.9523 12.0396 21.2956 10.5 19.0453 10.5C17.5972 10.5 16.2788 11.382 15.3104 12.4094C14.2992 13.4822 13.4461 14.9386 12.9542 16.566C12.7145 17.359 13.163 18.1961 13.956 18.4358C14.749 18.6755 15.5862 18.227 15.8259 17.434ZM12 22.5C11.1716 22.5 10.5 23.1716 10.5 24C10.5 24.8284 11.1716 25.5 12 25.5H19C19.8284 25.5 20.5 24.8284 20.5 24C20.5 23.1716 19.8284 22.5 19 22.5H12ZM29 22.5C28.1716 22.5 27.5 23.1716 27.5 24C27.5 24.8284 28.1716 25.5 29 25.5H36C36.8284 25.5 37.5 24.8284 37.5 24C37.5 23.1716 36.8284 22.5 36 22.5H29Z" fill="url(#paint0_linear_1380_33518)"/>
<defs>
<linearGradient id="paint0_linear_1380_33518" x1="24" y1="4" x2="24" y2="44" gradientUnits="userSpaceOnUse">
<stop stop-color="#F6F4FE"/>
<stop offset="1" stop-color="#A19ABF"/>
</linearGradient>
</defs>
</svg>
