<svg width="152" height="32" viewBox="0 0 152 32" fill="none" xmlns="http://www.w3.org/2000/svg">
<path d="M10.9592 11.5878L6.93995 9.52131C6.77005 9.43396 6.76278 9.19375 6.92708 9.09628L17.8247 2.63147C17.9844 2.53673 17.9831 2.30513 17.8224 2.21219L14.1654 0.097663C14.0901 0.054158 13.9974 0.0541574 13.9222 0.0976623L0.121342 8.07748C0.0462478 8.1209 0 8.20107 0 8.28781V23.801C0 23.8877 0.0462481 23.9679 0.121342 24.0113L4.23288 26.3886C4.39485 26.4823 4.59745 26.3654 4.59745 26.1783V13.4915C4.59745 13.3044 4.80005 13.1875 4.96202 13.2811L8.49664 15.3249C8.57174 15.3683 8.61799 15.4485 8.61799 15.5352V28.6987C8.61799 28.7854 8.66424 28.8656 8.73933 28.909L13.9221 31.9058C13.9974 31.9493 14.0901 31.9493 14.1654 31.9058L27.8187 24.0113C27.8938 23.9679 27.94 23.8877 27.94 23.801V10.6927C27.94 10.5056 27.7374 10.3887 27.5754 10.4824L16.1168 17.1079C16.0417 17.1513 15.9955 17.2315 15.9955 17.3182V21.6543C15.9955 21.8414 16.1981 21.9583 16.3601 21.8647L23.0866 17.9753C23.2486 17.8816 23.4512 17.9985 23.4512 18.1856V20.9472C23.4512 21.0339 23.4049 21.1141 23.3299 21.1575L13.4715 26.8577C13.3095 26.9514 13.1069 26.8345 13.1069 26.6474V15.5352C13.1069 15.4485 13.1532 15.3683 13.2283 15.3249L26.6785 7.54782C26.8402 7.45427 26.8402 7.22071 26.6785 7.12717L22.9091 4.94766C22.8338 4.90415 22.7411 4.90415 22.6658 4.94766L11.1919 11.582C11.1204 11.6234 11.0327 11.6256 10.9592 11.5878Z" fill="#8375C2"/>
<path d="M10.9592 11.5878L6.93995 9.52131C6.77005 9.43396 6.76278 9.19375 6.92708 9.09628L17.8247 2.63147C17.9844 2.53673 17.9831 2.30513 17.8224 2.21219L14.1654 0.097663C14.0901 0.054158 13.9974 0.0541574 13.9222 0.0976623L0.121342 8.07748C0.0462478 8.1209 0 8.20107 0 8.28781V23.801C0 23.8877 0.0462481 23.9679 0.121342 24.0113L4.23288 26.3886C4.39485 26.4823 4.59745 26.3654 4.59745 26.1783V13.4915C4.59745 13.3044 4.80005 13.1875 4.96202 13.2811L8.49664 15.3249C8.57174 15.3683 8.61799 15.4485 8.61799 15.5352V28.6987C8.61799 28.7854 8.66424 28.8656 8.73933 28.909L13.9221 31.9058C13.9974 31.9493 14.0901 31.9493 14.1654 31.9058L27.8187 24.0113C27.8938 23.9679 27.94 23.8877 27.94 23.801V10.6927C27.94 10.5056 27.7374 10.3887 27.5754 10.4824L16.1168 17.1079C16.0417 17.1513 15.9955 17.2315 15.9955 17.3182V21.6543C15.9955 21.8414 16.1981 21.9583 16.3601 21.8647L23.0866 17.9753C23.2486 17.8816 23.4512 17.9985 23.4512 18.1856V20.9472C23.4512 21.0339 23.4049 21.1141 23.3299 21.1575L13.4715 26.8577C13.3095 26.9514 13.1069 26.8345 13.1069 26.6474V15.5352C13.1069 15.4485 13.1532 15.3683 13.2283 15.3249L26.6785 7.54782C26.8402 7.45427 26.8402 7.22071 26.6785 7.12717L22.9091 4.94766C22.8338 4.90415 22.7411 4.90415 22.6658 4.94766L11.1919 11.582C11.1204 11.6234 11.0327 11.6256 10.9592 11.5878Z" fill="url(#paint0_linear_2142_49344)"/>
<mask id="path-2-outside-1_2142_49344" maskUnits="userSpaceOnUse" x="35.8711" y="5.5" width="116" height="21" fill="black">
<rect fill="white" x="35.8711" y="5.5" width="116" height="21"/>
<path d="M42.3761 25.715C40.4049 25.715 38.9981 25.3701 38.1559 24.6802C37.3226 23.9813 36.8791 22.821 36.8253 21.1992C36.7805 20.2046 36.7492 19.0802 36.7313 17.8258C36.7223 16.5714 36.7223 15.3259 36.7313 14.0894C36.7492 12.844 36.7805 11.7374 36.8253 10.7697C36.8791 9.06735 37.3271 7.86223 38.1693 7.15439C39.0205 6.43759 40.4183 6.07919 42.3626 6.07919C44.2173 6.07919 45.5703 6.42863 46.4215 7.12751C47.2727 7.82639 47.7431 8.97775 47.8327 10.5816C47.8775 10.9938 47.8954 11.4642 47.8865 11.9928C47.8865 12.5125 47.8685 12.9829 47.8327 13.404H44.6877C44.7236 12.9202 44.7415 12.3512 44.7415 11.6971C44.7505 11.0341 44.7325 10.4606 44.6877 9.97679C44.6161 9.13455 43.841 8.71343 42.3626 8.71343C40.8125 8.71343 40.0151 9.13455 39.9703 9.97679C39.9076 11.1774 39.8673 12.4632 39.8493 13.8341C39.8314 15.205 39.8314 16.5758 39.8493 17.9467C39.8762 19.3176 39.9165 20.6034 39.9703 21.804C39.9882 22.2162 40.1898 22.5342 40.5751 22.7582C40.9604 22.9733 41.5607 23.0808 42.3761 23.0808C43.962 23.0808 44.8042 22.6552 44.9028 21.804C44.9207 21.4546 44.9297 21.0155 44.9297 20.4869C44.9297 19.9493 44.9207 19.5102 44.9028 19.1698H42.497V16.3608H47.9805C48.0164 17.0686 48.0343 17.8526 48.0343 18.7128C48.0343 19.573 48.0074 20.4018 47.9537 21.1992C47.8909 22.821 47.425 23.9813 46.5559 24.6802C45.6868 25.3701 44.2935 25.715 42.3761 25.715ZM53.4205 25.5H50.2755V6.30767H55.4231C57.3495 6.30767 58.7427 6.64815 59.6029 7.32911C60.472 8.01007 60.9424 9.13455 61.0141 10.7025C61.0768 11.4462 61.1037 12.0824 61.0947 12.611C61.0947 13.1397 61.0679 13.7624 61.0141 14.4792C60.9693 15.4738 60.7408 16.2846 60.3287 16.9118C59.9165 17.5301 59.2848 18.0005 58.4336 18.323L61.5651 25.5H58.2051L55.4365 18.8606H53.4205V25.5ZM53.4205 9.15695V16.0114H55.3827C56.2339 16.0114 56.8522 15.8949 57.2375 15.6619C57.6227 15.429 57.8333 15.093 57.8691 14.6539C57.9856 13.2741 57.9856 11.8987 57.8691 10.5278C57.8333 10.0798 57.6227 9.73935 57.2375 9.50639C56.8522 9.27343 56.2474 9.15695 55.4231 9.15695H53.4205ZM65.9971 25.5H62.7581L66.0105 6.30767H71.4672L74.7197 25.5H71.4941L70.8086 21.1992H66.696L65.9971 25.5ZM67.5696 14.1163L66.9782 18.3499H70.5129L69.935 14.1163L69.2361 9.15695H68.2685L67.5696 14.1163ZM79.4742 25.5H76.4233V6.30767H81.2751L82.8342 12.4229L84.7158 22.6507H85.455L84.8771 14.2776L84.6486 6.30767H87.6995V25.5H82.646L80.9929 19.1026L79.4607 9.14351H78.6947L79.2188 18.1618L79.4742 25.5ZM96.1365 25.5H92.9916V9.15695H89.3359V6.30767H99.7788V9.15695H96.1365V25.5ZM104.56 25.5H101.415V6.30767H104.56V14.3314H109.439V6.30767H112.584V25.5H109.439V17.1806H104.56V25.5ZM124.421 25.5H115.027V6.30767H124.421V9.15695H118.172V14.3314H124.058V17.1806H118.172V22.6507H124.421V25.5ZM129.579 25.5H126.434V6.30767H131.582C133.508 6.30767 134.901 6.64815 135.761 7.32911C136.631 8.01007 137.101 9.13455 137.173 10.7025C137.235 11.4462 137.262 12.0824 137.253 12.611C137.253 13.1397 137.226 13.7624 137.173 14.4792C137.128 15.4738 136.899 16.2846 136.487 16.9118C136.075 17.5301 135.443 18.0005 134.592 18.323L137.724 25.5H134.364L131.595 18.8606H129.579V25.5ZM129.579 9.15695V16.0114H131.541C132.392 16.0114 133.011 15.8949 133.396 15.6619C133.781 15.429 133.992 15.093 134.028 14.6539C134.144 13.2741 134.144 11.8987 134.028 10.5278C133.992 10.0798 133.781 9.73935 133.396 9.50639C133.011 9.27343 132.406 9.15695 131.582 9.15695H129.579ZM142.156 25.5H138.917L142.169 6.30767H147.626L150.878 25.5H147.653L146.967 21.1992H142.854L142.156 25.5ZM143.728 14.1163L143.137 18.3499H146.671L146.093 14.1163L145.395 9.15695H144.427L143.728 14.1163Z"/>
</mask>
<path d="M42.3761 25.715C40.4049 25.715 38.9981 25.3701 38.1559 24.6802C37.3226 23.9813 36.8791 22.821 36.8253 21.1992C36.7805 20.2046 36.7492 19.0802 36.7313 17.8258C36.7223 16.5714 36.7223 15.3259 36.7313 14.0894C36.7492 12.844 36.7805 11.7374 36.8253 10.7697C36.8791 9.06735 37.3271 7.86223 38.1693 7.15439C39.0205 6.43759 40.4183 6.07919 42.3626 6.07919C44.2173 6.07919 45.5703 6.42863 46.4215 7.12751C47.2727 7.82639 47.7431 8.97775 47.8327 10.5816C47.8775 10.9938 47.8954 11.4642 47.8865 11.9928C47.8865 12.5125 47.8685 12.9829 47.8327 13.404H44.6877C44.7236 12.9202 44.7415 12.3512 44.7415 11.6971C44.7505 11.0341 44.7325 10.4606 44.6877 9.97679C44.6161 9.13455 43.841 8.71343 42.3626 8.71343C40.8125 8.71343 40.0151 9.13455 39.9703 9.97679C39.9076 11.1774 39.8673 12.4632 39.8493 13.8341C39.8314 15.205 39.8314 16.5758 39.8493 17.9467C39.8762 19.3176 39.9165 20.6034 39.9703 21.804C39.9882 22.2162 40.1898 22.5342 40.5751 22.7582C40.9604 22.9733 41.5607 23.0808 42.3761 23.0808C43.962 23.0808 44.8042 22.6552 44.9028 21.804C44.9207 21.4546 44.9297 21.0155 44.9297 20.4869C44.9297 19.9493 44.9207 19.5102 44.9028 19.1698H42.497V16.3608H47.9805C48.0164 17.0686 48.0343 17.8526 48.0343 18.7128C48.0343 19.573 48.0074 20.4018 47.9537 21.1992C47.8909 22.821 47.425 23.9813 46.5559 24.6802C45.6868 25.3701 44.2935 25.715 42.3761 25.715ZM53.4205 25.5H50.2755V6.30767H55.4231C57.3495 6.30767 58.7427 6.64815 59.6029 7.32911C60.472 8.01007 60.9424 9.13455 61.0141 10.7025C61.0768 11.4462 61.1037 12.0824 61.0947 12.611C61.0947 13.1397 61.0679 13.7624 61.0141 14.4792C60.9693 15.4738 60.7408 16.2846 60.3287 16.9118C59.9165 17.5301 59.2848 18.0005 58.4336 18.323L61.5651 25.5H58.2051L55.4365 18.8606H53.4205V25.5ZM53.4205 9.15695V16.0114H55.3827C56.2339 16.0114 56.8522 15.8949 57.2375 15.6619C57.6227 15.429 57.8333 15.093 57.8691 14.6539C57.9856 13.2741 57.9856 11.8987 57.8691 10.5278C57.8333 10.0798 57.6227 9.73935 57.2375 9.50639C56.8522 9.27343 56.2474 9.15695 55.4231 9.15695H53.4205ZM65.9971 25.5H62.7581L66.0105 6.30767H71.4672L74.7197 25.5H71.4941L70.8086 21.1992H66.696L65.9971 25.5ZM67.5696 14.1163L66.9782 18.3499H70.5129L69.935 14.1163L69.2361 9.15695H68.2685L67.5696 14.1163ZM79.4742 25.5H76.4233V6.30767H81.2751L82.8342 12.4229L84.7158 22.6507H85.455L84.8771 14.2776L84.6486 6.30767H87.6995V25.5H82.646L80.9929 19.1026L79.4607 9.14351H78.6947L79.2188 18.1618L79.4742 25.5ZM96.1365 25.5H92.9916V9.15695H89.3359V6.30767H99.7788V9.15695H96.1365V25.5ZM104.56 25.5H101.415V6.30767H104.56V14.3314H109.439V6.30767H112.584V25.5H109.439V17.1806H104.56V25.5ZM124.421 25.5H115.027V6.30767H124.421V9.15695H118.172V14.3314H124.058V17.1806H118.172V22.6507H124.421V25.5ZM129.579 25.5H126.434V6.30767H131.582C133.508 6.30767 134.901 6.64815 135.761 7.32911C136.631 8.01007 137.101 9.13455 137.173 10.7025C137.235 11.4462 137.262 12.0824 137.253 12.611C137.253 13.1397 137.226 13.7624 137.173 14.4792C137.128 15.4738 136.899 16.2846 136.487 16.9118C136.075 17.5301 135.443 18.0005 134.592 18.323L137.724 25.5H134.364L131.595 18.8606H129.579V25.5ZM129.579 9.15695V16.0114H131.541C132.392 16.0114 133.011 15.8949 133.396 15.6619C133.781 15.429 133.992 15.093 134.028 14.6539C134.144 13.2741 134.144 11.8987 134.028 10.5278C133.992 10.0798 133.781 9.73935 133.396 9.50639C133.011 9.27343 132.406 9.15695 131.582 9.15695H129.579ZM142.156 25.5H138.917L142.169 6.30767H147.626L150.878 25.5H147.653L146.967 21.1992H142.854L142.156 25.5ZM143.728 14.1163L143.137 18.3499H146.671L146.093 14.1163L145.395 9.15695H144.427L143.728 14.1163Z" fill="#27223D"/>
<path d="M42.3761 25.715C40.4049 25.715 38.9981 25.3701 38.1559 24.6802C37.3226 23.9813 36.8791 22.821 36.8253 21.1992C36.7805 20.2046 36.7492 19.0802 36.7313 17.8258C36.7223 16.5714 36.7223 15.3259 36.7313 14.0894C36.7492 12.844 36.7805 11.7374 36.8253 10.7697C36.8791 9.06735 37.3271 7.86223 38.1693 7.15439C39.0205 6.43759 40.4183 6.07919 42.3626 6.07919C44.2173 6.07919 45.5703 6.42863 46.4215 7.12751C47.2727 7.82639 47.7431 8.97775 47.8327 10.5816C47.8775 10.9938 47.8954 11.4642 47.8865 11.9928C47.8865 12.5125 47.8685 12.9829 47.8327 13.404H44.6877C44.7236 12.9202 44.7415 12.3512 44.7415 11.6971C44.7505 11.0341 44.7325 10.4606 44.6877 9.97679C44.6161 9.13455 43.841 8.71343 42.3626 8.71343C40.8125 8.71343 40.0151 9.13455 39.9703 9.97679C39.9076 11.1774 39.8673 12.4632 39.8493 13.8341C39.8314 15.205 39.8314 16.5758 39.8493 17.9467C39.8762 19.3176 39.9165 20.6034 39.9703 21.804C39.9882 22.2162 40.1898 22.5342 40.5751 22.7582C40.9604 22.9733 41.5607 23.0808 42.3761 23.0808C43.962 23.0808 44.8042 22.6552 44.9028 21.804C44.9207 21.4546 44.9297 21.0155 44.9297 20.4869C44.9297 19.9493 44.9207 19.5102 44.9028 19.1698H42.497V16.3608H47.9805C48.0164 17.0686 48.0343 17.8526 48.0343 18.7128C48.0343 19.573 48.0074 20.4018 47.9537 21.1992C47.8909 22.821 47.425 23.9813 46.5559 24.6802C45.6868 25.3701 44.2935 25.715 42.3761 25.715ZM53.4205 25.5H50.2755V6.30767H55.4231C57.3495 6.30767 58.7427 6.64815 59.6029 7.32911C60.472 8.01007 60.9424 9.13455 61.0141 10.7025C61.0768 11.4462 61.1037 12.0824 61.0947 12.611C61.0947 13.1397 61.0679 13.7624 61.0141 14.4792C60.9693 15.4738 60.7408 16.2846 60.3287 16.9118C59.9165 17.5301 59.2848 18.0005 58.4336 18.323L61.5651 25.5H58.2051L55.4365 18.8606H53.4205V25.5ZM53.4205 9.15695V16.0114H55.3827C56.2339 16.0114 56.8522 15.8949 57.2375 15.6619C57.6227 15.429 57.8333 15.093 57.8691 14.6539C57.9856 13.2741 57.9856 11.8987 57.8691 10.5278C57.8333 10.0798 57.6227 9.73935 57.2375 9.50639C56.8522 9.27343 56.2474 9.15695 55.4231 9.15695H53.4205ZM65.9971 25.5H62.7581L66.0105 6.30767H71.4672L74.7197 25.5H71.4941L70.8086 21.1992H66.696L65.9971 25.5ZM67.5696 14.1163L66.9782 18.3499H70.5129L69.935 14.1163L69.2361 9.15695H68.2685L67.5696 14.1163ZM79.4742 25.5H76.4233V6.30767H81.2751L82.8342 12.4229L84.7158 22.6507H85.455L84.8771 14.2776L84.6486 6.30767H87.6995V25.5H82.646L80.9929 19.1026L79.4607 9.14351H78.6947L79.2188 18.1618L79.4742 25.5ZM96.1365 25.5H92.9916V9.15695H89.3359V6.30767H99.7788V9.15695H96.1365V25.5ZM104.56 25.5H101.415V6.30767H104.56V14.3314H109.439V6.30767H112.584V25.5H109.439V17.1806H104.56V25.5ZM124.421 25.5H115.027V6.30767H124.421V9.15695H118.172V14.3314H124.058V17.1806H118.172V22.6507H124.421V25.5ZM129.579 25.5H126.434V6.30767H131.582C133.508 6.30767 134.901 6.64815 135.761 7.32911C136.631 8.01007 137.101 9.13455 137.173 10.7025C137.235 11.4462 137.262 12.0824 137.253 12.611C137.253 13.1397 137.226 13.7624 137.173 14.4792C137.128 15.4738 136.899 16.2846 136.487 16.9118C136.075 17.5301 135.443 18.0005 134.592 18.323L137.724 25.5H134.364L131.595 18.8606H129.579V25.5ZM129.579 9.15695V16.0114H131.541C132.392 16.0114 133.011 15.8949 133.396 15.6619C133.781 15.429 133.992 15.093 134.028 14.6539C134.144 13.2741 134.144 11.8987 134.028 10.5278C133.992 10.0798 133.781 9.73935 133.396 9.50639C133.011 9.27343 132.406 9.15695 131.582 9.15695H129.579ZM142.156 25.5H138.917L142.169 6.30767H147.626L150.878 25.5H147.653L146.967 21.1992H142.854L142.156 25.5ZM143.728 14.1163L143.137 18.3499H146.671L146.093 14.1163L145.395 9.15695H144.427L143.728 14.1163Z" fill="url(#paint1_linear_2142_49344)"/>
<path d="M38.1559 24.6802L37.9242 24.9564L37.9274 24.9591L38.1559 24.6802ZM36.8253 21.1992L37.1857 21.1873L37.1855 21.183L36.8253 21.1992ZM36.7313 17.8258L36.3707 17.8283L36.3707 17.8309L36.7313 17.8258ZM36.7313 14.0894L36.3707 14.0842L36.3707 14.0868L36.7313 14.0894ZM36.8253 10.7697L37.1856 10.7864L37.1857 10.7811L36.8253 10.7697ZM38.1693 7.15439L38.4013 7.43042L38.4016 7.43019L38.1693 7.15439ZM47.8327 10.5816L47.4727 10.6017L47.4732 10.6111L47.4742 10.6206L47.8327 10.5816ZM47.8865 11.9928L47.5259 11.9867V11.9928H47.8865ZM47.8327 13.404V13.7646H48.1639L48.192 13.4346L47.8327 13.404ZM44.6877 13.404L44.3282 13.3774L44.2995 13.7646H44.6877V13.404ZM44.7415 11.6971L44.3809 11.6922V11.6971H44.7415ZM44.6877 9.97679L44.3285 10.0074L44.3287 10.01L44.6877 9.97679ZM39.9703 9.97679L39.6102 9.95764L39.6102 9.95798L39.9703 9.97679ZM39.8493 17.9467L39.4888 17.9514L39.4888 17.9538L39.8493 17.9467ZM39.9703 21.804L40.3305 21.7883L40.3305 21.7879L39.9703 21.804ZM40.5751 22.7582L40.3938 23.07L40.3994 23.0731L40.5751 22.7582ZM44.9028 21.804L45.261 21.8455L45.2623 21.834L45.2629 21.8225L44.9028 21.804ZM44.9028 19.1698L45.2628 19.1508L45.2449 18.8092H44.9028V19.1698ZM42.497 19.1698H42.1364V19.5303H42.497V19.1698ZM42.497 16.3608V16.0002H42.1364V16.3608H42.497ZM47.9805 16.3608L48.3406 16.3426L48.3233 16.0002H47.9805V16.3608ZM47.9537 21.1992L47.5938 21.1749L47.5934 21.1853L47.9537 21.1992ZM46.5559 24.6802L46.7801 24.9626L46.7819 24.9611L46.5559 24.6802ZM42.3761 25.715V25.3545C40.4283 25.3545 39.1275 25.01 38.3844 24.4012L38.1559 24.6802L37.9274 24.9591C38.8688 25.7302 40.3814 26.0756 42.3761 26.0756V25.715ZM38.1559 24.6802L38.3876 24.4039C37.6647 23.7976 37.2378 22.7574 37.1857 21.1873L36.8253 21.1992L36.465 21.2111C36.5204 22.8845 36.9805 24.1649 37.9242 24.9564L38.1559 24.6802ZM36.8253 21.1992L37.1855 21.183C37.1409 20.1929 37.1097 19.0722 37.0918 17.8206L36.7313 17.8258L36.3707 17.8309C36.3887 19.0881 36.4201 20.2164 36.4651 21.2154L36.8253 21.1992ZM36.7313 17.8258L37.0918 17.8232C37.0829 16.5705 37.0829 15.3268 37.0918 14.092L36.7313 14.0894L36.3707 14.0868C36.3617 15.3251 36.3617 16.5722 36.3707 17.8283L36.7313 17.8258ZM36.7313 14.0894L37.0918 14.0946C37.1097 12.852 37.1409 11.7494 37.1855 10.7864L36.8253 10.7697L36.4652 10.7531C36.4201 11.7255 36.3887 12.836 36.3707 14.0842L36.7313 14.0894ZM36.8253 10.7697L37.1857 10.7811C37.238 9.12544 37.672 8.04337 38.4013 7.43042L38.1693 7.15439L37.9374 6.87836C36.9822 7.68108 36.5202 9.00926 36.4649 10.7584L36.8253 10.7697ZM38.1693 7.15439L38.4016 7.43019C39.1544 6.79628 40.4459 6.43976 42.3626 6.43976V6.07919V5.71862C40.3907 5.71862 38.8867 6.07889 37.9371 6.87858L38.1693 7.15439ZM42.3626 6.07919V6.43976C44.1862 6.43976 45.4373 6.78594 46.1927 7.40618L46.4215 7.12751L46.6503 6.84884C45.7033 6.07131 44.2485 5.71862 42.3626 5.71862V6.07919ZM46.4215 7.12751L46.1927 7.40618C46.9359 8.01636 47.3861 9.05183 47.4727 10.6017L47.8327 10.5816L48.1927 10.5615C48.1001 8.90366 47.6095 7.63641 46.6503 6.84884L46.4215 7.12751ZM47.8327 10.5816L47.4742 10.6206C47.517 11.0143 47.5347 11.4692 47.5259 11.9867L47.8865 11.9928L48.247 11.9989C48.2561 11.4591 48.238 10.9732 48.1912 10.5426L47.8327 10.5816ZM47.8865 11.9928H47.5259C47.5259 12.5045 47.5082 12.9645 47.4734 13.3734L47.8327 13.404L48.192 13.4346C48.2288 13.0013 48.247 12.5205 48.247 11.9928H47.8865ZM47.8327 13.404V13.0434H44.6877V13.404V13.7646H47.8327V13.404ZM44.6877 13.404L45.0473 13.4306C45.084 12.9355 45.1021 12.3572 45.1021 11.6971H44.7415H44.3809C44.3809 12.3451 44.3632 12.9048 44.3282 13.3774L44.6877 13.404ZM44.7415 11.6971L45.102 11.702C45.1111 11.0305 45.0931 10.4437 45.0468 9.94355L44.6877 9.97679L44.3287 10.01C44.372 10.4776 44.3898 11.0377 44.381 11.6922L44.7415 11.6971ZM44.6877 9.97679L45.047 9.94621C45.0004 9.39811 44.7133 8.97787 44.2248 8.71245C43.7601 8.45992 43.1262 8.35286 42.3626 8.35286V8.71343V9.074C43.0775 9.074 43.5703 9.1775 43.8806 9.34609C44.1671 9.50179 44.3034 9.71323 44.3285 10.0074L44.6877 9.97679ZM42.3626 8.71343V8.35286C41.5656 8.35286 40.9091 8.45934 40.4336 8.71043C39.9321 8.97524 39.6399 9.39957 39.6102 9.95764L39.9703 9.97679L40.3304 9.99594C40.3455 9.71177 40.4744 9.50442 40.7704 9.34811C41.0923 9.17808 41.6096 9.074 42.3626 9.074V8.71343ZM39.9703 9.97679L39.6102 9.95798C39.5472 11.1639 39.5068 12.4544 39.4888 13.8294L39.8493 13.8341L40.2099 13.8388C40.2277 12.472 40.2679 11.1909 40.3304 9.9956L39.9703 9.97679ZM39.8493 13.8341L39.4888 13.8294C39.4708 15.2034 39.4708 16.5774 39.4888 17.9514L39.8493 17.9467L40.2099 17.942C40.192 16.5743 40.192 15.2065 40.2099 13.8388L39.8493 13.8341ZM39.8493 17.9467L39.4888 17.9538C39.5158 19.3273 39.5562 20.6161 39.6101 21.8201L39.9703 21.804L40.3305 21.7879C40.2769 20.5906 40.2367 19.3079 40.2098 17.9396L39.8493 17.9467ZM39.9703 21.804L39.6101 21.8197C39.6338 22.3659 39.9126 22.7901 40.3939 23.07L40.5751 22.7582L40.7563 22.4465C40.4671 22.2783 40.3426 22.0664 40.3305 21.7883L39.9703 21.804ZM40.5751 22.7582L40.3994 23.0731C40.8669 23.334 41.5432 23.4414 42.3761 23.4414V23.0808V22.7202C41.5781 22.7202 41.0539 22.6125 40.7508 22.4434L40.5751 22.7582ZM42.3761 23.0808V23.4414C43.1919 23.4414 43.865 23.3334 44.3598 23.0834C44.8761 22.8225 45.1961 22.4052 45.261 21.8455L44.9028 21.804L44.5446 21.7625C44.5109 22.054 44.3605 22.2751 44.0346 22.4398C43.6871 22.6153 43.1462 22.7202 42.3761 22.7202V23.0808ZM44.9028 21.804L45.2629 21.8225C45.2812 21.4646 45.2902 21.0189 45.2902 20.4869H44.9297H44.5691C44.5691 21.0121 44.5602 21.4445 44.5427 21.7855L44.9028 21.804ZM44.9297 20.4869H45.2902C45.2902 19.9461 45.2812 19.5001 45.2628 19.1508L44.9028 19.1698L44.5427 19.1887C44.5602 19.5204 44.5691 19.9524 44.5691 20.4869H44.9297ZM44.9028 19.1698V18.8092H42.497V19.1698V19.5303H44.9028V19.1698ZM42.497 19.1698H42.8576V16.3608H42.497H42.1364V19.1698H42.497ZM42.497 16.3608V16.7214H47.9805V16.3608V16.0002H42.497V16.3608ZM47.9805 16.3608L47.6204 16.379C47.6559 17.0797 47.6737 17.8575 47.6737 18.7128H48.0343H48.3949C48.3949 17.8478 48.3769 17.0576 48.3406 16.3426L47.9805 16.3608ZM48.0343 18.7128H47.6737C47.6737 19.5655 47.6471 20.3862 47.5939 21.1749L47.9537 21.1992L48.3134 21.2234C48.3678 20.4174 48.3949 19.5804 48.3949 18.7128H48.0343ZM47.9537 21.1992L47.5934 21.1853C47.5328 22.7513 47.0863 23.791 46.3299 24.3992L46.5559 24.6802L46.7819 24.9611C47.7637 24.1716 48.2491 22.8906 48.314 21.2131L47.9537 21.1992ZM46.5559 24.6802L46.3317 24.3978C45.5584 25.0116 44.2655 25.3545 42.3761 25.3545V25.715V26.0756C44.3215 26.0756 45.8152 25.7285 46.7801 24.9626L46.5559 24.6802ZM53.4205 25.5V25.8606H53.7811V25.5H53.4205ZM50.2755 25.5H49.915V25.8606H50.2755V25.5ZM50.2755 6.30767V5.9471H49.915V6.30767H50.2755ZM59.6029 7.32911L59.3791 7.61181L59.3805 7.61293L59.6029 7.32911ZM61.0141 10.7025L60.6536 10.719L60.6548 10.7329L61.0141 10.7025ZM61.0947 12.611L60.7342 12.6049V12.611H61.0947ZM61.0141 14.4792L60.6544 14.4522L60.6539 14.463L61.0141 14.4792ZM60.3287 16.9118L60.6287 17.1118L60.63 17.1099L60.3287 16.9118ZM58.4336 18.323L58.3058 17.9859L57.9517 18.1201L58.1031 18.4672L58.4336 18.323ZM61.5651 25.5V25.8606H62.1159L61.8956 25.3558L61.5651 25.5ZM58.2051 25.5L57.8723 25.6388L57.9648 25.8606H58.2051V25.5ZM55.4365 18.8606L55.7693 18.7219L55.6768 18.5001H55.4365V18.8606ZM53.4205 18.8606V18.5001H53.0599V18.8606H53.4205ZM53.4205 9.15695V8.79638H53.0599V9.15695H53.4205ZM53.4205 16.0114H53.0599V16.3719H53.4205V16.0114ZM57.2375 15.6619L57.424 15.9705L57.2375 15.6619ZM57.8691 14.6539L57.5098 14.6236L57.5098 14.6246L57.8691 14.6539ZM57.8691 10.5278L57.5097 10.5566L57.5099 10.5584L57.8691 10.5278ZM57.2375 9.50639L57.424 9.19784L57.2375 9.50639ZM53.4205 25.5V25.1394H50.2755V25.5V25.8606H53.4205V25.5ZM50.2755 25.5H50.6361V6.30767H50.2755H49.915V25.5H50.2755ZM50.2755 6.30767V6.66824H55.4231V6.30767V5.9471H50.2755V6.30767ZM55.4231 6.30767V6.66824C57.3232 6.66824 58.6154 7.00719 59.3791 7.61181L59.6029 7.32911L59.8267 7.04641C58.8701 6.28911 57.3757 5.9471 55.4231 5.9471V6.30767ZM59.6029 7.32911L59.3805 7.61293C60.1367 8.20538 60.5849 9.21021 60.6539 10.719L61.0141 10.7025L61.3743 10.6861C61.2999 9.05889 60.8074 7.81476 59.8253 7.04528L59.6029 7.32911ZM61.0141 10.7025L60.6548 10.7329C60.7169 11.4689 60.7429 12.0922 60.7342 12.6049L61.0947 12.611L61.4553 12.6171C61.4645 12.0726 61.4368 11.4235 61.3734 10.6722L61.0141 10.7025ZM61.0947 12.611H60.7342C60.7342 13.1281 60.7079 13.7415 60.6545 14.4522L61.0141 14.4792L61.3737 14.5062C61.4279 13.7833 61.4553 13.1512 61.4553 12.611H61.0947ZM61.0141 14.4792L60.6539 14.463C60.6111 15.4133 60.3941 16.1557 60.0273 16.7138L60.3287 16.9118L60.63 17.1099C61.0876 16.4135 61.3275 15.5342 61.3743 14.4954L61.0141 14.4792ZM60.3287 16.9118L60.0287 16.7118C59.6668 17.2546 59.1028 17.6839 58.3058 17.9859L58.4336 18.323L58.5614 18.6602C59.4668 18.3171 60.1662 17.8056 60.6287 17.1118L60.3287 16.9118ZM58.4336 18.323L58.1031 18.4672L61.2347 25.6442L61.5651 25.5L61.8956 25.3558L58.7641 18.1788L58.4336 18.323ZM61.5651 25.5V25.1394H58.2051V25.5V25.8606H61.5651V25.5ZM58.2051 25.5L58.5379 25.3612L55.7693 18.7219L55.4365 18.8606L55.1037 18.9994L57.8723 25.6388L58.2051 25.5ZM55.4365 18.8606V18.5001H53.4205V18.8606V19.2212H55.4365V18.8606ZM53.4205 18.8606H53.0599V25.5H53.4205H53.7811V18.8606H53.4205ZM53.4205 9.15695H53.0599V16.0114H53.4205H53.7811V9.15695H53.4205ZM53.4205 16.0114V16.3719H55.3827V16.0114V15.6508H53.4205V16.0114ZM55.3827 16.0114V16.3719C56.2504 16.3719 56.9515 16.2562 57.424 15.9705L57.2375 15.6619L57.0509 15.3534C56.7528 15.5336 56.2175 15.6508 55.3827 15.6508V16.0114ZM57.2375 15.6619L57.424 15.9705C57.9058 15.6792 58.183 15.2407 58.2285 14.6832L57.8691 14.6539L57.5098 14.6246C57.4836 14.9452 57.3397 15.1788 57.0509 15.3534L57.2375 15.6619ZM57.8691 14.6539L58.2284 14.6842C58.3466 13.2843 58.3466 11.8886 58.2284 10.4973L57.8691 10.5278L57.5099 10.5584C57.6246 11.9089 57.6246 13.2639 57.5098 14.6236L57.8691 14.6539ZM57.8691 10.5278L58.2286 10.4991C58.1834 9.93519 57.9084 9.4907 57.424 9.19784L57.2375 9.50639L57.0509 9.81494C57.3371 9.988 57.4832 10.2245 57.5097 10.5566L57.8691 10.5278ZM57.2375 9.50639L57.424 9.19784C56.9527 8.91287 56.2665 8.79638 55.4231 8.79638V9.15695V9.51752C56.2283 9.51752 56.7516 9.63399 57.0509 9.81494L57.2375 9.50639ZM55.4231 9.15695V8.79638H53.4205V9.15695V9.51752H55.4231V9.15695ZM65.9971 25.5V25.8606H66.3038L66.353 25.5578L65.9971 25.5ZM62.7581 25.5L62.4026 25.4398L62.3312 25.8606H62.7581V25.5ZM66.0105 6.30767V5.9471H65.7059L65.655 6.24742L66.0105 6.30767ZM71.4672 6.30767L71.8227 6.24742L71.7718 5.9471H71.4672V6.30767ZM74.7197 25.5V25.8606H75.1465L75.0752 25.4398L74.7197 25.5ZM71.4941 25.5L71.138 25.5567L71.1864 25.8606H71.4941V25.5ZM70.8086 21.1992L71.1647 21.1424L71.1163 20.8386H70.8086V21.1992ZM66.696 21.1992V20.8386H66.3893L66.3401 21.1414L66.696 21.1992ZM67.5696 14.1163L67.2125 14.066L67.2125 14.0664L67.5696 14.1163ZM66.9782 18.3499L66.6211 18.3L66.5638 18.7105H66.9782V18.3499ZM70.5129 18.3499V18.7105H70.9261L70.8702 18.3011L70.5129 18.3499ZM69.935 14.1163L70.2923 14.0675L70.2921 14.066L69.935 14.1163ZM69.2361 9.15695L69.5932 9.10663L69.5495 8.79638H69.2361V9.15695ZM68.2685 9.15695V8.79638H67.9551L67.9114 9.10663L68.2685 9.15695ZM65.9971 25.5V25.1394H62.7581V25.5V25.8606H65.9971V25.5ZM62.7581 25.5L63.1136 25.5602L66.366 6.36791L66.0105 6.30767L65.655 6.24742L62.4026 25.4398L62.7581 25.5ZM66.0105 6.30767V6.66824H71.4672V6.30767V5.9471H66.0105V6.30767ZM71.4672 6.30767L71.1117 6.36791L74.3642 25.5602L74.7197 25.5L75.0752 25.4398L71.8227 6.24742L71.4672 6.30767ZM74.7197 25.5V25.1394H71.4941V25.5V25.8606H74.7197V25.5ZM71.4941 25.5L71.8501 25.4433L71.1647 21.1424L70.8086 21.1992L70.4525 21.2559L71.138 25.5567L71.4941 25.5ZM70.8086 21.1992V20.8386H66.696V21.1992V21.5598H70.8086V21.1992ZM66.696 21.1992L66.3401 21.1414L65.6412 25.4422L65.9971 25.5L66.353 25.5578L67.0519 21.257L66.696 21.1992ZM67.5696 14.1163L67.2125 14.0664L66.6211 18.3L66.9782 18.3499L67.3353 18.3998L67.9267 14.1662L67.5696 14.1163ZM66.9782 18.3499V18.7105H70.5129V18.3499V17.9893H66.9782V18.3499ZM70.5129 18.3499L70.8702 18.3011L70.2923 14.0675L69.935 14.1163L69.5778 14.1651L70.1557 18.3987L70.5129 18.3499ZM69.935 14.1163L70.2921 14.066L69.5932 9.10663L69.2361 9.15695L68.8791 9.20726L69.578 14.1666L69.935 14.1163ZM69.2361 9.15695V8.79638H68.2685V9.15695V9.51752H69.2361V9.15695ZM68.2685 9.15695L67.9114 9.10663L67.2125 14.066L67.5696 14.1163L67.9266 14.1666L68.6255 9.20726L68.2685 9.15695ZM79.4742 25.5V25.8606H79.8475L79.8345 25.4875L79.4742 25.5ZM76.4233 25.5H76.0627V25.8606H76.4233V25.5ZM76.4233 6.30767V5.9471H76.0627V6.30767H76.4233ZM81.2751 6.30767L81.6245 6.21859L81.5553 5.9471H81.2751V6.30767ZM82.8342 12.4229L83.1888 12.3576L83.1866 12.3456L83.1836 12.3338L82.8342 12.4229ZM84.7158 22.6507L84.3612 22.716L84.4155 23.0113H84.7158V22.6507ZM85.455 22.6507V23.0113H85.8413L85.8147 22.6259L85.455 22.6507ZM84.8771 14.2776L84.5166 14.2879L84.5168 14.2952L84.5173 14.3024L84.8771 14.2776ZM84.6486 6.30767V5.9471H84.2775L84.2882 6.318L84.6486 6.30767ZM87.6995 6.30767H88.06V5.9471H87.6995V6.30767ZM87.6995 25.5V25.8606H88.06V25.5H87.6995ZM82.646 25.5L82.2969 25.5902L82.3668 25.8606H82.646V25.5ZM80.9929 19.1026L80.6365 19.1574L80.6393 19.1753L80.6438 19.1928L80.9929 19.1026ZM79.4607 9.14351L79.8171 9.08868L79.7701 8.78294H79.4607V9.14351ZM78.6947 9.14351V8.78294H78.3125L78.3347 9.16443L78.6947 9.14351ZM79.2188 18.1618L79.5793 18.1492L79.5788 18.1408L79.2188 18.1618ZM79.4742 25.5V25.1394H76.4233V25.5V25.8606H79.4742V25.5ZM76.4233 25.5H76.7839V6.30767H76.4233H76.0627V25.5H76.4233ZM76.4233 6.30767V6.66824H81.2751V6.30767V5.9471H76.4233V6.30767ZM81.2751 6.30767L80.9257 6.39674L82.4848 12.5119L82.8342 12.4229L83.1836 12.3338L81.6245 6.21859L81.2751 6.30767ZM82.8342 12.4229L82.4796 12.4881L84.3612 22.716L84.7158 22.6507L85.0704 22.5855L83.1888 12.3576L82.8342 12.4229ZM84.7158 22.6507V23.0113H85.455V22.6507V22.2901H84.7158V22.6507ZM85.455 22.6507L85.8147 22.6259L85.2368 14.2528L84.8771 14.2776L84.5173 14.3024L85.0953 22.6755L85.455 22.6507ZM84.8771 14.2776L85.2375 14.2673L85.009 6.29733L84.6486 6.30767L84.2882 6.318L84.5166 14.2879L84.8771 14.2776ZM84.6486 6.30767V6.66824H87.6995V6.30767V5.9471H84.6486V6.30767ZM87.6995 6.30767H87.3389V25.5H87.6995H88.06V6.30767H87.6995ZM87.6995 25.5V25.1394H82.646V25.5V25.8606H87.6995V25.5ZM82.646 25.5L82.9951 25.4098L81.342 19.0123L80.9929 19.1026L80.6438 19.1928L82.2969 25.5902L82.646 25.5ZM80.9929 19.1026L81.3493 19.0477L79.8171 9.08868L79.4607 9.14351L79.1044 9.19834L80.6365 19.1574L80.9929 19.1026ZM79.4607 9.14351V8.78294H78.6947V9.14351V9.50408H79.4607V9.14351ZM78.6947 9.14351L78.3347 9.16443L78.8589 18.1827L79.2188 18.1618L79.5788 18.1408L79.0546 9.12259L78.6947 9.14351ZM79.2188 18.1618L78.8585 18.1743L79.1138 25.5125L79.4742 25.5L79.8345 25.4875L79.5792 18.1492L79.2188 18.1618ZM96.1365 25.5V25.8606H96.4971V25.5H96.1365ZM92.9916 25.5H92.631V25.8606H92.9916V25.5ZM92.9916 9.15695H93.3521V8.79638H92.9916V9.15695ZM89.3359 9.15695H88.9753V9.51752H89.3359V9.15695ZM89.3359 6.30767V5.9471H88.9753V6.30767H89.3359ZM99.7788 6.30767H100.139V5.9471H99.7788V6.30767ZM99.7788 9.15695V9.51752H100.139V9.15695H99.7788ZM96.1365 9.15695V8.79638H95.776V9.15695H96.1365ZM96.1365 25.5V25.1394H92.9916V25.5V25.8606H96.1365V25.5ZM92.9916 25.5H93.3521V9.15695H92.9916H92.631V25.5H92.9916ZM92.9916 9.15695V8.79638H89.3359V9.15695V9.51752H92.9916V9.15695ZM89.3359 9.15695H89.6965V6.30767H89.3359H88.9753V9.15695H89.3359ZM89.3359 6.30767V6.66824H99.7788V6.30767V5.9471H89.3359V6.30767ZM99.7788 6.30767H99.4182V9.15695H99.7788H100.139V6.30767H99.7788ZM99.7788 9.15695V8.79638H96.1365V9.15695V9.51752H99.7788V9.15695ZM96.1365 9.15695H95.776V25.5H96.1365H96.4971V9.15695H96.1365ZM104.56 25.5V25.8606H104.921V25.5H104.56ZM101.415 25.5H101.055V25.8606H101.415V25.5ZM101.415 6.30767V5.9471H101.055V6.30767H101.415ZM104.56 6.30767H104.921V5.9471H104.56V6.30767ZM104.56 14.3314H104.2V14.6919H104.56V14.3314ZM109.439 14.3314V14.6919H109.799V14.3314H109.439ZM109.439 6.30767V5.9471H109.078V6.30767H109.439ZM112.584 6.30767H112.944V5.9471H112.584V6.30767ZM112.584 25.5V25.8606H112.944V25.5H112.584ZM109.439 25.5H109.078V25.8606H109.439V25.5ZM109.439 17.1806H109.799V16.8201H109.439V17.1806ZM104.56 17.1806V16.8201H104.2V17.1806H104.56ZM104.56 25.5V25.1394H101.415V25.5V25.8606H104.56V25.5ZM101.415 25.5H101.776V6.30767H101.415H101.055V25.5H101.415ZM101.415 6.30767V6.66824H104.56V6.30767V5.9471H101.415V6.30767ZM104.56 6.30767H104.2V14.3314H104.56H104.921V6.30767H104.56ZM104.56 14.3314V14.6919H109.439V14.3314V13.9708H104.56V14.3314ZM109.439 14.3314H109.799V6.30767H109.439H109.078V14.3314H109.439ZM109.439 6.30767V6.66824H112.584V6.30767V5.9471H109.439V6.30767ZM112.584 6.30767H112.223V25.5H112.584H112.944V6.30767H112.584ZM112.584 25.5V25.1394H109.439V25.5V25.8606H112.584V25.5ZM109.439 25.5H109.799V17.1806H109.439H109.078V25.5H109.439ZM109.439 17.1806V16.8201H104.56V17.1806V17.5412H109.439V17.1806ZM104.56 17.1806H104.2V25.5H104.56H104.921V17.1806H104.56ZM124.421 25.5V25.8606H124.782V25.5H124.421ZM115.027 25.5H114.666V25.8606H115.027V25.5ZM115.027 6.30767V5.9471H114.666V6.30767H115.027ZM124.421 6.30767H124.782V5.9471H124.421V6.30767ZM124.421 9.15695V9.51752H124.782V9.15695H124.421ZM118.172 9.15695V8.79638H117.811V9.15695H118.172ZM118.172 14.3314H117.811V14.6919H118.172V14.3314ZM124.058 14.3314H124.419V13.9708H124.058V14.3314ZM124.058 17.1806V17.5412H124.419V17.1806H124.058ZM118.172 17.1806V16.8201H117.811V17.1806H118.172ZM118.172 22.6507H117.811V23.0113H118.172V22.6507ZM124.421 22.6507H124.782V22.2901H124.421V22.6507ZM124.421 25.5V25.1394H115.027V25.5V25.8606H124.421V25.5ZM115.027 25.5H115.387V6.30767H115.027H114.666V25.5H115.027ZM115.027 6.30767V6.66824H124.421V6.30767V5.9471H115.027V6.30767ZM124.421 6.30767H124.061V9.15695H124.421H124.782V6.30767H124.421ZM124.421 9.15695V8.79638H118.172V9.15695V9.51752H124.421V9.15695ZM118.172 9.15695H117.811V14.3314H118.172H118.532V9.15695H118.172ZM118.172 14.3314V14.6919H124.058V14.3314V13.9708H118.172V14.3314ZM124.058 14.3314H123.698V17.1806H124.058H124.419V14.3314H124.058ZM124.058 17.1806V16.8201H118.172V17.1806V17.5412H124.058V17.1806ZM118.172 17.1806H117.811V22.6507H118.172H118.532V17.1806H118.172ZM118.172 22.6507V23.0113H124.421V22.6507V22.2901H118.172V22.6507ZM124.421 22.6507H124.061V25.5H124.421H124.782V22.6507H124.421ZM129.579 25.5V25.8606H129.94V25.5H129.579ZM126.434 25.5H126.073V25.8606H126.434V25.5ZM126.434 6.30767V5.9471H126.073V6.30767H126.434ZM135.761 7.32911L135.538 7.61181L135.539 7.61293L135.761 7.32911ZM137.173 10.7025L136.812 10.719L136.813 10.7329L137.173 10.7025ZM137.253 12.611L136.893 12.6049V12.611H137.253ZM137.173 14.4792L136.813 14.4522L136.812 14.463L137.173 14.4792ZM136.487 16.9118L136.787 17.1118L136.788 17.1099L136.487 16.9118ZM134.592 18.323L134.464 17.9859L134.11 18.1201L134.262 18.4672L134.592 18.323ZM137.724 25.5V25.8606H138.274L138.054 25.3558L137.724 25.5ZM134.364 25.5L134.031 25.6388L134.123 25.8606H134.364V25.5ZM131.595 18.8606L131.928 18.7219L131.835 18.5001H131.595V18.8606ZM129.579 18.8606V18.5001H129.218V18.8606H129.579ZM129.579 9.15695V8.79638H129.218V9.15695H129.579ZM129.579 16.0114H129.218V16.3719H129.579V16.0114ZM133.396 15.6619L133.583 15.9705L133.396 15.6619ZM134.028 14.6539L133.668 14.6236L133.668 14.6246L134.028 14.6539ZM134.028 10.5278L133.668 10.5566L133.668 10.5584L134.028 10.5278ZM133.396 9.50639L133.583 9.19784L133.396 9.50639ZM129.579 25.5V25.1394H126.434V25.5V25.8606H129.579V25.5ZM126.434 25.5H126.795V6.30767H126.434H126.073V25.5H126.434ZM126.434 6.30767V6.66824H131.582V6.30767V5.9471H126.434V6.30767ZM131.582 6.30767V6.66824C133.482 6.66824 134.774 7.00719 135.538 7.61181L135.761 7.32911L135.985 7.04641C135.029 6.28911 133.534 5.9471 131.582 5.9471V6.30767ZM135.761 7.32911L135.539 7.61293C136.295 8.20538 136.743 9.21021 136.812 10.719L137.173 10.7025L137.533 10.6861C137.458 9.05889 136.966 7.81476 135.984 7.04528L135.761 7.32911ZM137.173 10.7025L136.813 10.7329C136.875 11.4689 136.901 12.0922 136.893 12.6049L137.253 12.611L137.614 12.6171C137.623 12.0726 137.595 11.4235 137.532 10.6722L137.173 10.7025ZM137.253 12.611H136.893C136.893 13.1281 136.866 13.7415 136.813 14.4522L137.173 14.4792L137.532 14.5062C137.586 13.7833 137.614 13.1512 137.614 12.611H137.253ZM137.173 14.4792L136.812 14.463C136.77 15.4133 136.553 16.1557 136.186 16.7138L136.487 16.9118L136.788 17.1099C137.246 16.4135 137.486 15.5342 137.533 14.4954L137.173 14.4792ZM136.487 16.9118L136.187 16.7118C135.825 17.2546 135.261 17.6839 134.464 17.9859L134.592 18.323L134.72 18.6602C135.625 18.3171 136.325 17.8056 136.787 17.1118L136.487 16.9118ZM134.592 18.323L134.262 18.4672L137.393 25.6442L137.724 25.5L138.054 25.3558L134.923 18.1788L134.592 18.323ZM137.724 25.5V25.1394H134.364V25.5V25.8606H137.724V25.5ZM134.364 25.5L134.696 25.3612L131.928 18.7219L131.595 18.8606L131.262 18.9994L134.031 25.6388L134.364 25.5ZM131.595 18.8606V18.5001H129.579V18.8606V19.2212H131.595V18.8606ZM129.579 18.8606H129.218V25.5H129.579H129.94V18.8606H129.579ZM129.579 9.15695H129.218V16.0114H129.579H129.94V9.15695H129.579ZM129.579 16.0114V16.3719H131.541V16.0114V15.6508H129.579V16.0114ZM131.541 16.0114V16.3719C132.409 16.3719 133.11 16.2562 133.583 15.9705L133.396 15.6619L133.209 15.3534C132.911 15.5336 132.376 15.6508 131.541 15.6508V16.0114ZM133.396 15.6619L133.583 15.9705C134.064 15.6792 134.341 15.2407 134.387 14.6832L134.028 14.6539L133.668 14.6246C133.642 14.9452 133.498 15.1788 133.209 15.3534L133.396 15.6619ZM134.028 14.6539L134.387 14.6842C134.505 13.2843 134.505 11.8886 134.387 10.4973L134.028 10.5278L133.668 10.5584C133.783 11.9089 133.783 13.2639 133.668 14.6236L134.028 14.6539ZM134.028 10.5278L134.387 10.4991C134.342 9.93519 134.067 9.4907 133.583 9.19784L133.396 9.50639L133.209 9.81494C133.496 9.988 133.642 10.2245 133.668 10.5566L134.028 10.5278ZM133.396 9.50639L133.583 9.19784C133.111 8.91287 132.425 8.79638 131.582 8.79638V9.15695V9.51752C132.387 9.51752 132.91 9.63399 133.209 9.81494L133.396 9.50639ZM131.582 9.15695V8.79638H129.579V9.15695V9.51752H131.582V9.15695ZM142.156 25.5V25.8606H142.462L142.511 25.5578L142.156 25.5ZM138.917 25.5L138.561 25.4398L138.49 25.8606H138.917V25.5ZM142.169 6.30767V5.9471H141.864L141.814 6.24742L142.169 6.30767ZM147.626 6.30767L147.981 6.24742L147.93 5.9471H147.626V6.30767ZM150.878 25.5V25.8606H151.305L151.234 25.4398L150.878 25.5ZM147.653 25.5L147.296 25.5567L147.345 25.8606H147.653V25.5ZM146.967 21.1992L147.323 21.1424L147.275 20.8386H146.967V21.1992ZM142.854 21.1992V20.8386H142.548L142.499 21.1414L142.854 21.1992ZM143.728 14.1163L143.371 14.066L143.371 14.0664L143.728 14.1163ZM143.137 18.3499L142.78 18.3L142.722 18.7105H143.137V18.3499ZM146.671 18.3499V18.7105H147.085L147.029 18.3011L146.671 18.3499ZM146.093 14.1163L146.451 14.0675L146.451 14.066L146.093 14.1163ZM145.395 9.15695L145.752 9.10663L145.708 8.79638H145.395V9.15695ZM144.427 9.15695V8.79638H144.114L144.07 9.10663L144.427 9.15695ZM142.156 25.5V25.1394H138.917V25.5V25.8606H142.156V25.5ZM138.917 25.5L139.272 25.5602L142.525 6.36791L142.169 6.30767L141.814 6.24742L138.561 25.4398L138.917 25.5ZM142.169 6.30767V6.66824H147.626V6.30767V5.9471H142.169V6.30767ZM147.626 6.30767L147.27 6.36791L150.523 25.5602L150.878 25.5L151.234 25.4398L147.981 6.24742L147.626 6.30767ZM150.878 25.5V25.1394H147.653V25.5V25.8606H150.878V25.5ZM147.653 25.5L148.009 25.4433L147.323 21.1424L146.967 21.1992L146.611 21.2559L147.296 25.5567L147.653 25.5ZM146.967 21.1992V20.8386H142.854V21.1992V21.5598H146.967V21.1992ZM142.854 21.1992L142.499 21.1414L141.8 25.4422L142.156 25.5L142.511 25.5578L143.21 21.257L142.854 21.1992ZM143.728 14.1163L143.371 14.0664L142.78 18.3L143.137 18.3499L143.494 18.3998L144.085 14.1662L143.728 14.1163ZM143.137 18.3499V18.7105H146.671V18.3499V17.9893H143.137V18.3499ZM146.671 18.3499L147.029 18.3011L146.451 14.0675L146.093 14.1163L145.736 14.1651L146.314 18.3987L146.671 18.3499ZM146.093 14.1163L146.451 14.066L145.752 9.10663L145.395 9.15695L145.038 9.20726L145.736 14.1666L146.093 14.1163ZM145.395 9.15695V8.79638H144.427V9.15695V9.51752H145.395V9.15695ZM144.427 9.15695L144.07 9.10663L143.371 14.066L143.728 14.1163L144.085 14.1666L144.784 9.20726L144.427 9.15695Z" fill="#27223D" mask="url(#path-2-outside-1_2142_49344)"/>
<defs>
<linearGradient id="paint0_linear_2142_49344" x1="13.97" y1="0.0273437" x2="13.97" y2="31.9761" gradientUnits="userSpaceOnUse">
<stop stop-color="#F6F4FE"/>
<stop offset="1" stop-color="#A19ABF"/>
</linearGradient>
<linearGradient id="paint1_linear_2142_49344" x1="93.8711" y1="6.5" x2="93.8711" y2="25.5" gradientUnits="userSpaceOnUse">
<stop stop-color="#F6F4FE"/>
<stop offset="1" stop-color="#A19ABF"/>
</linearGradient>
</defs>
</svg>
